<svg width="16" height="16" viewBox="0 0 16 16" fill="none" xmlns="http://www.w3.org/2000/svg">
<path d="M13.5 2H3C2.86739 2 2.74021 2.05268 2.64645 2.14645C2.55268 2.24021 2.5 2.36739 2.5 2.5V8.5C2.50091 9.29537 2.81727 10.0579 3.37968 10.6203C3.9421 11.1827 4.70463 11.4991 5.5 11.5H9C9.79537 11.4991 10.5579 11.1827 11.1203 10.6203C11.6827 10.0579 11.9991 9.29537 12 8.5V6H12.5625C13.0762 5.99942 13.5687 5.79511 13.9319 5.43188C14.2951 5.06865 14.4994 4.57618 14.5 4.0625V3C14.5 2.73478 14.3946 2.48043 14.2071 2.29289C14.0196 2.10536 13.7652 2 13.5 2V2ZM13.5 4.0625C13.5 4.31114 13.4012 4.5496 13.2254 4.72541C13.0496 4.90123 12.8111 5 12.5625 5H12V3H13.5V4.0625ZM12.5 12.5H2C1.86739 12.5 1.74021 12.5527 1.64645 12.6464C1.55268 12.7402 1.5 12.8674 1.5 13C1.5 13.1326 1.55268 13.2598 1.64645 13.3536C1.74021 13.4473 1.86739 13.5 2 13.5H12.5C12.6326 13.5 12.7598 13.4473 12.8536 13.3536C12.9473 13.2598 13 13.1326 13 13C13 12.8674 12.9473 12.7402 12.8536 12.6464C12.7598 12.5527 12.6326 12.5 12.5 12.5Z" fill="#112211"/>
</svg>
