<svg width="24" height="24" viewBox="0 0 24 24" fill="none" xmlns="http://www.w3.org/2000/svg">
<path d="M21 6.85708C21 6.1751 20.7291 5.52105 20.2468 5.03881C19.7646 4.55657 19.1106 4.28566 18.4286 4.28566H17.7857V3.66088C17.7857 3.31494 17.5197 3.01802 17.1738 3.00074C17.0869 2.99656 17 3.01006 16.9185 3.04044C16.8369 3.07081 16.7624 3.11743 16.6994 3.17746C16.6364 3.23749 16.5862 3.30969 16.552 3.38968C16.5177 3.46966 16.5 3.55578 16.5 3.6428V4.28566H7.5V3.66088C7.5 3.31494 7.23402 3.01802 6.88808 3.00074C6.80116 2.99656 6.71429 3.01006 6.63275 3.04044C6.5512 3.07081 6.47667 3.11743 6.41367 3.17746C6.35067 3.23749 6.30051 3.30969 6.26624 3.38968C6.23197 3.46966 6.21429 3.55578 6.21429 3.6428V4.28566H5.57143C4.88944 4.28566 4.23539 4.55657 3.75315 5.03881C3.27092 5.52105 3 6.1751 3 6.85708V7.33923C3 7.38185 3.01693 7.42273 3.04707 7.45287C3.07721 7.48301 3.11809 7.49994 3.16071 7.49994H20.8393C20.8819 7.49994 20.9228 7.48301 20.9529 7.45287C20.9831 7.42273 21 7.38185 21 7.33923V6.85708ZM3 18.4285C3 19.1105 3.27092 19.7646 3.75315 20.2468C4.23539 20.729 4.88944 20.9999 5.57143 20.9999H18.4286C19.1106 20.9999 19.7646 20.729 20.2468 20.2468C20.7291 19.7646 21 19.1105 21 18.4285V8.90619C21 8.87422 20.9873 8.84356 20.9647 8.82096C20.9421 8.79835 20.9114 8.78566 20.8795 8.78566H3.12054C3.08857 8.78566 3.05791 8.79835 3.0353 8.82096C3.0127 8.84356 3 8.87422 3 8.90619V18.4285ZM16.8214 10.0714C17.0121 10.0714 17.1986 10.1279 17.3572 10.2339C17.5157 10.3398 17.6393 10.4904 17.7123 10.6666C17.7853 10.8428 17.8044 11.0367 17.7672 11.2238C17.73 11.4108 17.6381 11.5827 17.5033 11.7175C17.3684 11.8524 17.1966 11.9442 17.0096 11.9814C16.8225 12.0186 16.6286 11.9995 16.4524 11.9265C16.2762 11.8536 16.1256 11.73 16.0197 11.5714C15.9137 11.4128 15.8571 11.2264 15.8571 11.0357C15.8571 10.7799 15.9587 10.5346 16.1396 10.3538C16.3204 10.173 16.5657 10.0714 16.8214 10.0714ZM16.8214 13.2857C17.0121 13.2857 17.1986 13.3422 17.3572 13.4482C17.5157 13.5541 17.6393 13.7047 17.7123 13.8809C17.7853 14.0571 17.8044 14.251 17.7672 14.4381C17.73 14.6251 17.6381 14.7969 17.5033 14.9318C17.3684 15.0667 17.1966 15.1585 17.0096 15.1957C16.8225 15.2329 16.6286 15.2138 16.4524 15.1408C16.2762 15.0678 16.1256 14.9442 16.0197 14.7857C15.9137 14.6271 15.8571 14.4407 15.8571 14.2499C15.8571 13.9942 15.9587 13.7489 16.1396 13.5681C16.3204 13.3872 16.5657 13.2857 16.8214 13.2857ZM13.6071 10.0714C13.7979 10.0714 13.9843 10.1279 14.1429 10.2339C14.3014 10.3398 14.425 10.4904 14.498 10.6666C14.571 10.8428 14.5901 11.0367 14.5529 11.2238C14.5157 11.4108 14.4239 11.5827 14.289 11.7175C14.1541 11.8524 13.9823 11.9442 13.7953 11.9814C13.6082 12.0186 13.4143 11.9995 13.2381 11.9265C13.0619 11.8536 12.9113 11.73 12.8054 11.5714C12.6994 11.4128 12.6429 11.2264 12.6429 11.0357C12.6429 10.7799 12.7445 10.5346 12.9253 10.3538C13.1061 10.173 13.3514 10.0714 13.6071 10.0714ZM13.6071 13.2857C13.7979 13.2857 13.9843 13.3422 14.1429 13.4482C14.3014 13.5541 14.425 13.7047 14.498 13.8809C14.571 14.0571 14.5901 14.251 14.5529 14.4381C14.5157 14.6251 14.4239 14.7969 14.289 14.9318C14.1541 15.0667 13.9823 15.1585 13.7953 15.1957C13.6082 15.2329 13.4143 15.2138 13.2381 15.1408C13.0619 15.0678 12.9113 14.9442 12.8054 14.7857C12.6994 14.6271 12.6429 14.4407 12.6429 14.2499C12.6429 13.9942 12.7445 13.7489 12.9253 13.5681C13.1061 13.3872 13.3514 13.2857 13.6071 13.2857ZM13.6071 16.4999C13.7979 16.4999 13.9843 16.5565 14.1429 16.6625C14.3014 16.7684 14.425 16.919 14.498 17.0952C14.571 17.2714 14.5901 17.4653 14.5529 17.6523C14.5157 17.8394 14.4239 18.0112 14.289 18.1461C14.1541 18.2809 13.9823 18.3728 13.7953 18.41C13.6082 18.4472 13.4143 18.4281 13.2381 18.3551C13.0619 18.2821 12.9113 18.1585 12.8054 18C12.6994 17.8414 12.6429 17.6549 12.6429 17.4642C12.6429 17.2085 12.7445 16.9632 12.9253 16.7824C13.1061 16.6015 13.3514 16.4999 13.6071 16.4999ZM10.3929 13.2857C10.5836 13.2857 10.77 13.3422 10.9286 13.4482C11.0872 13.5541 11.2108 13.7047 11.2837 13.8809C11.3567 14.0571 11.3758 14.251 11.3386 14.4381C11.3014 14.6251 11.2096 14.7969 11.0747 14.9318C10.9399 15.0667 10.768 15.1585 10.581 15.1957C10.3939 15.2329 10.2 15.2138 10.0238 15.1408C9.84764 15.0678 9.69704 14.9442 9.59108 14.7857C9.48513 14.6271 9.42857 14.4407 9.42857 14.2499C9.42857 13.9942 9.53017 13.7489 9.711 13.5681C9.89184 13.3872 10.1371 13.2857 10.3929 13.2857ZM10.3929 16.4999C10.5836 16.4999 10.77 16.5565 10.9286 16.6625C11.0872 16.7684 11.2108 16.919 11.2837 17.0952C11.3567 17.2714 11.3758 17.4653 11.3386 17.6523C11.3014 17.8394 11.2096 18.0112 11.0747 18.1461C10.9399 18.2809 10.768 18.3728 10.581 18.41C10.3939 18.4472 10.2 18.4281 10.0238 18.3551C9.84764 18.2821 9.69704 18.1585 9.59108 18C9.48513 17.8414 9.42857 17.6549 9.42857 17.4642C9.42857 17.2085 9.53017 16.9632 9.711 16.7824C9.89184 16.6015 10.1371 16.4999 10.3929 16.4999ZM7.17857 13.2857C7.36929 13.2857 7.55572 13.3422 7.7143 13.4482C7.87288 13.5541 7.99647 13.7047 8.06946 13.8809C8.14244 14.0571 8.16154 14.251 8.12433 14.4381C8.08712 14.6251 7.99528 14.7969 7.86042 14.9318C7.72557 15.0667 7.55375 15.1585 7.36669 15.1957C7.17964 15.2329 6.98576 15.2138 6.80956 15.1408C6.63336 15.0678 6.48275 14.9442 6.3768 14.7857C6.27084 14.6271 6.21429 14.4407 6.21429 14.2499C6.21429 13.9942 6.31588 13.7489 6.49672 13.5681C6.67756 13.3872 6.92283 13.2857 7.17857 13.2857ZM7.17857 16.4999C7.36929 16.4999 7.55572 16.5565 7.7143 16.6625C7.87288 16.7684 7.99647 16.919 8.06946 17.0952C8.14244 17.2714 8.16154 17.4653 8.12433 17.6523C8.08712 17.8394 7.99528 18.0112 7.86042 18.1461C7.72557 18.2809 7.55375 18.3728 7.36669 18.41C7.17964 18.4472 6.98576 18.4281 6.80956 18.3551C6.63336 18.2821 6.48275 18.1585 6.3768 18C6.27084 17.8414 6.21429 17.6549 6.21429 17.4642C6.21429 17.2085 6.31588 16.9632 6.49672 16.7824C6.67756 16.6015 6.92283 16.4999 7.17857 16.4999Z" fill="#13293D"/>
</svg>
