<svg width="20" height="19" viewBox="0 0 20 19" fill="none" xmlns="http://www.w3.org/2000/svg">
<g clip-path="url(#clip0_288_158676)">
<path d="M17.917 3.16705H15.6948V4.75039C15.6948 4.90287 15.6632 5.05385 15.6018 5.19472C15.5403 5.3356 15.4503 5.4636 15.3368 5.57142C15.2233 5.67924 15.0886 5.76476 14.9403 5.82311C14.792 5.88146 14.6331 5.9115 14.4726 5.9115C14.3121 5.9115 14.1531 5.88146 14.0049 5.82311C13.8566 5.76476 13.7218 5.67924 13.6083 5.57142C13.4948 5.4636 13.4048 5.3356 13.3434 5.19472C13.282 5.05385 13.2504 4.90287 13.2504 4.75039V3.16705H6.77814V4.75039C6.77814 5.05833 6.64937 5.35367 6.42016 5.57142C6.19095 5.78917 5.88007 5.9115 5.55592 5.9115C5.23176 5.9115 4.92089 5.78917 4.69167 5.57142C4.46246 5.35367 4.33369 5.05833 4.33369 4.75039V3.16705H2.11147C1.97926 3.16562 1.84809 3.1894 1.72572 3.23696C1.60335 3.28453 1.49227 3.35493 1.39903 3.44399C1.3058 3.53305 1.23232 3.63898 1.18292 3.75549C1.13353 3.872 1.10923 3.99674 1.11147 4.12233V15.934C1.10926 16.0574 1.13266 16.18 1.18033 16.2947C1.228 16.4095 1.299 16.5143 1.38928 16.603C1.47957 16.6917 1.58736 16.7626 1.70651 16.8117C1.82566 16.8609 1.95382 16.8872 2.08369 16.8893H17.917C18.0469 16.8872 18.1751 16.8609 18.2942 16.8117C18.4134 16.7626 18.5212 16.6917 18.6114 16.603C18.7017 16.5143 18.7727 16.4095 18.8204 16.2947C18.8681 16.18 18.8915 16.0574 18.8892 15.934V4.12233C18.8915 3.99896 18.8681 3.87638 18.8204 3.7616C18.7727 3.64681 18.7017 3.54208 18.6114 3.45337C18.5212 3.36466 18.4134 3.29371 18.2942 3.24459C18.1751 3.19546 18.0469 3.16911 17.917 3.16705ZM5.55592 13.7226H4.4448V12.6671H5.55592V13.7226ZM5.55592 11.0837H4.4448V10.0282H5.55592V11.0837ZM5.55592 8.44483H4.4448V7.38928H5.55592V8.44483ZM8.88925 13.7226H7.77814V12.6671H8.88925V13.7226ZM8.88925 11.0837H7.77814V10.0282H8.88925V11.0837ZM8.88925 8.44483H7.77814V7.38928H8.88925V8.44483ZM12.2226 13.7226H11.1115V12.6671H12.2226V13.7226ZM12.2226 11.0837H11.1115V10.0282H12.2226V11.0837ZM12.2226 8.44483H11.1115V7.38928H12.2226V8.44483ZM15.5559 13.7226H14.4448V12.6671H15.5559V13.7226ZM15.5559 11.0837H14.4448V10.0282H15.5559V11.0837ZM15.5559 8.44483H14.4448V7.38928H15.5559V8.44483Z" fill="#2A8A57"/>
<path d="M5.55556 5.27789C5.7029 5.27789 5.84421 5.22228 5.94839 5.1233C6.05258 5.02433 6.11111 4.89008 6.11111 4.75011V1.58344C6.11111 1.44347 6.05258 1.30922 5.94839 1.21025C5.84421 1.11127 5.7029 1.05566 5.55556 1.05566C5.40821 1.05566 5.26691 1.11127 5.16272 1.21025C5.05853 1.30922 5 1.44347 5 1.58344V4.75011C5 4.89008 5.05853 5.02433 5.16272 5.1233C5.26691 5.22228 5.40821 5.27789 5.55556 5.27789Z" fill="#2A8A57"/>
<path d="M14.4442 5.27789C14.5916 5.27789 14.7329 5.22228 14.8371 5.1233C14.9413 5.02433 14.9998 4.89008 14.9998 4.75011V1.58344C14.9998 1.44347 14.9413 1.30922 14.8371 1.21025C14.7329 1.11127 14.5916 1.05566 14.4442 1.05566C14.2969 1.05566 14.1556 1.11127 14.0514 1.21025C13.9472 1.30922 13.8887 1.44347 13.8887 1.58344V4.75011C13.8887 4.89008 13.9472 5.02433 14.0514 5.1233C14.1556 5.22228 14.2969 5.27789 14.4442 5.27789Z" fill="#2A8A57"/>
</g>
<defs>
<clipPath id="clip0_288_158676">
<rect width="20" height="19" fill="white"/>
</clipPath>
</defs>
</svg>
