<svg width="367" height="305" viewBox="0 0 367 305" fill="none" xmlns="http://www.w3.org/2000/svg">
<g clip-path="url(#clip0_243_14868)">
<path d="M144.277 376.762H219.707C220.326 376.762 220.848 374.956 220.848 372.856V121.256C220.848 119.143 220.326 117.35 219.707 117.35H144.277C143.933 117.35 143.68 117.756 143.491 118.4L143.48 118.531C143.48 118.531 143.457 118.543 143.445 118.662C143.216 119.507 143.113 120.387 143.141 121.268V372.868C143.141 374.956 143.652 376.762 144.277 376.762" fill="#DFAD92"/>
<path d="M178.396 376.762H220.194C220.55 376.762 220.831 374.956 220.831 372.856V121.256C220.831 119.143 220.544 117.35 220.194 117.35H178.402C178.213 117.35 178.069 117.756 177.978 118.4L177.966 118.531C177.966 118.531 177.955 118.543 177.943 118.662C177.814 119.523 177.758 120.396 177.777 121.268V372.868C177.777 374.956 178.052 376.762 178.396 376.762" fill="#A4806D"/>
<path d="M144.277 268.231H219.684C220.315 268.231 220.836 267.844 220.836 267.387V212.437C220.836 211.975 220.315 211.575 219.684 211.575H144.265C143.996 211.567 143.73 211.647 143.503 211.806L143.468 211.831L143.422 211.869C143.334 211.928 143.261 212.011 143.21 212.109C143.159 212.207 143.132 212.318 143.13 212.431V267.381C143.13 267.85 143.629 268.231 144.265 268.231" fill="#A4806D"/>
<path d="M122.658 47H57.8197C25.8964 47 0 85.575 0 133.144V238.156H64.8386V133.144C64.8386 85.575 90.7178 47 122.658 47Z" fill="#7C9C9F"/>
<path d="M273.661 47H122.658C90.7175 47 64.8555 85.575 64.8555 133.144V238.156H331.487V133.144C331.487 85.575 305.602 47 273.684 47" fill="#4E8DC7"/>
<path d="M133.32 47H57.8269C25.8979 47 0.0244141 85.575 0.0244141 133.144V238.156H191.163V133.144C191.163 85.575 165.278 47 133.36 47" fill="#65B599"/>
<path d="M366.444 154.988C366.467 155.025 366.605 155.038 366.605 155.075V230.469C366.614 230.736 366.558 231.001 366.444 231.238C366.444 231.238 366.421 231.238 366.421 231.25H366.398C366.324 231.406 366.186 231.544 366.025 231.544H328.574C328.242 231.544 327.984 231.031 327.984 230.4V189.356H214.236C212.992 189.356 211.914 189.113 211.914 188.844V155.006C211.914 154.713 212.992 154.481 214.236 154.481H366.025C366.197 154.481 366.352 154.669 366.444 154.925" fill="#FF8682"/>
<path d="M128.841 59H61.0755C32.4251 59 9.1748 95.1164 9.1748 139.668V238H180.747V139.668C180.747 95.1164 157.519 59 128.841 59" fill="#546869"/>
</g>
<defs>
<clipPath id="clip0_243_14868">
<rect width="367" height="305" fill="white"/>
</clipPath>
</defs>
</svg>
