<svg width="17" height="16" viewBox="0 0 17 16" fill="none" xmlns="http://www.w3.org/2000/svg">
<g clip-path="url(#clip0_270_71987)">
<path d="M0.726562 8.39844C0.575521 8.73177 0.5 9.07812 0.5 9.4375V10C0.5 10.1979 0.526042 10.388 0.578125 10.5703C0.630208 10.7526 0.708333 10.9219 0.8125 11.0781C0.916667 11.2344 1.04167 11.375 1.1875 11.5C1.33333 11.625 1.49479 11.7292 1.67188 11.8125C1.75 11.9948 1.85156 12.1589 1.97656 12.3047C2.10156 12.4505 2.24479 12.5729 2.40625 12.6719C2.56771 12.7708 2.73958 12.8516 2.92188 12.9141C3.10417 12.9766 3.29688 13.0052 3.5 13C3.85938 13 4.19271 12.9115 4.5 12.7344C4.80729 12.5573 5.05208 12.3125 5.23438 12H10.7656C10.9479 12.3125 11.1927 12.5573 11.5 12.7344C11.8073 12.9115 12.1406 13 12.5 13C12.8594 13 13.1927 12.9115 13.5 12.7344C13.8073 12.5573 14.0521 12.3125 14.2344 12H15.5C15.6406 12 15.7708 11.974 15.8906 11.9219C16.0104 11.8698 16.1146 11.7995 16.2031 11.7109C16.2917 11.6224 16.3646 11.5156 16.4219 11.3906C16.4792 11.2656 16.5052 11.1354 16.5 11V9C16.5 8.58854 16.4219 8.20052 16.2656 7.83594C16.1094 7.47135 15.8958 7.15365 15.625 6.88281C15.3542 6.61198 15.0365 6.39583 14.6719 6.23438C14.3073 6.07292 13.9167 5.99479 13.5 6H13.2109L10.6484 3.4375C10.5078 3.29688 10.3464 3.1901 10.1641 3.11719C9.98177 3.04427 9.78906 3.00521 9.58594 3H2.5V4H2.72656L0.726562 8.39844ZM12.5 12C12.3594 12 12.2292 11.974 12.1094 11.9219C11.9896 11.8698 11.8854 11.7995 11.7969 11.7109C11.7083 11.6224 11.6354 11.5156 11.5781 11.3906C11.5208 11.2656 11.4948 11.1354 11.5 11C11.5 10.8594 11.526 10.7292 11.5781 10.6094C11.6302 10.4896 11.7005 10.3854 11.7891 10.2969C11.8776 10.2083 11.9844 10.1354 12.1094 10.0781C12.2344 10.0208 12.3646 9.99479 12.5 10C12.6406 10 12.7708 10.026 12.8906 10.0781C13.0104 10.1302 13.1146 10.2005 13.2031 10.2891C13.2917 10.3776 13.3646 10.4844 13.4219 10.6094C13.4792 10.7344 13.5052 10.8646 13.5 11C13.5 11.1406 13.474 11.2708 13.4219 11.3906C13.3698 11.5104 13.2995 11.6146 13.2109 11.7031C13.1224 11.7917 13.0156 11.8646 12.8906 11.9219C12.7656 11.9792 12.6354 12.0052 12.5 12ZM7.5 4H9.58594C9.72135 4 9.83854 4.04948 9.9375 4.14844L11.7891 6H7.5V4ZM6.5 6H2.91406L3.6875 4.28906C3.72917 4.20052 3.79167 4.13021 3.875 4.07812C3.95833 4.02604 4.04948 4 4.14844 4H6.5V6ZM3.5 12C3.35938 12 3.22917 11.974 3.10938 11.9219C2.98958 11.8698 2.88542 11.7995 2.79688 11.7109C2.70833 11.6224 2.63542 11.5156 2.57812 11.3906C2.52083 11.2656 2.49479 11.1354 2.5 11C2.5 10.8594 2.52604 10.7292 2.57812 10.6094C2.63021 10.4896 2.70052 10.3854 2.78906 10.2969C2.8776 10.2083 2.98438 10.1354 3.10938 10.0781C3.23438 10.0208 3.36458 9.99479 3.5 10C3.64062 10 3.77083 10.026 3.89062 10.0781C4.01042 10.1302 4.11458 10.2005 4.20312 10.2891C4.29167 10.3776 4.36458 10.4844 4.42188 10.6094C4.47917 10.7344 4.50521 10.8646 4.5 11C4.5 11.1406 4.47396 11.2708 4.42188 11.3906C4.36979 11.5104 4.29948 11.6146 4.21094 11.7031C4.1224 11.7917 4.01562 11.8646 3.89062 11.9219C3.76562 11.9792 3.63542 12.0052 3.5 12Z" fill="black"/>
</g>
<defs>
<clipPath id="clip0_270_71987">
<rect width="16" height="16" fill="white" transform="translate(0.5)"/>
</clipPath>
</defs>
</svg>
