<svg width="34" height="34" viewBox="0 0 34 34" fill="none" xmlns="http://www.w3.org/2000/svg">
<g clip-path="url(#clip0_243_14882)">
<path d="M31.7277 17.0005C32.2164 16.7707 32.6484 16.4358 32.9928 16.0199C33.3372 15.6039 33.5856 15.117 33.7203 14.594C33.8981 13.9442 33.9003 13.2588 33.7267 12.6079C33.553 11.9569 33.2096 11.3638 32.7317 10.8889L29.4925 7.65558C29.2202 7.3829 28.8508 7.22952 28.4654 7.22915H28.2286C28.0376 7.22953 27.8484 7.19219 27.6718 7.11929C27.4952 7.04639 27.3348 6.93936 27.1996 6.80432C27.0645 6.66929 26.9574 6.50891 26.8844 6.33238C26.8113 6.15585 26.7739 5.96665 26.7741 5.77562V5.60524C26.7738 5.39151 26.7311 5.17996 26.6485 4.98284C26.5659 4.78572 26.445 4.60694 26.2928 4.45686L23.1086 1.26487C22.6334 0.788346 22.0407 0.445851 21.3906 0.272077C20.7405 0.0983032 20.056 0.0994226 19.4064 0.275322C18.8838 0.409884 18.3972 0.657924 17.9813 1.00181C17.5653 1.3457 17.2303 1.77698 16.9999 2.26502C16.7703 1.77604 16.4355 1.3438 16.0195 0.999185C15.6035 0.654569 15.1166 0.40608 14.5934 0.271471C13.9436 0.0937998 13.2584 0.0917888 12.6076 0.265644C11.9568 0.4395 11.3639 0.78299 10.8893 1.26102L7.7031 4.45012C7.5518 4.6006 7.43179 4.77956 7.35001 4.97666C7.26823 5.17376 7.22629 5.38511 7.22661 5.5985V5.76792C7.22661 5.95874 7.18896 6.14769 7.11582 6.32394C7.04268 6.50019 6.93548 6.66028 6.80037 6.79504C6.66526 6.92979 6.50489 7.03657 6.32844 7.10924C6.152 7.18192 5.96295 7.21906 5.77212 7.21856H5.53532C5.34447 7.21848 5.15549 7.25611 4.97923 7.32929C4.80297 7.40247 4.6429 7.50976 4.50823 7.64499L1.26427 10.8909C0.786318 11.3657 0.442967 11.9589 0.269282 12.6098C0.0955967 13.2607 0.0978034 13.9461 0.275676 14.5959C0.409872 15.1191 0.658097 15.6062 1.00258 16.0222C1.34706 16.4383 1.77927 16.773 2.26826 17.0024C1.7795 17.2322 1.34748 17.567 1.00304 17.983C0.658608 18.399 0.410243 18.8859 0.275676 19.4089C0.0992129 20.0588 0.0977116 20.7438 0.271325 21.3945C0.444938 22.0452 0.787493 22.6384 1.26427 23.114L4.45625 26.3031C4.60691 26.4544 4.78603 26.5744 4.98329 26.6562C5.18056 26.738 5.39205 26.7799 5.60559 26.7796H5.77116C5.96219 26.7792 6.15142 26.8165 6.328 26.8894C6.50457 26.9623 6.66502 27.0693 6.80015 27.2044C6.93527 27.3394 7.04241 27.4998 7.11543 27.6763C7.18845 27.8528 7.2259 28.042 7.22565 28.2331V28.4708C7.22624 28.8562 7.37959 29.2255 7.65208 29.4979L10.8912 32.74C11.3661 33.2168 11.959 33.5592 12.6094 33.7322C13.2597 33.9052 13.9443 33.9026 14.5934 33.7247C15.1163 33.5899 15.6031 33.3414 16.0191 32.997C16.435 32.6526 16.7699 32.2207 16.9999 31.7321C17.2299 32.2207 17.5648 32.6526 17.9807 32.997C18.3967 33.3414 18.8835 33.5899 19.4064 33.7247C20.0562 33.901 20.7411 33.9023 21.3916 33.7285C22.0421 33.5547 22.6351 33.212 23.1105 32.7352L26.3535 29.4902C26.4887 29.3554 26.596 29.1951 26.6692 29.0187C26.7424 28.8423 26.78 28.6532 26.7799 28.4622V28.2254C26.7794 28.0346 26.8166 27.8456 26.8892 27.6692C26.9619 27.4928 27.0687 27.3325 27.2035 27.1975C27.3383 27.0624 27.4984 26.9553 27.6746 26.8823C27.8508 26.8093 28.0398 26.7717 28.2306 26.7719H28.399C28.6125 26.7722 28.824 26.7303 29.0213 26.6485C29.2186 26.5667 29.3977 26.4467 29.5484 26.2954L32.7374 23.1092C33.2142 22.6336 33.5568 22.0404 33.7304 21.3897C33.904 20.739 33.9025 20.054 33.726 19.4041C33.5905 18.881 33.341 18.3944 32.9956 17.9789C32.6502 17.5634 32.2172 17.2293 31.7277 17.0005ZM17.3551 3.01488C17.4977 2.49091 17.7768 2.01417 18.1639 1.63332C18.551 1.25248 19.0323 0.981175 19.5585 0.847106C20.1078 0.697466 20.687 0.696419 21.2368 0.844071C21.7867 0.991723 22.2874 1.28277 22.6879 1.68746L25.6816 4.67825C25.8378 4.82772 25.9625 5.0069 26.0485 5.20527C26.1345 5.40364 26.1799 5.61719 26.1821 5.83338C26.1786 6.0955 26.2277 6.35567 26.3265 6.59849C26.4253 6.84131 26.5718 7.06186 26.7573 7.24709C26.9428 7.43233 27.1635 7.57848 27.4065 7.67692C27.6495 7.77535 27.9097 7.82407 28.1718 7.82018C28.3881 7.82328 28.6017 7.86939 28.8 7.95582C28.9983 8.04225 29.1774 8.16728 29.327 8.32362L32.3149 11.3135C32.7189 11.7145 33.0093 12.2156 33.1566 12.7655C33.3039 13.3154 33.3027 13.8945 33.1533 14.4438C33.0192 14.9699 32.7478 15.451 32.367 15.8379C31.9861 16.2249 31.5094 16.5038 30.9855 16.6463C30.9085 16.6674 30.8228 16.6886 30.7429 16.7059C30.5634 16.7088 30.3863 16.6639 30.2297 16.576C30.0731 16.4881 29.9426 16.3602 29.8516 16.2054C29.6829 15.9157 29.4631 15.659 29.2028 15.4478C28.2046 14.6152 26.7 14.2099 25.054 14.3071C25.1165 14.2629 25.1724 14.2186 25.2321 14.1743C26.5402 13.1231 27.1005 11.4444 26.65 9.89844L26.6384 9.84838C26.6155 9.77295 26.5636 9.70965 26.4942 9.67231C26.4248 9.63498 26.3434 9.62664 26.2678 9.64912C26.2305 9.66003 26.1957 9.67824 26.1655 9.70269C26.1353 9.72714 26.1103 9.75734 26.0918 9.79155C26.0734 9.82575 26.0619 9.86328 26.0581 9.90195C26.0543 9.94063 26.0581 9.97967 26.0695 10.0168L26.082 10.064C26.4671 11.3789 25.9858 12.8093 24.8586 13.7094C24.5676 13.9446 24.2531 14.1491 23.92 14.3197C23.6155 14.4598 23.3008 14.5766 22.9786 14.6691C21.5872 15.0488 20.2469 15.5953 18.9867 16.2968C18.9504 16.317 18.9104 16.3296 18.8691 16.3338C18.8278 16.338 18.786 16.3338 18.7464 16.3213C18.7068 16.3089 18.6701 16.2886 18.6386 16.2615C18.6071 16.2345 18.5814 16.2013 18.5632 16.164C18.5332 16.106 18.5226 16.0401 18.5328 15.9756C18.543 15.9112 18.5736 15.8518 18.6199 15.8059L18.7913 15.6336C19.355 15.0704 20.0393 14.6425 20.7925 14.3822C21.6269 14.0977 22.4196 13.7034 23.1499 13.2098C24.1982 12.4811 24.8769 11.4627 24.9654 10.4914C24.9712 10.4259 24.9741 10.3643 24.9741 10.2989C24.9785 10.0604 24.9246 9.82451 24.8172 9.61158C25.0097 9.44024 25.4717 9.08504 26.0166 9.11199C26.4517 9.12932 26.8665 9.39307 27.2516 9.89362C27.6366 10.3942 27.6568 10.965 27.6925 11.6436C27.7454 12.6409 27.808 13.7691 29.0401 14.773C29.558 15.1966 30.5052 15.5316 31.358 15.2649C31.6422 15.1776 31.9007 15.0219 32.1108 14.8115C32.3689 14.5468 32.5533 14.2193 32.646 13.8615C32.8741 13.0769 32.6113 12.2327 31.9597 11.6581C31.4062 11.1662 30.7247 11.0064 30.1798 11.2403C29.5464 11.5098 29.1912 12.046 29.2259 12.6736C29.2615 13.2569 29.6321 13.7845 30.1057 13.925C30.612 14.0761 30.9287 13.9317 31.1068 13.7864C31.2147 13.6962 31.3006 13.5828 31.3581 13.4545C31.4157 13.3263 31.4433 13.1866 31.4389 13.0461C31.4311 12.9705 31.3938 12.9009 31.335 12.8526C31.2763 12.8043 31.2008 12.7812 31.1251 12.7882C31.0477 12.7945 30.9758 12.8303 30.924 12.8882C30.8723 12.946 30.8447 13.0215 30.8469 13.0991C30.8434 13.1441 30.8306 13.1879 30.8092 13.2277C30.7878 13.2675 30.7584 13.3024 30.7227 13.3301C30.6014 13.4264 30.4118 13.3956 30.2751 13.3542C30.0441 13.2858 29.84 12.9691 29.8198 12.637C29.8073 12.4185 29.867 12.0152 30.4118 11.7813C30.74 11.6427 31.1934 11.7668 31.5669 12.1018C31.9404 12.4368 32.2715 13.025 32.0761 13.6978C31.925 14.2215 31.6228 14.5593 31.179 14.698C30.5658 14.8905 29.8256 14.6508 29.4107 14.3129C28.3836 13.4755 28.3335 12.5697 28.2825 11.6099C28.244 10.8995 28.2026 10.166 27.7204 9.53457C27.2227 8.88578 26.6567 8.54213 26.0349 8.51807C25.8203 8.51084 25.6062 8.54013 25.4015 8.6047C25.4665 8.39884 25.4945 8.18309 25.4843 7.96746C25.4612 7.34851 25.1175 6.78057 24.4687 6.2858C23.8344 5.79776 23.1028 5.75925 22.3905 5.72075C21.4279 5.66781 20.5249 5.61775 19.6865 4.5897C19.3525 4.17578 19.109 3.43458 19.3015 2.82236C19.441 2.37764 19.7828 2.07635 20.3026 1.92522C20.9764 1.7327 21.5703 2.06094 21.9015 2.43443C22.2326 2.80792 22.3577 3.26612 22.2181 3.58955C21.9842 4.13439 21.5819 4.1931 21.3624 4.18155C21.0342 4.16326 20.7146 3.95919 20.6462 3.72528C20.6048 3.58955 20.575 3.39992 20.6693 3.27863C20.6967 3.24329 20.7311 3.21401 20.7704 3.19264C20.8096 3.17127 20.8529 3.15827 20.8975 3.15446C20.9367 3.15916 20.9765 3.15597 21.0145 3.14508C21.0524 3.13418 21.0879 3.11581 21.1187 3.09103C21.1494 3.06625 21.175 3.03557 21.1937 3.00078C21.2125 2.966 21.2241 2.92782 21.2279 2.88849C21.2316 2.84915 21.2275 2.80946 21.2157 2.77174C21.204 2.73402 21.1848 2.69903 21.1593 2.66884C21.1338 2.63864 21.1025 2.61385 21.0673 2.59591C21.0321 2.57797 20.9937 2.56725 20.9543 2.56438C20.8145 2.56009 20.6755 2.58747 20.5478 2.64448C20.4202 2.70149 20.307 2.78666 20.2169 2.89359C20.0716 3.07071 19.9281 3.38837 20.0773 3.8947C20.2169 4.3683 20.7434 4.73794 21.3287 4.77355C21.9602 4.80917 22.4954 4.45397 22.7649 3.82347C22.9959 3.27863 22.8361 2.59422 22.3442 2.04073C21.8947 1.53151 21.0804 1.08391 20.1418 1.35343C19.2322 1.6143 18.877 2.20052 18.7383 2.64139C18.4717 3.49426 18.8057 4.44242 19.2293 4.9603C20.2333 6.19242 21.3643 6.25403 22.3625 6.30794C23.0364 6.34644 23.6207 6.37532 24.1097 6.74881C24.5987 7.1223 24.874 7.54873 24.8942 7.98671C24.9182 8.52577 24.5659 8.98781 24.3936 9.18033C24.1206 9.04884 23.8156 8.99839 23.5148 9.03498C22.5435 9.12065 21.5241 9.80506 20.7964 10.8495C20.3021 11.5796 19.9075 12.3724 19.623 13.2069C19.3635 13.9608 18.9355 14.6455 18.3716 15.2091L18.2003 15.3804C18.1543 15.4267 18.0948 15.457 18.0304 15.467C17.966 15.4771 17.9 15.4663 17.8422 15.4363C17.805 15.418 17.772 15.3923 17.745 15.3609C17.718 15.3295 17.6976 15.293 17.6851 15.2535C17.6726 15.214 17.6683 15.1724 17.6723 15.1312C17.6762 15.09 17.6885 15.05 17.7084 15.0137C18.4122 13.7521 18.96 12.4097 19.34 11.016C19.4311 10.6947 19.547 10.3809 19.6865 10.0775C19.8577 9.7454 20.0621 9.43158 20.2968 9.14087C21.1968 8.0127 22.6273 7.53621 23.9412 7.91837L23.9893 7.92992C24.0264 7.94183 24.0655 7.94612 24.1043 7.94252C24.1431 7.93893 24.1807 7.92753 24.215 7.909C24.2493 7.89048 24.2794 7.86522 24.3037 7.83473C24.3279 7.80425 24.3457 7.76917 24.3561 7.73162C24.3674 7.69433 24.3712 7.65519 24.3673 7.61642C24.3634 7.57766 24.352 7.54004 24.3335 7.50571C24.3151 7.47138 24.2901 7.44102 24.26 7.41636C24.2298 7.3917 24.1951 7.37322 24.1578 7.36198L24.1077 7.34947C22.5618 6.89994 20.883 7.45921 19.8319 8.76834C19.7876 8.82706 19.7423 8.88385 19.6981 8.94546C19.7943 7.29941 19.39 5.79487 18.5583 4.79762C18.3471 4.53703 18.09 4.31717 17.7998 4.14882C17.7251 4.10701 17.6564 4.0552 17.5957 3.99481C17.4041 3.79748 17.2979 3.53255 17.3002 3.25746C17.3137 3.17756 17.3349 3.09189 17.3551 3.01488ZM23.7805 17.0323C23.7418 17.1954 23.6449 17.3388 23.508 17.4356C23.123 17.761 22.3356 18.0391 21.2844 17.8495C20.4736 17.6876 19.6926 17.4012 18.9694 17.0005C19.6926 16.5994 20.4735 16.3127 21.2844 16.1505C21.5042 16.1104 21.7271 16.0895 21.9505 16.088C22.6677 16.088 23.2067 16.3132 23.508 16.5693C23.643 16.6679 23.7393 16.8106 23.7805 16.9726C23.7805 16.9841 23.7718 16.9928 23.7747 17.0053C23.7776 17.0178 23.7805 17.0207 23.7805 17.0323ZM23.8873 17.8919C23.8873 17.8919 23.8931 17.8919 23.8931 17.8851C24.3113 17.5167 24.8462 17.3081 25.4034 17.296H29.4309C29.303 17.6126 29.0934 17.8896 28.8235 18.0988C27.9976 18.7919 26.3333 19.3868 24.1337 18.9902C23.4869 18.8705 22.8493 18.7052 22.2259 18.4954C22.8833 18.4482 23.4666 18.2442 23.8873 17.8919ZM25.4034 16.704C24.847 16.6924 24.3128 16.4837 23.896 16.1149C23.896 16.1149 23.8873 16.1149 23.8873 16.1091C23.4666 15.7568 22.8775 15.5518 22.2172 15.5104C22.8431 15.2974 23.4836 15.1301 24.1337 15.0098C24.5889 14.9267 25.0504 14.8832 25.5131 14.8799C27.0292 14.8799 28.1815 15.3612 28.8235 15.9012C29.0934 16.1104 29.303 16.3874 29.4309 16.704H25.4034ZM22.1373 11.8621C22.0477 11.7821 21.9415 11.7228 21.8264 11.6886C21.7112 11.6543 21.59 11.6458 21.4712 11.6638C21.2635 11.6846 21.0621 11.7471 20.8792 11.8477C21.0021 11.6219 21.1364 11.4025 21.2815 11.1902C22.0247 10.1218 22.9488 9.68281 23.5648 9.62987C23.8536 9.60292 24.101 9.65971 24.2194 9.781C24.3378 9.90229 24.3965 10.1449 24.3705 10.4356C24.3166 11.0516 23.8786 11.9757 22.8092 12.7179C22.5973 12.8633 22.3782 12.9979 22.1527 13.1212C22.2543 12.9388 22.3166 12.7371 22.3356 12.5292C22.3403 12.4948 22.3422 12.46 22.3414 12.4253C22.3461 12.3226 22.3306 12.22 22.2956 12.1233C22.2605 12.0267 22.2067 11.9379 22.1373 11.8621ZM21.5241 12.2539C21.6493 12.2414 21.708 12.2712 21.7166 12.2828C21.7253 12.2943 21.758 12.3511 21.7465 12.4753C21.7234 12.7391 21.5309 13.1385 21.0563 13.4678C20.7346 13.685 20.3853 13.8582 20.0176 13.9827C20.1416 13.6146 20.3148 13.2648 20.5326 12.9431C20.8609 12.4686 21.2613 12.2761 21.5241 12.2539ZM18.0588 17.0005C18.0588 17.2099 17.9967 17.4146 17.8803 17.5888C17.764 17.7629 17.5986 17.8986 17.4051 17.9788C17.2116 18.0589 16.9987 18.0799 16.7933 18.039C16.5879 17.9982 16.3993 17.8973 16.2512 17.7492C16.1031 17.6011 16.0022 17.4125 15.9614 17.2071C15.9205 17.0017 15.9415 16.7888 16.0216 16.5953C16.1018 16.4018 16.2375 16.2364 16.4116 16.1201C16.5858 16.0037 16.7905 15.9416 16.9999 15.9416C17.2807 15.9416 17.55 16.0532 17.7486 16.2518C17.9472 16.4503 18.0588 16.7197 18.0588 17.0005ZM17.2954 4.56948C17.6117 4.69704 17.8884 4.90632 18.0973 5.17592C18.7903 6.00279 19.3852 7.66713 18.9886 9.86667C18.8706 10.517 18.7032 11.1573 18.4881 11.7822C18.4467 11.1219 18.2426 10.5309 17.8903 10.1121C17.8903 10.1121 17.8903 10.1064 17.8845 10.1035C17.5152 9.68701 17.3063 9.15257 17.2954 8.59604V4.56948ZM16.9999 10.2248C17.0114 10.2248 17.0211 10.219 17.0326 10.219C17.1943 10.2603 17.3365 10.3567 17.435 10.4914C17.7613 10.8764 18.0395 11.6638 17.8499 12.715C17.6891 13.5266 17.4023 14.3081 16.9999 15.031C16.5992 14.3073 16.3125 13.5261 16.1499 12.715C15.9574 11.6638 16.2385 10.8793 16.5648 10.4914C16.6618 10.3552 16.8047 10.2585 16.9672 10.219C16.9787 10.219 16.9883 10.2276 16.9999 10.2248ZM15.5108 11.7822C15.2977 11.1567 15.1304 10.5165 15.0102 9.86667C14.6136 7.66713 15.2085 6.00279 15.9016 5.17592C16.1104 4.90632 16.3871 4.69704 16.7034 4.56948V8.59604C16.6925 9.15257 16.4836 9.68701 16.1143 10.1035C16.1143 10.1035 16.1085 10.1092 16.1085 10.1121C15.7562 10.5328 15.556 11.1209 15.5108 11.7822ZM0.749275 13.8162C0.715331 13.3562 0.781385 12.8944 0.942898 12.4623C1.10441 12.0303 1.35755 11.6384 1.68492 11.3135L4.67861 8.31977C4.82796 8.16321 5.00706 8.03804 5.20541 7.95159C5.40377 7.86515 5.61738 7.81916 5.83373 7.81633C6.0958 7.82011 6.35595 7.77118 6.59874 7.67246C6.84152 7.57373 7.06199 7.42722 7.24705 7.24162C7.43211 7.05603 7.57798 6.83513 7.676 6.59206C7.77402 6.34898 7.82219 6.08869 7.81765 5.82664C7.82037 5.61027 7.86631 5.39662 7.95276 5.19826C8.03922 4.99989 8.16445 4.8208 8.32109 4.67152L11.3119 1.68746C11.7125 1.28311 12.2134 0.99242 12.7632 0.845109C13.3131 0.697799 13.8922 0.699152 14.4413 0.849031C14.9675 0.9831 15.4488 1.2544 15.8359 1.63525C16.223 2.01609 16.5021 2.49283 16.6447 3.01681C16.6649 3.09381 16.6861 3.17949 16.7034 3.25938C16.7062 3.43884 16.6615 3.61584 16.5738 3.7724C16.486 3.92897 16.3584 4.0595 16.2038 4.15075C15.9136 4.31909 15.6566 4.53896 15.4453 4.79954C14.6136 5.7968 14.2074 7.3023 14.3056 8.94739C14.2574 8.88867 14.2161 8.82899 14.1718 8.77027C13.1206 7.46113 11.4418 6.90186 9.8959 7.35139L9.84585 7.36391C9.80855 7.37514 9.77383 7.39362 9.74367 7.41828C9.71352 7.44294 9.68851 7.47331 9.6701 7.50763C9.65168 7.54196 9.64021 7.57958 9.63635 7.61835C9.63248 7.65711 9.63628 7.69626 9.64755 7.73355C9.65789 7.7711 9.67572 7.80617 9.69996 7.83666C9.72421 7.86714 9.75437 7.8924 9.78863 7.91093C9.82289 7.92945 9.86055 7.94086 9.89933 7.94445C9.93811 7.94804 9.97722 7.94376 10.0143 7.93184L10.0624 7.92029C11.3764 7.53525 12.8068 8.01655 13.7068 9.14279C13.9422 9.43402 14.1467 9.74887 14.3171 10.0823C14.4545 10.3857 14.5703 10.6983 14.6637 11.0179C15.0451 12.4119 15.5946 13.7543 16.3001 15.0156C16.3199 15.052 16.3322 15.0919 16.3362 15.1332C16.3402 15.1744 16.3358 15.216 16.3233 15.2554C16.3108 15.2949 16.2905 15.3315 16.2635 15.3629C16.2365 15.3943 16.2034 15.4199 16.1663 15.4382C16.1084 15.4682 16.0425 15.479 15.9781 15.469C15.9137 15.4589 15.8542 15.4286 15.8082 15.3824L15.6397 15.211C15.075 14.6481 14.6469 13.9631 14.3884 13.2088C14.1045 12.374 13.7098 11.5812 13.2149 10.8514C12.4872 9.8041 11.4707 9.12547 10.4966 9.03691C10.1957 9.00032 9.89074 9.05076 9.61771 9.18226C9.44541 8.98974 9.0931 8.52769 9.12005 7.98575C9.13737 7.55065 9.40401 7.13577 9.90168 6.75073C10.3993 6.36569 10.974 6.34548 11.6517 6.30986C12.5546 6.25884 13.5701 6.2059 14.5 5.27603C14.6 5.17697 14.6942 5.07219 14.7821 4.96222C15.2056 4.44434 15.5396 3.49618 15.273 2.64332C15.1344 2.19956 14.7792 1.61622 13.8695 1.35536C13.085 1.12722 12.2408 1.39098 11.6671 2.04266C11.1752 2.59615 11.0154 3.27767 11.2493 3.8225C11.5188 4.45589 12.0541 4.81109 12.6826 4.77548C13.266 4.73986 13.7925 4.37022 13.934 3.89662C14.0851 3.3903 13.9398 3.07264 13.7944 2.89552C13.705 2.78756 13.5921 2.7015 13.4643 2.64394C13.3365 2.58637 13.1972 2.55883 13.0571 2.56342C12.9816 2.57145 12.9123 2.60888 12.8642 2.6676C12.8161 2.72633 12.7931 2.80164 12.8001 2.87723C12.8069 2.95449 12.8428 3.02629 12.9005 3.07811C12.9582 3.12993 13.0334 3.1579 13.111 3.15638C13.1562 3.15913 13.2003 3.17165 13.2401 3.19309C13.28 3.21453 13.3148 3.24437 13.342 3.28056C13.4383 3.40185 13.4065 3.59148 13.368 3.72721C13.2968 3.96112 12.9743 4.16519 12.6489 4.18348C12.4295 4.19503 12.0271 4.13631 11.7932 3.59148C11.6536 3.26227 11.7778 2.80985 12.1128 2.43636C12.4478 2.06287 13.0369 1.73174 13.7088 1.92714C14.2324 2.07827 14.5751 2.37957 14.7099 2.82429C14.9024 3.43746 14.6627 4.1777 14.3248 4.59162C13.4893 5.61968 12.5806 5.66973 11.6209 5.71979C10.9105 5.75829 10.177 5.79968 9.54552 6.28291C8.89672 6.78057 8.55596 7.34177 8.52997 7.96746C8.52236 8.18224 8.55133 8.39675 8.61564 8.60181C8.41005 8.53702 8.19472 8.50868 7.97937 8.51807C7.36041 8.54213 6.79152 8.88578 6.29674 9.53457C5.81544 10.1651 5.77309 10.8995 5.73458 11.6099C5.68068 12.5725 5.62773 13.4755 4.60353 14.3129C4.18865 14.6479 3.44841 14.8905 2.83523 14.698C2.39147 14.5593 2.08921 14.2215 1.93809 13.6978C1.74557 13.024 2.07766 12.4301 2.4473 12.098C2.81694 11.7659 3.27995 11.6427 3.60242 11.7813C4.14725 12.0152 4.20694 12.4185 4.19442 12.637C4.1771 12.9662 3.97302 13.2858 3.73911 13.3542C3.60242 13.3956 3.41279 13.4254 3.2915 13.3301C3.25646 13.3024 3.22738 13.268 3.20604 13.2288C3.1847 13.1895 3.17153 13.1464 3.16733 13.102C3.17473 13.0238 3.1508 12.946 3.10079 12.8855C3.05079 12.825 2.97881 12.7869 2.90069 12.7795C2.82257 12.7721 2.7447 12.796 2.68423 12.846C2.62375 12.896 2.58562 12.968 2.57822 13.0461C2.57332 13.1855 2.60034 13.3241 2.65724 13.4514C2.71413 13.5787 2.79938 13.6913 2.90646 13.7806C3.08454 13.9288 3.40124 14.0694 3.90757 13.9221C4.38117 13.7835 4.75177 13.256 4.78738 12.6707C4.82204 12.0431 4.46684 11.5041 3.83633 11.2345C3.2915 11.0035 2.60709 11.1633 2.0536 11.6523C1.54438 12.1086 1.09774 12.92 1.36726 13.8586C1.62717 14.7673 2.21339 15.1225 2.65522 15.262C3.50809 15.5287 4.45529 15.1937 4.97317 14.7702C5.08317 14.6816 5.18795 14.5868 5.28697 14.4862C6.21685 13.5592 6.27364 12.5437 6.32081 11.6379C6.35931 10.964 6.38915 10.3788 6.76168 9.89073C7.1342 9.4027 7.5616 9.12643 7.99669 9.10622C8.53864 9.08215 9.00068 9.43157 9.19321 9.6058C9.06214 9.87931 9.01172 10.1845 9.04785 10.4856C9.13641 11.4598 9.81793 12.4753 10.8633 13.204C11.5936 13.6977 12.3864 14.0919 13.2207 14.3765C13.9739 14.6367 14.6582 15.0646 15.222 15.6278L15.3933 15.8001C15.4397 15.846 15.4702 15.9055 15.4804 15.9699C15.4906 16.0343 15.48 16.1003 15.4501 16.1582C15.4318 16.1955 15.4062 16.2287 15.3747 16.2557C15.3432 16.2828 15.3065 16.3031 15.2669 16.3156C15.2272 16.328 15.1855 16.3322 15.1442 16.328C15.1029 16.3238 15.0629 16.3112 15.0266 16.2911C13.7648 15.5881 12.4224 15.0405 11.0289 14.6604C10.7093 14.567 10.3966 14.4512 10.0932 14.3139C9.7602 14.1433 9.44568 13.9388 9.1547 13.7036C8.02653 12.8036 7.55005 11.3731 7.93124 10.0582L7.94375 10.0111C7.95512 9.9739 7.95901 9.93485 7.95518 9.89618C7.95135 9.8575 7.93987 9.81998 7.92143 9.78577C7.90298 9.75157 7.87793 9.72136 7.84772 9.69692C7.81751 9.67247 7.78275 9.65426 7.74545 9.64335C7.66989 9.62087 7.5885 9.6292 7.51906 9.66654C7.44962 9.70387 7.39778 9.76717 7.37485 9.8426L7.3633 9.89266C6.91281 11.4386 7.47304 13.1174 8.78121 14.1685C8.84089 14.2128 8.89961 14.2542 8.95929 14.3014C7.37485 14.2051 5.92421 14.5834 4.92889 15.3554L4.93755 15.341C4.91798 15.3597 4.89742 15.3774 4.87594 15.3939C4.85477 15.4122 4.83166 15.4266 4.81049 15.442C4.73637 15.5037 4.66513 15.5691 4.60064 15.6346C3.80649 16.2323 3.01042 16.1698 2.37992 15.9233C1.05731 15.2649 0.802218 14.2013 0.749275 13.8162ZM11.6642 12.5283C11.6846 12.7359 11.7468 12.9373 11.8471 13.1203C11.6216 12.997 11.4025 12.8624 11.1906 12.7169C10.124 11.9738 9.68317 11.0507 9.62926 10.4346C9.62359 10.3893 9.6207 10.3436 9.6206 10.2979C9.6206 10.0698 9.67739 9.88015 9.78039 9.78004C9.88339 9.67993 10.0692 9.62313 10.2963 9.62313C10.3406 9.62313 10.3878 9.62313 10.435 9.62891C11.051 9.68185 11.9751 10.1208 12.7182 11.1893C12.8634 11.4015 12.9977 11.6209 13.1206 11.8467C12.9382 11.7449 12.7366 11.6823 12.5286 11.6629C12.4095 11.6376 12.286 11.6425 12.1693 11.6771C12.0526 11.7117 11.9464 11.7749 11.8604 11.861C11.7743 11.947 11.7111 12.0532 11.6765 12.1699C11.6419 12.2867 11.637 12.4101 11.6623 12.5292L11.6642 12.5283ZM12.2832 12.2818C12.2918 12.2703 12.3505 12.2404 12.4757 12.253C12.7385 12.2761 13.1389 12.4686 13.4672 12.9422C13.6849 13.2639 13.8582 13.6136 13.9821 13.9818C13.6145 13.8572 13.2652 13.684 12.9435 13.4668C12.4689 13.1376 12.2764 12.7381 12.2533 12.4744C12.252 12.4577 12.252 12.441 12.2533 12.4243C12.2465 12.3751 12.2571 12.3251 12.2832 12.2828V12.2818ZM8.59639 17.2951C9.1528 17.3066 9.68701 17.5154 10.1038 17.8842C10.1038 17.8842 10.1125 17.8842 10.1125 17.8909C10.5331 18.2432 11.1223 18.4473 11.7826 18.4887C11.1572 18.7034 10.5166 18.8707 9.86606 18.9892C7.66652 19.3858 6.00218 18.7909 5.17627 18.0979C4.90639 17.8887 4.6968 17.6117 4.56887 17.2951H8.59639ZM4.56887 16.704C4.6968 16.3874 4.90639 16.1104 5.17627 15.9012C6.00218 15.2091 7.66652 14.6132 9.86606 15.0098C10.5162 15.1301 11.1567 15.2974 11.7826 15.5104C11.1223 15.5518 10.5312 15.7568 10.1125 16.1091C10.111 16.1091 10.1095 16.1097 10.1084 16.1108C10.1073 16.1119 10.1067 16.1134 10.1067 16.1149C9.68853 16.4833 9.15356 16.692 8.59639 16.704H4.56887ZM10.4918 17.4356C10.3566 17.3371 10.2603 17.1944 10.2193 17.0323C10.2193 17.0207 10.228 17.012 10.2251 17.0005C10.2222 16.9889 10.2193 16.9793 10.2193 16.9678C10.2582 16.8047 10.355 16.6614 10.4918 16.5644C10.8768 16.2391 11.6642 15.9609 12.7154 16.1505C13.5246 16.3131 14.3039 16.5999 15.0256 17.0005C14.3047 17.4026 13.5251 17.6891 12.7154 17.8495C11.6642 18.0391 10.8797 17.7629 10.4918 17.4356ZM16.6447 30.9851C16.5022 31.5092 16.2231 31.986 15.836 32.3668C15.4488 32.7477 14.9676 33.0189 14.4413 33.1529C13.8922 33.3028 13.3132 33.3043 12.7634 33.1571C12.2136 33.01 11.7127 32.7196 11.3119 32.3155L8.32109 29.3247C8.165 29.1749 8.04014 28.9958 7.95373 28.7975C7.86732 28.5992 7.82107 28.3858 7.81765 28.1695C7.82087 27.908 7.77178 27.6484 7.67326 27.4061C7.57473 27.1638 7.42876 26.9436 7.24393 26.7585C7.0591 26.5734 6.83914 26.4271 6.59696 26.3282C6.35479 26.2294 6.0953 26.1799 5.83373 26.1827C5.61756 26.1804 5.40402 26.135 5.20566 26.049C5.0073 25.9631 4.82811 25.8383 4.67861 25.6822L1.68492 22.6885C1.28083 22.2875 0.990327 21.7864 0.843038 21.2365C0.695748 20.6866 0.696942 20.1074 0.846498 19.5581C0.980626 19.032 1.25197 18.551 1.63281 18.164C2.01366 17.7771 2.49037 17.4982 3.01427 17.3557C3.09128 17.3345 3.17695 17.3143 3.25685 17.296C3.53212 17.2937 3.79715 17.4003 3.9942 17.5925C4.05503 17.6528 4.10689 17.7215 4.14822 17.7966C4.31688 18.0865 4.53669 18.3435 4.79701 18.5551C5.79523 19.3868 7.29977 19.792 8.94582 19.6948C8.88325 19.7391 8.82742 19.7834 8.76774 19.8277C7.45956 20.8788 6.89933 22.5586 7.34983 24.1035L7.36138 24.1545C7.38428 24.2299 7.43617 24.2932 7.50566 24.3304C7.57514 24.3675 7.65654 24.3756 7.73198 24.3528C7.76964 24.3425 7.80482 24.3247 7.83538 24.3003C7.86594 24.276 7.89126 24.2458 7.9098 24.2114C7.92833 24.177 7.9397 24.1393 7.94322 24.1004C7.94674 24.0615 7.94234 24.0223 7.93027 23.9851L7.91776 23.938C7.53272 22.623 8.01402 21.1926 9.14123 20.2926C9.43123 20.0577 9.74478 19.8535 10.0769 19.6833C10.38 19.5429 10.6938 19.427 11.0154 19.3367C12.4092 18.9549 13.7516 18.4054 15.0131 17.7003C15.0494 17.6803 15.0894 17.6678 15.1307 17.6637C15.172 17.6595 15.2137 17.6638 15.2532 17.6762C15.2928 17.6886 15.3295 17.7089 15.361 17.7359C15.3925 17.7629 15.4182 17.796 15.4366 17.8331C15.4665 17.8911 15.4772 17.9571 15.467 18.0215C15.4567 18.0859 15.4262 18.1454 15.3798 18.1912L15.2085 18.3607C14.6454 18.9247 13.9609 19.3527 13.2072 19.612C12.3724 19.8953 11.5795 20.2897 10.8498 20.7845C9.80157 21.5132 9.12294 22.5287 9.03438 23.5C8.9979 23.802 9.04833 24.1083 9.17973 24.3827C8.98721 24.554 8.52516 24.9063 7.98322 24.8803C7.54812 24.8621 7.13324 24.5983 6.7482 24.0987C6.36316 23.5991 6.34295 23.0264 6.30733 22.3477C6.25439 21.3505 6.19182 20.2223 4.95969 19.2183C4.44181 18.7948 3.49461 18.4598 2.64175 18.7264C2.19703 18.866 1.61369 19.2212 1.35379 20.1299C1.12565 20.9154 1.38844 21.7586 2.04012 22.3333C2.59362 22.8252 3.27514 22.985 3.81997 22.7511C4.45336 22.4815 4.80856 21.9454 4.77391 21.3178C4.73829 20.7344 4.36769 20.2069 3.89409 20.0664C3.38776 19.9153 3.07107 20.0606 2.89299 20.205C2.78629 20.2954 2.70118 20.4086 2.64388 20.5362C2.58658 20.6637 2.55856 20.8025 2.56185 20.9423C2.56964 21.018 2.60697 21.0875 2.66572 21.1358C2.72448 21.1841 2.79992 21.2073 2.87566 21.2003C2.95284 21.1935 3.02453 21.1576 3.07619 21.0998C3.12785 21.0421 3.15562 20.9669 3.15385 20.8894C3.15703 20.8443 3.16974 20.8004 3.19115 20.7606C3.21255 20.7207 3.24216 20.6859 3.27803 20.6584C3.39931 20.5621 3.58895 20.5929 3.72564 20.6343C3.95955 20.7027 4.16073 21.0194 4.18095 21.3515C4.19346 21.5709 4.13378 21.9733 3.58895 22.2072C3.2607 22.3458 2.80731 22.2216 2.43383 21.8876C2.06034 21.5536 1.7292 20.9635 1.92461 20.2916C2.07574 19.767 2.37799 19.4253 2.82175 19.2905C3.43493 19.098 4.17517 19.3377 4.59005 19.6756C5.61715 20.513 5.6672 21.4198 5.71822 22.3785C5.75672 23.0899 5.79811 23.8224 6.28038 24.4549C6.77804 25.1027 7.34405 25.4435 7.96589 25.4704C8.18033 25.4775 8.39443 25.4485 8.59928 25.3847C8.53429 25.5903 8.50626 25.8057 8.5165 26.021C8.5396 26.64 8.88325 27.2089 9.53204 27.7027C10.1625 28.1888 10.897 28.2273 11.6074 28.2658C12.57 28.3187 13.4729 28.3688 14.3114 29.3969C14.6454 29.8117 14.8889 30.552 14.6964 31.1642C14.5568 31.6089 14.2151 31.9112 13.6953 32.0613C13.0215 32.2539 12.4275 31.9256 12.0964 31.5521C11.7653 31.1786 11.6401 30.7204 11.7797 30.397C12.0136 29.8522 12.416 29.7925 12.6355 29.804C12.9637 29.8223 13.2833 30.0264 13.3516 30.2603C13.393 30.397 13.4229 30.5857 13.3285 30.7079C13.3005 30.7426 13.266 30.7714 13.2268 30.7927C13.1877 30.814 13.1447 30.8274 13.1004 30.8321C13.0223 30.8246 12.9444 30.8484 12.8838 30.8983C12.8232 30.9482 12.785 31.0201 12.7774 31.0983C12.7699 31.1764 12.7937 31.2543 12.8436 31.3149C12.8936 31.3754 12.9655 31.4137 13.0436 31.4212C13.1834 31.4258 13.3225 31.3985 13.4502 31.3415C13.5779 31.2845 13.691 31.1992 13.781 31.092C13.9263 30.9149 14.0697 30.5982 13.9205 30.0919C13.781 29.6106 13.2544 29.2477 12.6692 29.212C12.0377 29.1764 11.5025 29.5316 11.233 30.1631C11.0019 30.7079 11.1617 31.3914 11.6536 31.9449C12.2312 32.5965 13.0715 32.8574 13.856 32.6322C14.2136 32.5375 14.541 32.3529 14.8071 32.096C15.0154 31.8849 15.1705 31.6272 15.2595 31.3442C15.5262 30.4913 15.1921 29.5441 14.7686 29.0253C13.7646 27.7941 12.6335 27.7316 11.6353 27.6777C10.9615 27.6392 10.3772 27.6093 9.8882 27.2358C9.3992 26.8623 9.1239 26.4369 9.10368 26.0008C9.07962 25.4598 9.43193 24.9978 9.60424 24.8053C9.87888 24.9348 10.1843 24.9849 10.486 24.9496C11.4572 24.8611 12.4737 24.1796 13.2015 23.1351C13.6963 22.4054 14.091 21.6125 14.3749 20.7777C14.6346 20.0243 15.0625 19.3399 15.6263 18.7765L15.7947 18.6042C15.8407 18.558 15.9002 18.5276 15.9646 18.5176C16.029 18.5075 16.095 18.5183 16.1528 18.5484C16.19 18.5668 16.2231 18.5925 16.2501 18.624C16.277 18.6555 16.2974 18.6921 16.3099 18.7316C16.3224 18.7712 16.3268 18.8129 16.3228 18.8541C16.3188 18.8954 16.3065 18.9355 16.2866 18.9719C15.5847 20.2316 15.0378 21.5717 14.6579 22.9628C14.5652 23.2853 14.4484 23.6003 14.3085 23.9052C14.1378 24.2382 13.9333 24.5527 13.6982 24.8438C12.7981 25.9719 11.3677 26.4484 10.0538 26.0663L10.0056 26.0547C9.96856 26.0428 9.92945 26.0385 9.89067 26.0421C9.85188 26.0457 9.81423 26.0571 9.77996 26.0756C9.7457 26.0942 9.71554 26.1194 9.6913 26.1499C9.66705 26.1804 9.64923 26.2155 9.63889 26.253C9.61637 26.3284 9.62458 26.4097 9.66172 26.4791C9.69886 26.5486 9.76193 26.6005 9.83718 26.6236L9.88724 26.6352C11.4332 27.0847 13.112 26.5254 14.1631 25.2163C14.2074 25.1576 14.2526 25.1008 14.2969 25.0392C14.2007 26.6852 14.6049 28.1898 15.4366 29.188C15.6482 29.448 15.9052 29.6675 16.1952 29.8358C16.3497 29.9271 16.4773 30.0576 16.5651 30.2142C16.6528 30.3707 16.6976 30.5477 16.6947 30.7272C16.6861 30.8225 16.6649 30.9081 16.6447 30.9851ZM11.8625 22.1379C11.9518 22.2183 12.058 22.2779 12.1732 22.3122C12.2884 22.3465 12.4098 22.3547 12.5286 22.3362C12.7372 22.3151 12.9394 22.2526 13.1235 22.1523C12.9998 22.3783 12.8645 22.5977 12.7182 22.8098C11.9751 23.8754 11.051 24.3172 10.435 24.3702C10.1462 24.3971 9.89879 24.3403 9.78039 24.219C9.67739 24.1228 9.6206 23.9303 9.6206 23.7012C9.62073 23.6555 9.62362 23.6098 9.62926 23.5645C9.68317 22.9494 10.124 22.0243 11.1906 21.2821C11.4062 21.131 11.6257 21.0011 11.8471 20.8759C11.7472 21.0604 11.685 21.263 11.6642 21.4718C11.6464 21.5906 11.6549 21.7118 11.6892 21.8269C11.7235 21.942 11.7826 22.0482 11.8625 22.1379ZM12.4757 21.7471C12.41 21.7602 12.3418 21.7497 12.2832 21.7172C12.2735 21.7115 12.2504 21.6672 12.2504 21.5748C12.2491 21.5581 12.2491 21.5414 12.2504 21.5247C12.2735 21.261 12.466 20.8615 12.9406 20.5332C13.2621 20.3154 13.6114 20.1419 13.9793 20.0173C13.8553 20.3855 13.6821 20.7352 13.4643 21.0569C13.1389 21.5305 12.7385 21.723 12.4757 21.7471ZM16.7034 29.4306C16.387 29.3033 16.1102 29.094 15.9016 28.8241C15.3635 28.1811 14.8822 27.0298 14.8822 25.5137C14.8859 25.0507 14.9297 24.5888 15.0131 24.1334C15.1333 23.4836 15.3006 22.8433 15.5136 22.2178C15.555 22.8781 15.7591 23.4692 16.1114 23.8879C16.1114 23.8879 16.1114 23.8937 16.1172 23.8937C16.4861 24.3115 16.6949 24.8467 16.7063 25.404L16.7034 29.4306ZM16.9999 23.7753C16.9883 23.7753 16.9787 23.7811 16.9672 23.7811C16.8053 23.7401 16.663 23.6437 16.5648 23.5086C16.3126 23.2064 16.0883 22.6673 16.0883 21.9512C16.0895 21.7277 16.1101 21.5049 16.1499 21.285C16.3125 20.4739 16.5992 19.6927 16.9999 18.969C17.4006 19.6927 17.6873 20.4739 17.8499 21.285C18.0424 22.3362 17.7613 23.1207 17.435 23.5086C17.3383 23.6452 17.1953 23.7419 17.0326 23.7811C17.0211 23.7811 17.0114 23.7724 16.9999 23.7753ZM18.4948 22.2265C18.7049 22.8495 18.8703 23.4868 18.9896 24.1334C19.3862 26.3339 18.7913 27.9982 18.0982 28.8241C17.8896 29.094 17.6128 29.3033 17.2964 29.4306V25.404C17.3078 24.8467 17.5165 24.3115 17.8855 23.8937C17.887 23.8937 17.8885 23.8931 17.8896 23.892C17.8907 23.8909 17.8913 23.8894 17.8913 23.8879C18.2407 23.4672 18.4438 22.8839 18.4948 22.2265ZM32.3149 22.6885L29.3212 25.6793C29.1718 25.8359 28.9927 25.961 28.7944 26.0475C28.596 26.1339 28.3824 26.1799 28.1661 26.1827C27.9041 26.1788 27.644 26.2276 27.4012 26.326C27.1583 26.4245 26.9378 26.5707 26.7525 26.756C26.5672 26.9413 26.421 27.1618 26.3226 27.4046C26.2241 27.6475 26.1754 27.9076 26.1792 28.1695C26.1763 28.3859 26.1303 28.5995 26.0438 28.7978C25.9574 28.9961 25.8323 29.1752 25.6758 29.3247L25.6344 29.3689L22.6821 32.3184C22.2813 32.7224 21.7804 33.0129 21.2306 33.16C20.6808 33.3072 20.1018 33.3057 19.5527 33.1558C19.0264 33.0218 18.5452 32.7506 18.158 32.3697C17.7709 31.9888 17.4919 31.5121 17.3493 30.988C17.3291 30.911 17.3079 30.8254 17.2906 30.7455C17.2882 30.4704 17.3944 30.2054 17.5861 30.0081C17.6471 29.948 17.7157 29.8962 17.7902 29.8541C18.0801 29.6858 18.3371 29.4663 18.5487 29.2063C19.3005 28.3053 19.7038 26.9923 19.7038 25.5339C19.7038 25.377 19.6981 25.2173 19.6884 25.0575C19.7366 25.1162 19.778 25.1759 19.8222 25.2346C20.8734 26.5437 22.5522 27.103 24.0981 26.6534L24.1482 26.6419C24.2098 26.6226 24.2636 26.5842 24.302 26.5323C24.3404 26.4804 24.3614 26.4177 24.3619 26.3531C24.361 26.324 24.3558 26.2951 24.3465 26.2674C24.3361 26.2299 24.3183 26.1948 24.294 26.1643C24.2698 26.1339 24.2396 26.1086 24.2054 26.0901C24.1711 26.0715 24.1335 26.0601 24.0947 26.0565C24.0559 26.053 24.0168 26.0572 23.9797 26.0692L23.9316 26.0807C22.6176 26.4657 21.1872 25.9844 20.2872 24.8582C20.0552 24.568 19.8537 24.2548 19.6855 23.9235C19.5435 23.6175 19.4267 23.3004 19.3361 22.9754C18.9553 21.5841 18.4075 20.244 17.7045 18.9844C17.6847 18.948 17.6724 18.9079 17.6684 18.8667C17.6644 18.8254 17.6687 18.7837 17.6812 18.7442C17.6937 18.7046 17.7141 18.668 17.7411 18.6365C17.7681 18.605 17.8011 18.5793 17.8383 18.5609C17.8962 18.5308 17.9621 18.5201 18.0265 18.5301C18.0909 18.5401 18.1504 18.5705 18.1964 18.6167L18.3677 18.789C18.9317 19.3522 19.3596 20.0367 19.6191 20.7903C19.9042 21.6245 20.2988 22.4172 20.7925 23.1477C21.5203 24.1959 22.5368 24.8736 23.5109 24.9622C23.8116 24.9971 24.1161 24.9471 24.3898 24.8178C24.5621 25.0103 24.9144 25.4723 24.8874 26.0133C24.8701 26.4494 24.6064 26.8633 24.1058 27.2483C23.6053 27.6334 23.0335 27.6546 22.3558 27.6902C21.3576 27.7431 20.2294 27.8086 19.2254 29.0378C18.8019 29.5567 18.4679 30.5039 18.7345 31.3567C18.8731 31.8005 19.2283 32.3838 20.138 32.6447C20.5079 32.7465 20.8985 32.7466 21.2685 32.6449C21.6385 32.5433 21.9743 32.3437 22.2403 32.0671C22.2759 32.0315 22.3086 31.9959 22.3366 31.9574C22.8284 31.4039 22.9882 30.7233 22.7543 30.1785C22.4848 29.5441 21.9496 29.1889 21.321 29.2246C20.7377 29.2602 20.2111 29.6298 20.0696 30.1044C19.9185 30.6107 20.0639 30.9274 20.2092 31.1045C20.3001 31.2129 20.4148 31.2989 20.5444 31.3556C20.6739 31.4124 20.8149 31.4385 20.9562 31.4318C21.0317 31.4238 21.101 31.3863 21.1491 31.3276C21.1972 31.2689 21.2202 31.1936 21.2132 31.118C21.2068 31.0409 21.1709 30.9692 21.113 30.9179C21.0551 30.8667 20.9796 30.8397 20.9023 30.8427C20.8573 30.8378 20.8137 30.824 20.7741 30.8022C20.7344 30.7804 20.6995 30.751 20.6713 30.7156C20.575 30.5934 20.6068 30.4047 20.6481 30.268C20.7136 30.0341 21.0332 29.8329 21.3643 29.8117C21.5838 29.8002 21.9862 29.8599 22.2201 30.4047C22.3597 30.7329 22.2355 31.1863 21.9005 31.5598C21.5655 31.9333 20.9764 32.2644 20.3045 32.069C19.7808 31.9189 19.443 31.6166 19.3034 31.1719C19.1109 30.5597 19.3506 29.8194 19.6884 29.4046C20.5269 28.3736 21.4327 28.3264 22.3924 28.2764C23.1028 28.2379 23.8363 28.1965 24.4677 27.7133C25.1165 27.2166 25.4602 26.6544 25.4833 26.0287C25.4909 25.8143 25.4619 25.6001 25.3976 25.3953C25.6034 25.4593 25.8186 25.4873 26.0339 25.4781C26.6529 25.4541 27.2217 25.1104 27.7165 24.4626C28.1978 23.8321 28.2402 23.0976 28.2787 22.3862C28.3326 21.4236 28.3826 20.5207 29.4097 19.6833C29.8246 19.3483 30.5649 19.1057 31.178 19.2982C31.6218 19.4368 31.924 19.7747 32.0752 20.2993C32.2677 20.9731 31.9385 21.5632 31.566 21.8982C31.1934 22.2332 30.7333 22.3535 30.4108 22.2149C29.866 21.981 29.8063 21.5786 29.8188 21.3592C29.8362 21.0299 30.0402 20.7104 30.2742 20.642C30.4108 20.6006 30.6005 20.5717 30.7218 20.6661C30.7568 20.6937 30.7859 20.7282 30.8072 20.7674C30.8286 20.8066 30.8417 20.8498 30.8459 20.8942C30.8389 20.9726 30.8629 21.0505 30.9128 21.1114C30.9626 21.1722 31.0344 21.2111 31.1126 21.2196C31.1515 21.2231 31.1907 21.219 31.228 21.2074C31.2652 21.1957 31.2999 21.1769 31.3298 21.1518C31.3598 21.1268 31.3845 21.0961 31.4026 21.0614C31.4206 21.0268 31.4317 20.989 31.435 20.95C31.4396 20.8103 31.4124 20.6714 31.3556 20.5437C31.2987 20.416 31.2137 20.3028 31.1068 20.2127C30.9287 20.0683 30.612 19.9239 30.1057 20.0741C29.6321 20.2127 29.2615 20.7402 29.2259 21.3255C29.1912 21.956 29.5464 22.4921 30.1769 22.7617C30.7218 22.9927 31.4062 22.8329 31.9597 22.341C31.9982 22.3083 32.0338 22.2755 32.0694 22.2447C32.3458 21.9785 32.5454 21.6426 32.647 21.2724C32.7487 20.9023 32.7486 20.5116 32.647 20.1415C32.3871 19.2328 31.8008 18.8776 31.359 18.738C30.5061 18.4714 29.5589 18.8063 29.0411 19.2299C27.8118 20.2368 27.7464 21.3649 27.6934 22.3631C27.6549 23.037 27.6251 23.6213 27.2526 24.1103C26.88 24.5993 26.4526 24.8736 26.0175 24.8948C25.4727 24.9179 25.0107 24.5627 24.8181 24.3913C24.9256 24.1784 24.9794 23.9425 24.975 23.704C24.975 23.6415 24.975 23.577 24.9664 23.5115C24.8778 22.5374 24.1963 21.5218 23.1509 20.7931C22.4212 20.2984 21.6283 19.904 20.7935 19.6207C20.0399 19.3614 19.3554 18.9334 18.7923 18.3693L18.6209 18.1999C18.5745 18.154 18.544 18.0946 18.5338 18.0302C18.5236 17.9658 18.5342 17.8998 18.5641 17.8418C18.5825 17.8046 18.6082 17.7715 18.6397 17.7446C18.6713 17.7176 18.7079 17.6973 18.7475 17.6849C18.7871 17.6725 18.8288 17.6682 18.87 17.6723C18.9113 17.6765 18.9513 17.6889 18.9877 17.709C20.2484 18.4136 21.5897 18.963 22.9825 19.3454C23.3076 19.4328 23.6247 19.5475 23.9306 19.6881C24.2619 19.857 24.5746 20.0602 24.8634 20.2945C25.9915 21.1945 26.468 22.625 26.0868 23.9399L26.0743 23.9871C26.0623 24.0242 26.0579 24.0634 26.0614 24.1023C26.0649 24.1412 26.0763 24.179 26.0948 24.2133C26.1133 24.2477 26.1387 24.278 26.1692 24.3023C26.1998 24.3266 26.235 24.3444 26.2726 24.3548C26.3099 24.3673 26.3494 24.372 26.3887 24.3688C26.4279 24.3655 26.466 24.3542 26.5007 24.3356C26.5354 24.317 26.566 24.2916 26.5905 24.2608C26.615 24.23 26.6329 24.1945 26.6432 24.1565L26.6548 24.1055C27.1053 22.5605 26.545 20.8807 25.2369 19.8296C25.1772 19.7853 25.1185 19.7439 25.0588 19.6967C25.2186 19.7054 25.3784 19.7141 25.5353 19.7112C26.9955 19.7112 28.3076 19.3088 29.2076 18.5561C29.4679 18.3445 29.6877 18.0875 29.8564 17.7975C29.8977 17.7225 29.9496 17.6538 30.0104 17.5935C30.2075 17.4012 30.4725 17.2947 30.7478 17.297C30.8276 17.3153 30.9133 17.3355 30.9903 17.3567C31.5142 17.4991 31.9909 17.778 32.3718 18.165C32.7526 18.5519 33.024 19.033 33.1581 19.5591C33.3069 20.1087 33.3072 20.6879 33.1591 21.2377C33.0109 21.7874 32.7196 22.2881 32.3149 22.6885ZM22.3356 21.4718C22.3148 21.263 22.2526 21.0604 22.1527 20.8759C22.3741 21.0011 22.5936 21.131 22.8092 21.2821C23.8786 22.0253 24.3166 22.9494 24.3705 23.5645C24.3965 23.8532 24.3407 24.1006 24.2194 24.219C24.1231 24.3201 23.9306 24.3759 23.7034 24.3759C23.6592 24.3759 23.612 24.3759 23.5648 24.3702C22.9488 24.3172 22.0247 23.8754 21.2815 22.8098C21.1362 22.5977 21.0019 22.3783 20.8792 22.1523C21.0621 22.2529 21.2635 22.3155 21.4712 22.3362C21.59 22.3547 21.7114 22.3465 21.8266 22.3122C21.9418 22.2779 22.0479 22.2183 22.1373 22.1379C22.2067 22.0621 22.2605 21.9734 22.2956 21.8767C22.3306 21.7801 22.3461 21.6775 22.3414 21.5748C22.3422 21.5403 22.3403 21.5059 22.3356 21.4718ZM21.7166 21.7172C21.658 21.7497 21.5898 21.7602 21.5241 21.7471C21.2613 21.723 20.8609 21.5305 20.5326 21.0569C20.3148 20.7352 20.1416 20.3855 20.0176 20.0173C20.3855 20.1419 20.7348 20.3154 21.0563 20.5332C21.5309 20.8615 21.7234 21.2581 21.7465 21.5247C21.758 21.6489 21.7291 21.7095 21.7166 21.7172Z" fill="url(#paint0_linear_243_14882)"/>
<path d="M4.9771 10.2146C5.05117 10.1404 5.10158 10.0459 5.12196 9.94305C5.14234 9.8402 5.13178 9.73361 5.0916 9.63675C5.05143 9.53989 4.98344 9.45712 4.89624 9.39889C4.80904 9.34065 4.70654 9.30957 4.60168 9.30957C4.49682 9.30957 4.39432 9.34065 4.30712 9.39889C4.21992 9.45712 4.15194 9.53989 4.11176 9.63675C4.07159 9.73361 4.06102 9.8402 4.0814 9.94305C4.10178 10.0459 4.1522 10.1404 4.22627 10.2146C4.27553 10.264 4.33405 10.3032 4.39847 10.3299C4.46289 10.3566 4.53194 10.3704 4.60168 10.3704C4.67142 10.3704 4.74048 10.3566 4.8049 10.3299C4.86931 10.3032 4.92783 10.264 4.9771 10.2146Z" fill="url(#paint1_linear_243_14882)"/>
<path d="M9.83996 5.13207C10.1329 5.13207 10.3704 4.89461 10.3704 4.60168C10.3704 4.30875 10.1329 4.07129 9.83996 4.07129C9.54704 4.07129 9.30957 4.30875 9.30957 4.60168C9.30957 4.89461 9.54704 5.13207 9.83996 5.13207Z" fill="url(#paint2_linear_243_14882)"/>
<path d="M24.1593 5.13207C24.4522 5.13207 24.6897 4.89461 24.6897 4.60168C24.6897 4.30875 24.4522 4.07129 24.1593 4.07129C23.8664 4.07129 23.6289 4.30875 23.6289 4.60168C23.6289 4.89461 23.8664 5.13207 24.1593 5.13207Z" fill="url(#paint3_linear_243_14882)"/>
<path d="M29.773 10.2146C29.8471 10.1404 29.8975 10.0459 29.9179 9.94305C29.9382 9.8402 29.9277 9.73361 29.8875 9.63675C29.8473 9.53989 29.7793 9.45712 29.6921 9.39889C29.6049 9.34065 29.5024 9.30957 29.3976 9.30957C29.2927 9.30957 29.1902 9.34065 29.103 9.39889C29.0158 9.45712 28.9478 9.53989 28.9077 9.63675C28.8675 9.73361 28.8569 9.8402 28.8773 9.94305C28.8977 10.0459 28.9481 10.1404 29.0222 10.2146C29.0714 10.264 29.1299 10.3032 29.1944 10.3299C29.2588 10.3566 29.3278 10.3704 29.3976 10.3704C29.4673 10.3704 29.5364 10.3566 29.6008 10.3299C29.6652 10.3032 29.7237 10.264 29.773 10.2146Z" fill="url(#paint4_linear_243_14882)"/>
<path d="M29.0222 23.7846C28.9481 23.8588 28.8977 23.9534 28.8773 24.0562C28.8569 24.1591 28.8675 24.2657 28.9077 24.3625C28.9478 24.4594 29.0158 24.5421 29.103 24.6004C29.1902 24.6586 29.2927 24.6897 29.3976 24.6897C29.5024 24.6897 29.6049 24.6586 29.6921 24.6004C29.7793 24.5421 29.8473 24.4594 29.8875 24.3625C29.9277 24.2657 29.9382 24.1591 29.9179 24.0562C29.8975 23.9534 29.8471 23.8588 29.773 23.7846C29.7237 23.7353 29.6652 23.6961 29.6008 23.6694C29.5364 23.6427 29.4673 23.6289 29.3976 23.6289C29.3278 23.6289 29.2588 23.6427 29.1944 23.6694C29.1299 23.6961 29.0714 23.7353 29.0222 23.7846Z" fill="url(#paint5_linear_243_14882)"/>
<path d="M23.7839 29.0249C23.7098 29.0991 23.6594 29.1936 23.639 29.2964C23.6186 29.3993 23.6292 29.5059 23.6694 29.6027C23.7096 29.6996 23.7775 29.7824 23.8647 29.8406C23.9519 29.8988 24.0544 29.9299 24.1593 29.9299C24.2642 29.9299 24.3667 29.8988 24.4539 29.8406C24.5411 29.7824 24.609 29.6996 24.6492 29.6027C24.6894 29.5059 24.7 29.3993 24.6796 29.2964C24.6592 29.1936 24.6088 29.0991 24.5347 29.0249C24.4854 28.9755 24.4269 28.9363 24.3625 28.9096C24.2981 28.8829 24.229 28.8691 24.1593 28.8691C24.0896 28.8691 24.0205 28.8829 23.9561 28.9096C23.8917 28.9363 23.8332 28.9755 23.7839 29.0249Z" fill="url(#paint6_linear_243_14882)"/>
<path d="M9.46455 29.0249C9.39048 29.0991 9.34007 29.1936 9.31969 29.2964C9.2993 29.3993 9.30987 29.5059 9.35005 29.6027C9.39022 29.6996 9.4582 29.7824 9.5454 29.8406C9.6326 29.8988 9.73511 29.9299 9.83996 29.9299C9.94482 29.9299 10.0473 29.8988 10.1345 29.8406C10.2217 29.7824 10.2897 29.6996 10.3299 29.6027C10.3701 29.5059 10.3806 29.3993 10.3602 29.2964C10.3399 29.1936 10.2895 29.0991 10.2154 29.0249C10.1661 28.9755 10.1076 28.9363 10.0432 28.9096C9.97876 28.8829 9.9097 28.8691 9.83996 28.8691C9.77022 28.8691 9.70117 28.8829 9.63675 28.9096C9.57233 28.9363 9.51381 28.9755 9.46455 29.0249Z" fill="url(#paint7_linear_243_14882)"/>
<path d="M4.22627 23.7846C4.1522 23.8588 4.10178 23.9534 4.0814 24.0562C4.06102 24.1591 4.07159 24.2657 4.11176 24.3625C4.15194 24.4594 4.21992 24.5421 4.30712 24.6004C4.39432 24.6586 4.49682 24.6897 4.60168 24.6897C4.70654 24.6897 4.80904 24.6586 4.89624 24.6004C4.98344 24.5421 5.05143 24.4594 5.0916 24.3625C5.13178 24.2657 5.14234 24.1591 5.12196 24.0562C5.10158 23.9534 5.05117 23.8588 4.9771 23.7846C4.92783 23.7353 4.86931 23.6961 4.8049 23.6694C4.74048 23.6427 4.67142 23.6289 4.60168 23.6289C4.53194 23.6289 4.46289 23.6427 4.39847 23.6694C4.33405 23.6961 4.27553 23.7353 4.22627 23.7846Z" fill="url(#paint8_linear_243_14882)"/>
<path d="M33.8701 15.7198C33.7314 16.024 33.3801 16.667 32.7987 16.9625C32.7915 16.9656 32.7853 16.9708 32.781 16.9774C32.7767 16.984 32.7744 16.9917 32.7744 16.9996C32.7744 17.0074 32.7767 17.0151 32.781 17.0217C32.7853 17.0283 32.7915 17.0335 32.7987 17.0366C33.3762 17.3321 33.7314 17.9752 33.8701 18.2793C33.8744 18.288 33.8814 18.295 33.8901 18.2993C33.8988 18.3035 33.9087 18.3048 33.9182 18.303C33.9277 18.3011 33.9363 18.2962 33.9427 18.289C33.9492 18.2818 33.9531 18.2726 33.9538 18.263C33.9836 17.8423 33.999 17.4188 33.999 17C33.999 16.5813 33.9836 16.1568 33.9538 15.7361C33.9531 15.7265 33.9492 15.7174 33.9427 15.7101C33.9363 15.7029 33.9277 15.698 33.9182 15.6961C33.9087 15.6943 33.8988 15.6956 33.8901 15.6999C33.8814 15.7041 33.8744 15.7111 33.8701 15.7198Z" fill="url(#paint9_linear_243_14882)"/>
<path d="M18.2784 33.8709C17.9752 33.7314 17.3321 33.381 17.0357 32.7986C17.0324 32.7917 17.0272 32.7858 17.0207 32.7817C17.0143 32.7776 17.0067 32.7754 16.9991 32.7754C16.9914 32.7754 16.9839 32.7776 16.9774 32.7817C16.9709 32.7858 16.9658 32.7917 16.9625 32.7986C16.666 33.381 16.023 33.7314 15.7198 33.8709C15.7111 33.8753 15.7041 33.8823 15.6999 33.891C15.6956 33.8997 15.6943 33.9095 15.6961 33.919C15.698 33.9285 15.7029 33.9372 15.7101 33.9436C15.7174 33.95 15.7265 33.9539 15.7361 33.9547C16.1558 33.9836 16.5803 33.9999 16.9991 33.9999C17.4178 33.9999 17.8423 33.9836 18.262 33.9547C18.2717 33.9539 18.2808 33.95 18.288 33.9436C18.2952 33.9372 18.3002 33.9285 18.302 33.919C18.3039 33.9095 18.3026 33.8997 18.2983 33.891C18.294 33.8823 18.287 33.8753 18.2784 33.8709Z" fill="url(#paint10_linear_243_14882)"/>
<path d="M0.128988 18.2793C0.267603 17.9752 0.618952 17.3321 1.20036 17.0366C1.20758 17.0335 1.21371 17.0283 1.21803 17.0217C1.22234 17.0151 1.22463 17.0074 1.22463 16.9996C1.22463 16.9917 1.22234 16.984 1.21803 16.9774C1.21371 16.9708 1.20758 16.9656 1.20036 16.9625C0.622802 16.667 0.267603 16.024 0.128988 15.7198C0.124658 15.7111 0.117611 15.7041 0.108926 15.6999C0.10024 15.6956 0.0903945 15.6943 0.0808955 15.6961C0.0713965 15.698 0.0627672 15.7029 0.0563282 15.7101C0.0498892 15.7174 0.0459956 15.7265 0.0452423 15.7361C0.0154017 16.1568 0 16.5803 0 17C0 17.4197 0.0154017 17.8423 0.0452423 18.263C0.0459956 18.2726 0.0498892 18.2818 0.0563282 18.289C0.0627672 18.2962 0.0713965 18.3011 0.0808955 18.303C0.0903945 18.3048 0.10024 18.3035 0.108926 18.2993C0.117611 18.295 0.124658 18.288 0.128988 18.2793Z" fill="url(#paint11_linear_243_14882)"/>
<path d="M15.7199 0.128988C16.0231 0.268565 16.6661 0.618952 16.9626 1.20132C16.9658 1.20827 16.971 1.21413 16.9775 1.21824C16.984 1.22235 16.9915 1.22453 16.9991 1.22453C17.0068 1.22453 17.0143 1.22235 17.0208 1.21824C17.0273 1.21413 17.0325 1.20827 17.0357 1.20132C17.3322 0.623765 17.9752 0.268565 18.2784 0.128988C18.2874 0.124967 18.2947 0.118046 18.2991 0.10935C18.3036 0.100654 18.305 0.0906957 18.3031 0.0810975C18.3012 0.0714993 18.2961 0.0628264 18.2887 0.0564905C18.2812 0.0501546 18.2719 0.0465289 18.2621 0.0462044C17.8424 0.0163638 17.4179 0 16.9991 0C16.5804 0 16.1559 0.0163638 15.7362 0.0462044C15.7264 0.0465289 15.7171 0.0501546 15.7096 0.0564905C15.7021 0.0628264 15.6971 0.0714993 15.6952 0.0810975C15.6933 0.0906957 15.6947 0.100654 15.6992 0.10935C15.7036 0.118046 15.7109 0.124967 15.7199 0.128988Z" fill="url(#paint12_linear_243_14882)"/>
<path d="M5.90052 6.62721C6.30456 6.62721 6.6321 6.29968 6.6321 5.89564C6.6321 5.4916 6.30456 5.16406 5.90052 5.16406C5.49648 5.16406 5.16895 5.4916 5.16895 5.89564C5.16895 6.29968 5.49648 6.62721 5.90052 6.62721Z" fill="url(#paint13_linear_243_14882)"/>
<path d="M28.0997 6.62721C28.5038 6.62721 28.8313 6.29968 28.8313 5.89564C28.8313 5.4916 28.5038 5.16406 28.0997 5.16406C27.6957 5.16406 27.3682 5.4916 27.3682 5.89564C27.3682 6.29968 27.6957 6.62721 28.0997 6.62721Z" fill="url(#paint14_linear_243_14882)"/>
<path d="M5.90052 28.8352C6.30456 28.8352 6.6321 28.5077 6.6321 28.1036C6.6321 27.6996 6.30456 27.3721 5.90052 27.3721C5.49648 27.3721 5.16895 27.6996 5.16895 28.1036C5.16895 28.5077 5.49648 28.8352 5.90052 28.8352Z" fill="url(#paint15_linear_243_14882)"/>
<path d="M28.0997 28.8352C28.5038 28.8352 28.8313 28.5077 28.8313 28.1036C28.8313 27.6996 28.5038 27.3721 28.0997 27.3721C27.6957 27.3721 27.3682 27.6996 27.3682 28.1036C27.3682 28.5077 27.6957 28.8352 28.0997 28.8352Z" fill="url(#paint16_linear_243_14882)"/>
</g>
<defs>
<linearGradient id="paint0_linear_243_14882" x1="16.9999" y1="33.8085" x2="16.9999" y2="0.0442967" gradientUnits="userSpaceOnUse">
<stop stop-color="#827466"/>
<stop offset="1" stop-color="#E6AD74"/>
</linearGradient>
<linearGradient id="paint1_linear_243_14882" x1="4.60168" y1="33.808" x2="4.60168" y2="0.0437999" gradientUnits="userSpaceOnUse">
<stop stop-color="white"/>
<stop offset="1" stop-color="#E6AD74"/>
</linearGradient>
<linearGradient id="paint2_linear_243_14882" x1="9.83996" y1="33.8079" x2="9.83996" y2="0.0447332" gradientUnits="userSpaceOnUse">
<stop stop-color="#827466"/>
<stop offset="1" stop-color="#E6AD74"/>
</linearGradient>
<linearGradient id="paint3_linear_243_14882" x1="24.1593" y1="33.8079" x2="24.1593" y2="0.0447332" gradientUnits="userSpaceOnUse">
<stop stop-color="#827466"/>
<stop offset="1" stop-color="#E6AD74"/>
</linearGradient>
<linearGradient id="paint4_linear_243_14882" x1="29.3976" y1="33.808" x2="29.3976" y2="0.0437999" gradientUnits="userSpaceOnUse">
<stop stop-color="white"/>
<stop offset="1" stop-color="#E6AD74"/>
</linearGradient>
<linearGradient id="paint5_linear_243_14882" x1="29.3976" y1="33.8082" x2="29.3976" y2="0.0440423" gradientUnits="userSpaceOnUse">
<stop stop-color="#827466"/>
<stop offset="1" stop-color="#E6AD74"/>
</linearGradient>
<linearGradient id="paint6_linear_243_14882" x1="24.1593" y1="33.808" x2="24.1593" y2="0.0438868" gradientUnits="userSpaceOnUse">
<stop stop-color="#827466"/>
<stop offset="1" stop-color="#E6AD74"/>
</linearGradient>
<linearGradient id="paint7_linear_243_14882" x1="9.83996" y1="33.808" x2="9.83996" y2="0.0438868" gradientUnits="userSpaceOnUse">
<stop stop-color="#827466"/>
<stop offset="1" stop-color="#E6AD74"/>
</linearGradient>
<linearGradient id="paint8_linear_243_14882" x1="4.60168" y1="33.8082" x2="4.60168" y2="0.0440423" gradientUnits="userSpaceOnUse">
<stop stop-color="#827466"/>
<stop offset="1" stop-color="#E6AD74"/>
</linearGradient>
<linearGradient id="paint9_linear_243_14882" x1="33.3868" y1="-0.126547" x2="33.3868" y2="34.0429" gradientUnits="userSpaceOnUse">
<stop stop-color="#827466"/>
<stop offset="1" stop-color="#E6AD74"/>
</linearGradient>
<linearGradient id="paint10_linear_243_14882" x1="16.9991" y1="34.0432" x2="16.9991" y2="-0.189672" gradientUnits="userSpaceOnUse">
<stop stop-color="#827466"/>
<stop offset="1" stop-color="#E6AD74"/>
</linearGradient>
<linearGradient id="paint11_linear_243_14882" x1="0.612214" y1="-0.186227" x2="0.612214" y2="33.8869" gradientUnits="userSpaceOnUse">
<stop stop-color="#827466"/>
<stop offset="1" stop-color="#E6AD74"/>
</linearGradient>
<linearGradient id="paint12_linear_243_14882" x1="16.9991" y1="33.7497" x2="16.9991" y2="0.0471673" gradientUnits="userSpaceOnUse">
<stop stop-color="#827466"/>
<stop offset="1" stop-color="#E6AD74"/>
</linearGradient>
<linearGradient id="paint13_linear_243_14882" x1="5.90052" y1="33.8081" x2="5.90052" y2="-0.00991099" gradientUnits="userSpaceOnUse">
<stop stop-color="#827466"/>
<stop offset="1" stop-color="#E6AD74"/>
</linearGradient>
<linearGradient id="paint14_linear_243_14882" x1="28.0997" y1="33.8081" x2="28.0997" y2="-0.00991099" gradientUnits="userSpaceOnUse">
<stop stop-color="#827466"/>
<stop offset="1" stop-color="#E6AD74"/>
</linearGradient>
<linearGradient id="paint15_linear_243_14882" x1="5.90052" y1="33.7483" x2="5.90052" y2="-0.131364" gradientUnits="userSpaceOnUse">
<stop stop-color="#827466"/>
<stop offset="1" stop-color="#E6AD74"/>
</linearGradient>
<linearGradient id="paint16_linear_243_14882" x1="28.0997" y1="33.8667" x2="28.0997" y2="0.0284291" gradientUnits="userSpaceOnUse">
<stop stop-color="#827466"/>
<stop offset="1" stop-color="#E6AD74"/>
</linearGradient>
<clipPath id="clip0_243_14882">
<rect width="34" height="34" fill="white"/>
</clipPath>
</defs>
</svg>
