<svg width="17" height="16" viewBox="0 0 17 16" fill="none" xmlns="http://www.w3.org/2000/svg">
<path d="M8.08891 11.7845C8.13478 11.8511 8.19616 11.9056 8.26775 11.9432C8.33935 11.9809 8.41902 12.0005 8.49991 12.0005C8.58079 12.0005 8.66047 11.9809 8.73206 11.9432C8.80366 11.9056 8.86504 11.8511 8.91091 11.7845L13.4109 5.2845C13.463 5.20953 13.4935 5.12172 13.4992 5.0306C13.5049 4.93949 13.4855 4.84856 13.4432 4.7677C13.4008 4.68683 13.3371 4.61912 13.2589 4.57193C13.1808 4.52473 13.0912 4.49986 12.9999 4.5H3.99991C3.90883 4.50038 3.81958 4.52557 3.74175 4.57288C3.66392 4.62019 3.60046 4.68782 3.55819 4.7685C3.51592 4.84917 3.49645 4.93985 3.50186 5.03077C3.50727 5.12168 3.53737 5.20941 3.58891 5.2845L8.08891 11.7845Z" fill="#4B3A5A"/>
</svg>
