<svg width="16" height="16" viewBox="0 0 16 16" fill="none" xmlns="http://www.w3.org/2000/svg">
<path d="M7.58988 11.7845C7.63575 11.8511 7.69713 11.9056 7.76873 11.9432C7.84033 11.9809 7.92 12.0005 8.00088 12.0005C8.08177 12.0005 8.16144 11.9809 8.23304 11.9432C8.30464 11.9056 8.36601 11.8511 8.41188 11.7845L12.9119 5.2845C12.964 5.20953 12.9945 5.12172 13.0002 5.0306C13.0059 4.93949 12.9865 4.84856 12.9441 4.7677C12.9018 4.68683 12.838 4.61912 12.7599 4.57193C12.6818 4.52473 12.5922 4.49986 12.5009 4.5H3.50088C3.40981 4.50038 3.32055 4.52557 3.24272 4.57288C3.1649 4.62019 3.10144 4.68782 3.05917 4.7685C3.0169 4.84917 2.99743 4.93985 3.00284 5.03077C3.00825 5.12168 3.03834 5.20941 3.08988 5.2845L7.58988 11.7845Z" fill="#4B3A5A"/>
</svg>
