<svg width="24" height="25" viewBox="0 0 24 25" fill="none" xmlns="http://www.w3.org/2000/svg">
<path d="M20.25 11.3141C19.7772 11.1065 19.2664 10.9996 18.75 11H5.25C4.73368 10.9995 4.22288 11.1063 3.75 11.3136C3.08166 11.6059 2.51294 12.0865 2.11336 12.6968C1.71377 13.3071 1.50064 14.0205 1.5 14.75V20C1.5 20.1989 1.57902 20.3897 1.71967 20.5303C1.86032 20.671 2.05109 20.75 2.25 20.75C2.44891 20.75 2.63968 20.671 2.78033 20.5303C2.92098 20.3897 3 20.1989 3 20V19.625C3.00122 19.5259 3.04112 19.4312 3.11118 19.3612C3.18124 19.2911 3.27592 19.2512 3.375 19.25H20.625C20.7241 19.2512 20.8188 19.2911 20.8888 19.3612C20.9589 19.4312 20.9988 19.5259 21 19.625V20C21 20.1989 21.079 20.3897 21.2197 20.5303C21.3603 20.671 21.5511 20.75 21.75 20.75C21.9489 20.75 22.1397 20.671 22.2803 20.5303C22.421 20.3897 22.5 20.1989 22.5 20V14.75C22.4993 14.0206 22.2861 13.3073 21.8865 12.6971C21.4869 12.0869 20.9183 11.6063 20.25 11.3141V11.3141ZM17.625 4.25H6.375C5.67881 4.25 5.01113 4.52656 4.51884 5.01884C4.02656 5.51113 3.75 6.17881 3.75 6.875V10.25C3.75002 10.2791 3.75679 10.3077 3.76979 10.3337C3.78278 10.3597 3.80163 10.3823 3.82486 10.3998C3.84809 10.4172 3.87505 10.429 3.90363 10.4343C3.93221 10.4395 3.96162 10.4381 3.98953 10.43C4.39896 10.3102 4.82341 10.2496 5.25 10.25H5.44828C5.49456 10.2503 5.53932 10.2335 5.57393 10.2027C5.60855 10.172 5.63058 10.1296 5.63578 10.0836C5.67669 9.71712 5.85115 9.37856 6.12586 9.13256C6.40056 8.88656 6.75625 8.75037 7.125 8.75H9.75C10.119 8.75003 10.475 8.88606 10.75 9.13209C11.025 9.37812 11.1997 9.71688 11.2406 10.0836C11.2458 10.1296 11.2679 10.172 11.3025 10.2027C11.3371 10.2335 11.3818 10.2503 11.4281 10.25H12.5747C12.621 10.2503 12.6657 10.2335 12.7003 10.2027C12.735 10.172 12.757 10.1296 12.7622 10.0836C12.8031 9.71736 12.9773 9.37899 13.2517 9.13303C13.5261 8.88707 13.8815 8.75072 14.25 8.75H16.875C17.244 8.75003 17.6 8.88606 17.875 9.13209C18.15 9.37812 18.3247 9.71688 18.3656 10.0836C18.3708 10.1296 18.3929 10.172 18.4275 10.2027C18.4621 10.2335 18.5068 10.2503 18.5531 10.25H18.75C19.1766 10.2498 19.6011 10.3106 20.0105 10.4305C20.0384 10.4385 20.0679 10.44 20.0965 10.4347C20.1251 10.4295 20.1521 10.4176 20.1753 10.4001C20.1986 10.3826 20.2174 10.3599 20.2304 10.3339C20.2433 10.3078 20.2501 10.2791 20.25 10.25V6.875C20.25 6.17881 19.9734 5.51113 19.4812 5.01884C18.9889 4.52656 18.3212 4.25 17.625 4.25Z" fill="#13293D"/>
</svg>
