<svg width="24" height="24" viewBox="0 0 24 24" fill="none" xmlns="http://www.w3.org/2000/svg">
<path d="M19.433 4.44937V3.75C19.433 3.55109 19.3539 3.36032 19.2133 3.21967C19.0726 3.07902 18.8819 3 18.683 3H5.31796C5.11905 3 4.92828 3.07902 4.78763 3.21967C4.64698 3.36032 4.56796 3.55109 4.56796 3.75V4.44937C4.49952 4.98234 4.11562 8.70281 6.29906 11.2317C7.46484 12.5817 9.12843 13.3341 11.2505 13.4752V19.5H7.50046C7.30155 19.5 7.11078 19.579 6.97013 19.7197C6.82948 19.8603 6.75046 20.0511 6.75046 20.25C6.75046 20.4489 6.82948 20.6397 6.97013 20.7803C7.11078 20.921 7.30155 21 7.50046 21H16.5005C16.6994 21 16.8901 20.921 17.0308 20.7803C17.1714 20.6397 17.2505 20.4489 17.2505 20.25C17.2505 20.0511 17.1714 19.8603 17.0308 19.7197C16.8901 19.579 16.6994 19.5 16.5005 19.5H12.7505V13.4752C14.8725 13.3345 16.5361 12.5817 17.7019 11.2317C19.8853 8.70281 19.5005 4.98234 19.433 4.44937V4.44937ZM6.05952 4.60922C6.06515 4.57308 6.06797 4.53657 6.06796 4.5H17.933C17.933 4.53657 17.9358 4.57308 17.9414 4.60922C18.0224 5.32052 18.0224 6.0387 17.9414 6.75H6.06234C5.98139 6.03875 5.98044 5.32067 6.05952 4.60922V4.60922Z" fill="#112211"/>
</svg>
