<svg width="18" height="18" viewBox="0 0 18 18" fill="none" xmlns="http://www.w3.org/2000/svg">
<path d="M11.3434 15.8248L5.02462 9.5248C4.94962 9.4498 4.89637 9.36855 4.86487 9.28105C4.83337 9.19355 4.81787 9.0998 4.81837 8.9998C4.81837 8.8998 4.83387 8.80605 4.86487 8.71855C4.89587 8.63105 4.94912 8.5498 5.02462 8.4748L11.3434 2.15605C11.5184 1.98105 11.7371 1.89355 11.9996 1.89355C12.2621 1.89355 12.4871 1.9873 12.6746 2.1748C12.8621 2.3623 12.9559 2.58105 12.9559 2.83105C12.9559 3.08105 12.8621 3.2998 12.6746 3.4873L7.16212 8.9998L12.6746 14.5123C12.8496 14.6873 12.9371 14.9031 12.9371 15.1596C12.9371 15.4161 12.8434 15.6378 12.6559 15.8248C12.4684 16.0123 12.2496 16.1061 11.9996 16.1061C11.7496 16.1061 11.5309 16.0123 11.3434 15.8248Z" fill="#FF8682"/>
</svg>
