<svg width="24" height="24" viewBox="0 0 24 24" fill="none" xmlns="http://www.w3.org/2000/svg">
<path d="M3 19C2.71667 19 2.47933 18.904 2.288 18.712C2.096 18.5207 2 18.2833 2 18C2 17.7167 2.096 17.4793 2.288 17.288C2.47933 17.096 2.71667 17 3 17H21C21.2833 17 21.5207 17.096 21.712 17.288C21.904 17.4793 22 17.7167 22 18C22 18.2833 21.904 18.5207 21.712 18.712C21.5207 18.904 21.2833 19 21 19H3ZM3 16V15C3 12.8667 3.65433 10.9833 4.963 9.35C6.271 7.71667 7.95 6.68333 10 6.25V6C10 5.45 10.196 4.97933 10.588 4.588C10.9793 4.196 11.45 4 12 4C12.55 4 13.021 4.196 13.413 4.588C13.8043 4.97933 14 5.45 14 6V6.25C16.0667 6.68333 17.75 7.71667 19.05 9.35C20.35 10.9833 21 12.8667 21 15V16H3Z" fill="#112211"/>
</svg>
