<svg width="17" height="16" viewBox="0 0 17 16" fill="none" xmlns="http://www.w3.org/2000/svg">
<path d="M6.49968 14C6.31079 14 6.15234 13.936 6.02434 13.808C5.89634 13.68 5.83256 13.5218 5.83301 13.3333V12.6667H3.16634C2.79968 12.6667 2.48568 12.536 2.22434 12.2747C1.96301 12.0133 1.83256 11.6996 1.83301 11.3333V3.33333C1.83301 2.96667 1.96368 2.65267 2.22501 2.39133C2.48634 2.13 2.80012 1.99956 3.16634 2H13.833C14.1997 2 14.5137 2.13067 14.775 2.392C15.0363 2.65333 15.1668 2.96711 15.1663 3.33333V11.3333C15.1663 11.7 15.0357 12.014 14.7743 12.2753C14.513 12.5367 14.1992 12.6671 13.833 12.6667H11.1663V13.3333C11.1663 13.5222 11.1023 13.6807 10.9743 13.8087C10.8463 13.9367 10.6881 14.0004 10.4997 14H6.49968Z" fill="black"/>
</svg>
