<svg width="24" height="24" viewBox="0 0 24 24" fill="none" xmlns="http://www.w3.org/2000/svg">
<path d="M12.9998 20.8499C13.0332 21.1665 12.9292 21.4375 12.6878 21.6629C12.4458 21.8875 12.1748 21.9749 11.8748 21.9249C8.97482 21.4915 6.67482 20.3705 4.97482 18.5619C3.27482 16.7539 2.30815 14.2915 2.07482 11.1749C2.04149 10.8415 2.13715 10.5622 2.36182 10.3369C2.58715 10.1122 2.86649 10.0249 3.19982 10.0749C6.24982 10.4915 8.59982 11.6665 10.2498 13.5999C11.8998 15.5332 12.8165 17.9499 12.9998 20.8499ZM11.2248 2.97485C11.4248 2.69152 11.6872 2.55385 12.0118 2.56185C12.3372 2.57052 12.5998 2.71652 12.7998 2.99985C13.5498 4.04985 14.2042 5.19985 14.7628 6.44985C15.3208 7.69985 15.6582 8.74985 15.7748 9.59985C15.1248 9.89985 14.3998 10.3872 13.5998 11.0619C12.7998 11.7372 12.2748 12.2582 12.0248 12.6249C11.7915 12.2582 11.2542 11.7205 10.4128 11.0119C9.57082 10.3039 8.85815 9.83319 8.27482 9.59985C8.40815 8.76652 8.74582 7.71219 9.28782 6.43685C9.82915 5.16219 10.4748 4.00819 11.2248 2.97485V2.97485ZM20.8748 10.0749C21.1915 10.0415 21.4582 10.1289 21.6748 10.3369C21.8915 10.5455 21.9915 10.8165 21.9748 11.1499C21.8415 13.8332 21.1125 16.0125 19.7878 17.6879C18.4625 19.3625 16.8582 20.5332 14.9748 21.1999C14.9415 20.1832 14.7875 19.0292 14.5128 17.7379C14.2375 16.4459 13.8082 15.3332 13.2248 14.3999C13.9415 13.2999 15.0042 12.3499 16.4128 11.5499C17.8208 10.7499 19.3082 10.2582 20.8748 10.0749V10.0749Z" fill="#112211"/>
</svg>
