<svg width="24" height="24" viewBox="0 0 24 24" fill="none" xmlns="http://www.w3.org/2000/svg">
<path d="M12.0003 18.2752L7.85033 20.7752C7.667 20.8919 7.47533 20.9419 7.27533 20.9252C7.07533 20.9085 6.90033 20.8419 6.75033 20.7252C6.60033 20.6085 6.48366 20.4625 6.40033 20.2872C6.317 20.1119 6.30033 19.9162 6.35033 19.7002L7.45033 14.9752L3.77533 11.8002C3.60866 11.6502 3.50466 11.4792 3.46333 11.2872C3.422 11.0952 3.43433 10.9079 3.50033 10.7252C3.567 10.5419 3.667 10.3919 3.80033 10.2752C3.93366 10.1585 4.117 10.0835 4.35033 10.0502L9.20033 9.6252L11.0753 5.1752C11.1587 4.9752 11.288 4.8252 11.4633 4.7252C11.6387 4.6252 11.8177 4.5752 12.0003 4.5752C12.1837 4.5752 12.3627 4.6252 12.5373 4.7252C12.712 4.8252 12.8413 4.9752 12.9253 5.1752L14.8003 9.6252L19.6503 10.0502C19.8837 10.0835 20.067 10.1585 20.2003 10.2752C20.3337 10.3919 20.4337 10.5419 20.5003 10.7252C20.567 10.9085 20.5797 11.0962 20.5383 11.2882C20.497 11.4802 20.3927 11.6509 20.2253 11.8002L16.5503 14.9752L17.6503 19.7002C17.7003 19.9169 17.6837 20.1129 17.6003 20.2882C17.517 20.4635 17.4003 20.6092 17.2503 20.7252C17.1003 20.8419 16.9253 20.9085 16.7253 20.9252C16.5253 20.9419 16.3337 20.8919 16.1503 20.7752L12.0003 18.2752Z" fill="#13293D"/>
</svg>
