<svg width="16" height="16" viewBox="0 0 16 16" fill="none" xmlns="http://www.w3.org/2000/svg">
<g clip-path="url(#clip0_270_71991)">
<path d="M4.39333 0.439963C5.95333 -0.766704 7.64667 0.706629 8.02667 2.99996C8.31333 2.99996 8.59333 3.07996 8.84667 3.22663C9.19333 2.82663 9.5 2.27996 9.38 1.66663C9.1 0.233296 10.7067 -0.926704 12.2333 1.0533C13.44 2.6133 11.9667 4.30663 9.66667 4.68663C9.66667 4.9733 9.59333 5.25996 9.44 5.5133C9.84 5.8533 10.3867 6.15996 11 6.03996C12.42 5.75996 13.5867 7.35996 11.6067 8.8933C10.0467 10.1 8.35333 8.62663 7.97333 6.3333C7.68667 6.3333 7.40667 6.24663 7.16 6.09996C6.81333 6.49996 6.5 7.0533 6.62 7.66663C6.9 9.0933 5.29333 10.26 3.76667 8.27996C2.55333 6.7133 4.03333 5.01996 6.33333 4.64663C6.33333 4.35996 6.42 4.07996 6.56667 3.82663C6.16667 3.48663 5.62 3.1733 5 3.2933C3.58 3.5733 2.41333 1.9733 4.39333 0.439963ZM3.33333 10.6666H4.66667C5.02029 10.6666 5.35943 10.8071 5.60948 11.0572C5.85952 11.3072 6 11.6463 6 12V16H4.66667V14.6666H3.33333V16H2V12C2 11.6463 2.14048 11.3072 2.39052 11.0572C2.64057 10.8071 2.97971 10.6666 3.33333 10.6666ZM3.33333 12V13.3333H4.66667V12H3.33333ZM8.62 10.6666H10L8.04667 16H6.66667L8.62 10.6666ZM12 10.6666H14V12H12V14.6666H14V16H12C11.6464 16 11.3072 15.8595 11.0572 15.6094C10.8071 15.3594 10.6667 15.0203 10.6667 14.6666V12C10.6667 11.6463 10.8071 11.3072 11.0572 11.0572C11.3072 10.8071 11.6464 10.6666 12 10.6666Z" fill="black"/>
</g>
<defs>
<clipPath id="clip0_270_71991">
<rect width="16" height="16" fill="white"/>
</clipPath>
</defs>
</svg>
