<svg width="2" height="2" viewBox="0 0 2 2" fill="none" xmlns="http://www.w3.org/2000/svg">
<path d="M1.4771 1.21464C1.55117 1.14042 1.60158 1.04591 1.62196 0.943053C1.64234 0.840195 1.63178 0.733605 1.5916 0.63675C1.55143 0.539894 1.48344 0.45712 1.39624 0.398886C1.30904 0.340652 1.20654 0.30957 1.10168 0.30957C0.996824 0.30957 0.89432 0.340652 0.80712 0.398886C0.71992 0.45712 0.651938 0.539894 0.611763 0.63675C0.571588 0.733605 0.561024 0.840195 0.581404 0.943053C0.601785 1.04591 0.652196 1.14042 0.726268 1.21464C0.775533 1.264 0.834049 1.30316 0.898468 1.32988C0.962886 1.3566 1.03194 1.37036 1.10168 1.37036C1.17142 1.37036 1.24048 1.3566 1.3049 1.32988C1.36931 1.30316 1.42783 1.264 1.4771 1.21464Z" fill="url(#paint0_linear_243_14763)"/>
<defs>
<linearGradient id="paint0_linear_243_14763" x1="1.10168" y1="24.808" x2="1.10168" y2="-8.9562" gradientUnits="userSpaceOnUse">
<stop stop-color="#827466"/>
<stop offset="1" stop-color="#E6AD74"/>
</linearGradient>
</defs>
</svg>
