<svg width="3" height="2" viewBox="0 0 3 2" fill="none" xmlns="http://www.w3.org/2000/svg">
<path d="M0.219853 0.128988C0.523072 0.268565 1.16609 0.618952 1.46257 1.20132C1.46584 1.20827 1.47101 1.21413 1.47749 1.21824C1.48396 1.22235 1.49148 1.22453 1.49915 1.22453C1.50682 1.22453 1.51433 1.22235 1.52081 1.21824C1.52729 1.21413 1.53246 1.20827 1.53573 1.20132C1.83221 0.623765 2.47523 0.268565 2.77844 0.128988C2.78736 0.124967 2.79466 0.118046 2.79914 0.10935C2.80363 0.100654 2.80504 0.0906957 2.80314 0.0810975C2.80124 0.0714993 2.79615 0.0628264 2.78869 0.0564905C2.78124 0.0501546 2.77186 0.0465289 2.76208 0.0462044C2.34239 0.0163638 1.91788 0 1.49915 0C1.08042 0 0.655911 0.0163638 0.236217 0.0462044C0.226439 0.0465289 0.217058 0.0501546 0.209602 0.0564905C0.202147 0.0628264 0.197055 0.0714993 0.195158 0.0810975C0.193261 0.0906957 0.194669 0.100654 0.199153 0.10935C0.203637 0.118046 0.210934 0.124967 0.219853 0.128988Z" fill="url(#paint0_linear_243_14774)"/>
<defs>
<linearGradient id="paint0_linear_243_14774" x1="1.49915" y1="33.7497" x2="1.49915" y2="0.0471673" gradientUnits="userSpaceOnUse">
<stop stop-color="#827466"/>
<stop offset="1" stop-color="#E6AD74"/>
</linearGradient>
</defs>
</svg>
