<svg width="2" height="2" viewBox="0 0 2 2" fill="none" xmlns="http://www.w3.org/2000/svg">
<path d="M0.963573 1.02486C0.889501 1.09908 0.839089 1.19358 0.818709 1.29644C0.798328 1.3993 0.808894 1.50589 0.849069 1.60275C0.889244 1.6996 0.957225 1.78238 1.04443 1.84061C1.13163 1.89884 1.23413 1.92992 1.33899 1.92992C1.44384 1.92992 1.54635 1.89884 1.63355 1.84061C1.72075 1.78238 1.78873 1.6996 1.82891 1.60275C1.86908 1.50589 1.87965 1.3993 1.85926 1.29644C1.83888 1.19358 1.78847 1.09908 1.7144 1.02486C1.66514 0.975496 1.60662 0.936332 1.5422 0.909612C1.47778 0.882892 1.40873 0.869141 1.33899 0.869141C1.26925 0.869141 1.20019 0.882892 1.13577 0.909612C1.07136 0.936332 1.01284 0.975496 0.963573 1.02486Z" fill="url(#paint0_linear_299_28282)"/>
<defs>
<linearGradient id="paint0_linear_299_28282" x1="1.33899" y1="5.80801" x2="1.33899" y2="-27.9561" gradientUnits="userSpaceOnUse">
<stop stop-color="#827466"/>
<stop offset="1" stop-color="#E6AD74"/>
</linearGradient>
</defs>
</svg>
