<svg width="2" height="2" viewBox="0 0 2 2" fill="none" xmlns="http://www.w3.org/2000/svg">
<path d="M0.725291 0.784624C0.651219 0.858842 0.600808 0.953352 0.580428 1.05621C0.560047 1.15907 0.570612 1.26566 0.610787 1.36251C0.650961 1.45937 0.718944 1.54214 0.806144 1.60037C0.893344 1.65861 0.995848 1.68969 1.1007 1.68969C1.20556 1.68969 1.30807 1.65861 1.39527 1.60037C1.48247 1.54214 1.55045 1.45937 1.59062 1.36251C1.6308 1.26566 1.64136 1.15907 1.62098 1.05621C1.6006 0.953352 1.55019 0.858842 1.47612 0.784624C1.42685 0.735261 1.36834 0.696098 1.30392 0.669378C1.2395 0.642658 1.17045 0.628906 1.1007 0.628906C1.03096 0.628906 0.96191 0.642658 0.897491 0.669378C0.833073 0.696098 0.774557 0.735261 0.725291 0.784624Z" fill="url(#paint0_linear_299_28283)"/>
<defs>
<linearGradient id="paint0_linear_299_28283" x1="1.1007" y1="10.8082" x2="1.1007" y2="-22.956" gradientUnits="userSpaceOnUse">
<stop stop-color="#827466"/>
<stop offset="1" stop-color="#E6AD74"/>
</linearGradient>
</defs>
</svg>
