<svg width="25" height="26" viewBox="0 0 25 26" fill="none" xmlns="http://www.w3.org/2000/svg">
<path d="M16.6667 13C16.6667 14.3735 16.4223 15.7161 15.9645 16.8581C15.5066 18.0001 14.8559 18.8902 14.0945 19.4158C13.3332 19.9414 12.4954 20.079 11.6871 19.811C10.8789 19.5431 10.1364 18.8817 9.55372 17.9105C8.971 16.9393 8.57417 15.7019 8.41339 14.3548C8.25262 13.0077 8.33514 11.6114 8.6505 10.3425C8.96587 9.07355 9.49992 7.98897 10.1851 7.22591C10.8703 6.46284 11.6759 6.05556 12.5 6.05556C13.6051 6.05556 14.6649 6.7872 15.4463 8.08954C16.2277 9.39187 16.6667 11.1582 16.6667 13ZM25 1.88889V24.1111C25 24.4795 24.9122 24.8327 24.7559 25.0932C24.5996 25.3537 24.3877 25.5 24.1667 25.5H0.833333C0.61232 25.5 0.400358 25.3537 0.244078 25.0932C0.0877973 24.8327 0 24.4795 0 24.1111V1.88889C0 1.52053 0.0877973 1.16726 0.244078 0.906796C0.400358 0.646329 0.61232 0.5 0.833333 0.5H24.1667C24.3877 0.5 24.5996 0.646329 24.7559 0.906796C24.9122 1.16726 25 1.52053 25 1.88889ZM23.3333 9.93576C22.3871 9.46945 21.5259 8.61599 20.8281 7.4531C20.1304 6.29021 19.6183 4.85486 19.3385 3.27778H5.66146C5.38167 4.85486 4.86959 6.29021 4.17186 7.4531C3.47412 8.61599 2.61291 9.46945 1.66667 9.93576V16.0642C2.61291 16.5305 3.47412 17.384 4.17186 18.5469C4.86959 19.7098 5.38167 21.1451 5.66146 22.7222H19.3385C19.6183 21.1451 20.1304 19.7098 20.8281 18.5469C21.5259 17.384 22.3871 16.5305 23.3333 16.0642V9.93576Z" fill="#13293D"/>
</svg>
