<svg width="3" height="2" viewBox="0 0 3 2" fill="none" xmlns="http://www.w3.org/2000/svg">
<path d="M0.22083 0.128988C0.524049 0.268565 1.16706 0.618952 1.46355 1.20132C1.46681 1.20827 1.47199 1.21413 1.47846 1.21824C1.48494 1.22235 1.49245 1.22453 1.50012 1.22453C1.5078 1.22453 1.51531 1.22235 1.52179 1.21824C1.52826 1.21413 1.53344 1.20827 1.5367 1.20132C1.83319 0.623765 2.4762 0.268565 2.77942 0.128988C2.78834 0.124967 2.79564 0.118046 2.80012 0.10935C2.8046 0.100654 2.80601 0.0906957 2.80411 0.0810975C2.80222 0.0714993 2.79713 0.0628264 2.78967 0.0564905C2.78222 0.0501546 2.77283 0.0465289 2.76306 0.0462044C2.34336 0.0163638 1.91886 0 1.50012 0C1.08139 0 0.656888 0.0163638 0.237194 0.0462044C0.227415 0.0465289 0.218034 0.0501546 0.210579 0.0564905C0.203124 0.0628264 0.198032 0.0714993 0.196135 0.0810975C0.194237 0.0906957 0.195646 0.100654 0.20013 0.10935C0.204614 0.118046 0.21191 0.124967 0.22083 0.128988Z" fill="url(#paint0_linear_299_28287)"/>
<defs>
<linearGradient id="paint0_linear_299_28287" x1="1.50012" y1="33.7497" x2="1.50012" y2="0.0471673" gradientUnits="userSpaceOnUse">
<stop stop-color="#827466"/>
<stop offset="1" stop-color="#E6AD74"/>
</linearGradient>
</defs>
</svg>
