<svg width="2" height="2" viewBox="0 0 2 2" fill="none" xmlns="http://www.w3.org/2000/svg">
<path d="M0.96455 1.02486C0.890478 1.09908 0.840066 1.19358 0.819685 1.29644C0.799305 1.3993 0.809871 1.50589 0.850045 1.60275C0.89022 1.6996 0.958202 1.78238 1.0454 1.84061C1.1326 1.89884 1.23511 1.92992 1.33996 1.92992C1.44482 1.92992 1.54733 1.89884 1.63453 1.84061C1.72173 1.78238 1.78971 1.6996 1.82988 1.60275C1.87006 1.50589 1.88062 1.3993 1.86024 1.29644C1.83986 1.19358 1.78945 1.09908 1.71538 1.02486C1.66611 0.975496 1.6076 0.936332 1.54318 0.909612C1.47876 0.882892 1.4097 0.869141 1.33996 0.869141C1.27022 0.869141 1.20117 0.882892 1.13675 0.909612C1.07233 0.936332 1.01381 0.975496 0.96455 1.02486Z" fill="url(#paint0_linear_243_14769)"/>
<defs>
<linearGradient id="paint0_linear_243_14769" x1="1.33996" y1="5.80801" x2="1.33996" y2="-27.9561" gradientUnits="userSpaceOnUse">
<stop stop-color="#827466"/>
<stop offset="1" stop-color="#E6AD74"/>
</linearGradient>
</defs>
</svg>
