<svg width="2" height="2" viewBox="0 0 2 2" fill="none" xmlns="http://www.w3.org/2000/svg">
<path d="M0.522166 0.784624C0.448094 0.858842 0.397684 0.953352 0.377303 1.05621C0.356923 1.15907 0.367486 1.26566 0.40766 1.36251C0.447835 1.45937 0.515818 1.54214 0.603018 1.60037C0.690218 1.65861 0.792722 1.68969 0.89758 1.68969C1.00244 1.68969 1.10494 1.65861 1.19214 1.60037C1.27934 1.54214 1.34732 1.45937 1.3875 1.36251C1.42767 1.26566 1.43824 1.15907 1.41786 1.05621C1.39748 0.953352 1.34707 0.858842 1.273 0.784624C1.22373 0.735261 1.16521 0.696098 1.1008 0.669378C1.03638 0.642658 0.96732 0.628906 0.89758 0.628906C0.827839 0.628906 0.758785 0.642658 0.694367 0.669378C0.629948 0.696098 0.571431 0.735261 0.522166 0.784624Z" fill="url(#paint0_linear_243_14767)"/>
<defs>
<linearGradient id="paint0_linear_243_14767" x1="0.89758" y1="10.8082" x2="0.89758" y2="-22.956" gradientUnits="userSpaceOnUse">
<stop stop-color="#827466"/>
<stop offset="1" stop-color="#E6AD74"/>
</linearGradient>
</defs>
</svg>
