<svg width="35" height="34" viewBox="0 0 35 34" fill="none" xmlns="http://www.w3.org/2000/svg">
<path d="M32.2277 17.0005C32.7164 16.7707 33.1484 16.4358 33.4928 16.0199C33.8372 15.6039 34.0856 15.117 34.2203 14.594C34.3981 13.9442 34.4003 13.2588 34.2267 12.6079C34.053 11.9569 33.7096 11.3638 33.2317 10.8889L29.9925 7.65558C29.7202 7.3829 29.3508 7.22952 28.9654 7.22915H28.7286C28.5376 7.22953 28.3484 7.19219 28.1718 7.11929C27.9952 7.04639 27.8348 6.93936 27.6996 6.80432C27.5645 6.66929 27.4574 6.50891 27.3844 6.33238C27.3113 6.15585 27.2739 5.96665 27.2741 5.77562V5.60524C27.2738 5.39151 27.2311 5.17996 27.1485 4.98284C27.0659 4.78572 26.945 4.60694 26.7928 4.45686L23.6086 1.26487C23.1334 0.788346 22.5407 0.445851 21.8906 0.272077C21.2405 0.0983032 20.556 0.0994226 19.9064 0.275322C19.3838 0.409884 18.8972 0.657924 18.4813 1.00181C18.0653 1.3457 17.7303 1.77698 17.4999 2.26502C17.2703 1.77604 16.9355 1.3438 16.5195 0.999185C16.1035 0.654569 15.6166 0.40608 15.0934 0.271471C14.4436 0.0937998 13.7584 0.0917888 13.1076 0.265644C12.4568 0.4395 11.8639 0.78299 11.3893 1.26102L8.2031 4.45012C8.0518 4.6006 7.93179 4.77956 7.85001 4.97666C7.76823 5.17376 7.72629 5.38511 7.72661 5.5985V5.76792C7.72661 5.95874 7.68896 6.14769 7.61582 6.32394C7.54268 6.50019 7.43548 6.66028 7.30037 6.79504C7.16526 6.92979 7.00489 7.03657 6.82844 7.10924C6.652 7.18192 6.46295 7.21906 6.27212 7.21856H6.03532C5.84447 7.21848 5.65549 7.25611 5.47923 7.32929C5.30297 7.40247 5.1429 7.50976 5.00823 7.64499L1.76427 10.8909C1.28632 11.3657 0.942967 11.9589 0.769282 12.6098C0.595597 13.2607 0.597803 13.9461 0.775676 14.5959C0.909872 15.1191 1.1581 15.6062 1.50258 16.0222C1.84706 16.4383 2.27927 16.773 2.76826 17.0024C2.2795 17.2322 1.84748 17.567 1.50304 17.983C1.15861 18.399 0.910243 18.8859 0.775676 19.4089C0.599213 20.0588 0.597712 20.7438 0.771325 21.3945C0.944938 22.0452 1.28749 22.6384 1.76427 23.114L4.95625 26.3031C5.10691 26.4544 5.28603 26.5744 5.48329 26.6562C5.68056 26.738 5.89205 26.7799 6.10559 26.7796H6.27116C6.46219 26.7792 6.65142 26.8165 6.828 26.8894C7.00457 26.9623 7.16502 27.0693 7.30015 27.2044C7.43527 27.3394 7.54241 27.4998 7.61543 27.6763C7.68845 27.8528 7.7259 28.042 7.72565 28.2331V28.4708C7.72624 28.8562 7.87959 29.2255 8.15208 29.4979L11.3912 32.74C11.8661 33.2168 12.459 33.5592 13.1094 33.7322C13.7597 33.9052 14.4443 33.9026 15.0934 33.7247C15.6163 33.5899 16.1031 33.3414 16.5191 32.997C16.935 32.6526 17.2699 32.2207 17.4999 31.7321C17.7299 32.2207 18.0648 32.6526 18.4807 32.997C18.8967 33.3414 19.3835 33.5899 19.9064 33.7247C20.5562 33.901 21.2411 33.9023 21.8916 33.7285C22.5421 33.5547 23.1351 33.212 23.6105 32.7352L26.8535 29.4902C26.9887 29.3554 27.096 29.1951 27.1692 29.0187C27.2424 28.8423 27.28 28.6532 27.2799 28.4622V28.2254C27.2794 28.0346 27.3166 27.8456 27.3892 27.6692C27.4619 27.4928 27.5687 27.3325 27.7035 27.1975C27.8383 27.0624 27.9984 26.9553 28.1746 26.8823C28.3508 26.8093 28.5398 26.7717 28.7306 26.7719H28.899C29.1125 26.7722 29.324 26.7303 29.5213 26.6485C29.7186 26.5667 29.8977 26.4467 30.0484 26.2954L33.2374 23.1092C33.7142 22.6336 34.0568 22.0404 34.2304 21.3897C34.404 20.739 34.4025 20.054 34.226 19.4041C34.0905 18.881 33.841 18.3944 33.4956 17.9789C33.1502 17.5634 32.7172 17.2293 32.2277 17.0005ZM17.8551 3.01488C17.9977 2.49091 18.2768 2.01417 18.6639 1.63332C19.051 1.25248 19.5323 0.981175 20.0585 0.847106C20.6078 0.697466 21.187 0.696419 21.7368 0.844071C22.2867 0.991723 22.7874 1.28277 23.1879 1.68746L26.1816 4.67825C26.3378 4.82772 26.4625 5.0069 26.5485 5.20527C26.6345 5.40364 26.6799 5.61719 26.6821 5.83338C26.6786 6.0955 26.7277 6.35567 26.8265 6.59849C26.9253 6.84131 27.0718 7.06186 27.2573 7.24709C27.4428 7.43233 27.6635 7.57848 27.9065 7.67692C28.1495 7.77535 28.4097 7.82407 28.6718 7.82018C28.8881 7.82328 29.1017 7.86939 29.3 7.95582C29.4983 8.04225 29.6774 8.16728 29.827 8.32362L32.8149 11.3135C33.2189 11.7145 33.5093 12.2156 33.6566 12.7655C33.8039 13.3154 33.8027 13.8945 33.6533 14.4438C33.5192 14.9699 33.2478 15.451 32.867 15.8379C32.4861 16.2249 32.0094 16.5038 31.4855 16.6463C31.4085 16.6674 31.3228 16.6886 31.2429 16.7059C31.0634 16.7088 30.8863 16.6639 30.7297 16.576C30.5731 16.4881 30.4426 16.3602 30.3516 16.2054C30.1829 15.9157 29.9631 15.659 29.7028 15.4478C28.7046 14.6152 27.2 14.2099 25.554 14.3071C25.6165 14.2629 25.6724 14.2186 25.7321 14.1743C27.0402 13.1231 27.6005 11.4444 27.15 9.89844L27.1384 9.84838C27.1155 9.77295 27.0636 9.70965 26.9942 9.67231C26.9248 9.63498 26.8434 9.62664 26.7678 9.64912C26.7305 9.66003 26.6957 9.67824 26.6655 9.70269C26.6353 9.72714 26.6103 9.75734 26.5918 9.79155C26.5734 9.82575 26.5619 9.86328 26.5581 9.90195C26.5543 9.94063 26.5581 9.97967 26.5695 10.0168L26.582 10.064C26.9671 11.3789 26.4858 12.8093 25.3586 13.7094C25.0676 13.9446 24.7531 14.1491 24.42 14.3197C24.1155 14.4598 23.8008 14.5766 23.4786 14.6691C22.0872 15.0488 20.7469 15.5953 19.4867 16.2968C19.4504 16.317 19.4104 16.3296 19.3691 16.3338C19.3278 16.338 19.286 16.3338 19.2464 16.3213C19.2068 16.3089 19.1701 16.2886 19.1386 16.2615C19.1071 16.2345 19.0814 16.2013 19.0632 16.164C19.0332 16.106 19.0226 16.0401 19.0328 15.9756C19.043 15.9112 19.0736 15.8518 19.1199 15.8059L19.2913 15.6336C19.855 15.0704 20.5393 14.6425 21.2925 14.3822C22.1269 14.0977 22.9196 13.7034 23.6499 13.2098C24.6982 12.4811 25.3769 11.4627 25.4654 10.4914C25.4712 10.4259 25.4741 10.3643 25.4741 10.2989C25.4785 10.0604 25.4246 9.82451 25.3172 9.61158C25.5097 9.44024 25.9717 9.08504 26.5166 9.11199C26.9517 9.12932 27.3665 9.39307 27.7516 9.89362C28.1366 10.3942 28.1568 10.965 28.1925 11.6436C28.2454 12.6409 28.308 13.7691 29.5401 14.773C30.058 15.1966 31.0052 15.5316 31.858 15.2649C32.1422 15.1776 32.4007 15.0219 32.6108 14.8115C32.8689 14.5468 33.0533 14.2193 33.146 13.8615C33.3741 13.0769 33.1113 12.2327 32.4597 11.6581C31.9062 11.1662 31.2247 11.0064 30.6798 11.2403C30.0464 11.5098 29.6912 12.046 29.7259 12.6736C29.7615 13.2569 30.1321 13.7845 30.6057 13.925C31.112 14.0761 31.4287 13.9317 31.6068 13.7864C31.7147 13.6962 31.8006 13.5828 31.8581 13.4545C31.9157 13.3263 31.9433 13.1866 31.9389 13.0461C31.9311 12.9705 31.8938 12.9009 31.835 12.8526C31.7763 12.8043 31.7008 12.7812 31.6251 12.7882C31.5477 12.7945 31.4758 12.8303 31.424 12.8882C31.3723 12.946 31.3447 13.0215 31.3469 13.0991C31.3434 13.1441 31.3306 13.1879 31.3092 13.2277C31.2878 13.2675 31.2584 13.3024 31.2227 13.3301C31.1014 13.4264 30.9118 13.3956 30.7751 13.3542C30.5441 13.2858 30.34 12.9691 30.3198 12.637C30.3073 12.4185 30.367 12.0152 30.9118 11.7813C31.24 11.6427 31.6934 11.7668 32.0669 12.1018C32.4404 12.4368 32.7715 13.025 32.5761 13.6978C32.425 14.2215 32.1228 14.5593 31.679 14.698C31.0658 14.8905 30.3256 14.6508 29.9107 14.3129C28.8836 13.4755 28.8335 12.5697 28.7825 11.6099C28.744 10.8995 28.7026 10.166 28.2204 9.53457C27.7227 8.88578 27.1567 8.54213 26.5349 8.51807C26.3203 8.51084 26.1062 8.54013 25.9015 8.6047C25.9665 8.39884 25.9945 8.18309 25.9843 7.96746C25.9612 7.34851 25.6175 6.78057 24.9687 6.2858C24.3344 5.79776 23.6028 5.75925 22.8905 5.72075C21.9279 5.66781 21.0249 5.61775 20.1865 4.5897C19.8525 4.17578 19.609 3.43458 19.8015 2.82236C19.941 2.37764 20.2828 2.07635 20.8026 1.92522C21.4764 1.7327 22.0703 2.06094 22.4015 2.43443C22.7326 2.80792 22.8577 3.26612 22.7181 3.58955C22.4842 4.13439 22.0819 4.1931 21.8624 4.18155C21.5342 4.16326 21.2146 3.95919 21.1462 3.72528C21.1048 3.58955 21.075 3.39992 21.1693 3.27863C21.1967 3.24329 21.2311 3.21401 21.2704 3.19264C21.3096 3.17127 21.3529 3.15827 21.3975 3.15446C21.4367 3.15916 21.4765 3.15597 21.5145 3.14508C21.5524 3.13418 21.5879 3.11581 21.6187 3.09103C21.6494 3.06625 21.675 3.03557 21.6937 3.00078C21.7125 2.966 21.7241 2.92782 21.7279 2.88849C21.7316 2.84915 21.7275 2.80946 21.7157 2.77174C21.704 2.73402 21.6848 2.69903 21.6593 2.66884C21.6338 2.63864 21.6025 2.61385 21.5673 2.59591C21.5321 2.57797 21.4937 2.56725 21.4543 2.56438C21.3145 2.56009 21.1755 2.58747 21.0478 2.64448C20.9202 2.70149 20.807 2.78666 20.7169 2.89359C20.5716 3.07071 20.4281 3.38837 20.5773 3.8947C20.7169 4.3683 21.2434 4.73794 21.8287 4.77355C22.4602 4.80917 22.9954 4.45397 23.2649 3.82347C23.4959 3.27863 23.3361 2.59422 22.8442 2.04073C22.3947 1.53151 21.5804 1.08391 20.6418 1.35343C19.7322 1.6143 19.377 2.20052 19.2383 2.64139C18.9717 3.49426 19.3057 4.44242 19.7293 4.9603C20.7333 6.19242 21.8643 6.25403 22.8625 6.30794C23.5364 6.34644 24.1207 6.37532 24.6097 6.74881C25.0987 7.1223 25.374 7.54873 25.3942 7.98671C25.4182 8.52577 25.0659 8.98781 24.8936 9.18033C24.6206 9.04884 24.3156 8.99839 24.0148 9.03498C23.0435 9.12065 22.0241 9.80506 21.2964 10.8495C20.8021 11.5796 20.4075 12.3724 20.123 13.2069C19.8635 13.9608 19.4355 14.6455 18.8716 15.2091L18.7003 15.3804C18.6543 15.4267 18.5948 15.457 18.5304 15.467C18.466 15.4771 18.4 15.4663 18.3422 15.4363C18.305 15.418 18.272 15.3923 18.245 15.3609C18.218 15.3295 18.1976 15.293 18.1851 15.2535C18.1726 15.214 18.1683 15.1724 18.1723 15.1312C18.1762 15.09 18.1885 15.05 18.2084 15.0137C18.9122 13.7521 19.46 12.4097 19.84 11.016C19.9311 10.6947 20.047 10.3809 20.1865 10.0775C20.3577 9.7454 20.5621 9.43158 20.7968 9.14087C21.6968 8.0127 23.1273 7.53621 24.4412 7.91837L24.4893 7.92992C24.5264 7.94183 24.5655 7.94612 24.6043 7.94252C24.6431 7.93893 24.6807 7.92753 24.715 7.909C24.7493 7.89048 24.7794 7.86522 24.8037 7.83473C24.8279 7.80425 24.8457 7.76917 24.8561 7.73162C24.8674 7.69433 24.8712 7.65519 24.8673 7.61642C24.8634 7.57766 24.852 7.54004 24.8335 7.50571C24.8151 7.47138 24.7901 7.44102 24.76 7.41636C24.7298 7.3917 24.6951 7.37322 24.6578 7.36198L24.6077 7.34947C23.0618 6.89994 21.383 7.45921 20.3319 8.76834C20.2876 8.82706 20.2423 8.88385 20.1981 8.94546C20.2943 7.29941 19.89 5.79487 19.0583 4.79762C18.8471 4.53703 18.59 4.31717 18.2998 4.14882C18.2251 4.10701 18.1564 4.0552 18.0957 3.99481C17.9041 3.79748 17.7979 3.53255 17.8002 3.25746C17.8137 3.17756 17.8349 3.09189 17.8551 3.01488ZM24.2805 17.0323C24.2418 17.1954 24.1449 17.3388 24.008 17.4356C23.623 17.761 22.8356 18.0391 21.7844 17.8495C20.9736 17.6876 20.1926 17.4012 19.4694 17.0005C20.1926 16.5994 20.9735 16.3127 21.7844 16.1505C22.0042 16.1104 22.2271 16.0895 22.4505 16.088C23.1677 16.088 23.7067 16.3132 24.008 16.5693C24.143 16.6679 24.2393 16.8106 24.2805 16.9726C24.2805 16.9841 24.2718 16.9928 24.2747 17.0053C24.2776 17.0178 24.2805 17.0207 24.2805 17.0323ZM24.3873 17.8919C24.3873 17.8919 24.3931 17.8919 24.3931 17.8851C24.8113 17.5167 25.3462 17.3081 25.9034 17.296H29.9309C29.803 17.6126 29.5934 17.8896 29.3235 18.0988C28.4976 18.7919 26.8333 19.3868 24.6337 18.9902C23.9869 18.8705 23.3493 18.7052 22.7259 18.4954C23.3833 18.4482 23.9666 18.2442 24.3873 17.8919ZM25.9034 16.704C25.347 16.6924 24.8128 16.4837 24.396 16.1149C24.396 16.1149 24.3873 16.1149 24.3873 16.1091C23.9666 15.7568 23.3775 15.5518 22.7172 15.5104C23.3431 15.2974 23.9836 15.1301 24.6337 15.0098C25.0889 14.9267 25.5504 14.8832 26.0131 14.8799C27.5292 14.8799 28.6815 15.3612 29.3235 15.9012C29.5934 16.1104 29.803 16.3874 29.9309 16.704H25.9034ZM22.6373 11.8621C22.5477 11.7821 22.4415 11.7228 22.3264 11.6886C22.2112 11.6543 22.09 11.6458 21.9712 11.6638C21.7635 11.6846 21.5621 11.7471 21.3792 11.8477C21.5021 11.6219 21.6364 11.4025 21.7815 11.1902C22.5247 10.1218 23.4488 9.68281 24.0648 9.62987C24.3536 9.60292 24.601 9.65971 24.7194 9.781C24.8378 9.90229 24.8965 10.1449 24.8705 10.4356C24.8166 11.0516 24.3786 11.9757 23.3092 12.7179C23.0973 12.8633 22.8782 12.9979 22.6527 13.1212C22.7543 12.9388 22.8166 12.7371 22.8356 12.5292C22.8403 12.4948 22.8422 12.46 22.8414 12.4253C22.8461 12.3226 22.8306 12.22 22.7956 12.1233C22.7605 12.0267 22.7067 11.9379 22.6373 11.8621ZM22.0241 12.2539C22.1493 12.2414 22.208 12.2712 22.2166 12.2828C22.2253 12.2943 22.258 12.3511 22.2465 12.4753C22.2234 12.7391 22.0309 13.1385 21.5563 13.4678C21.2346 13.685 20.8853 13.8582 20.5176 13.9827C20.6416 13.6146 20.8148 13.2648 21.0326 12.9431C21.3609 12.4686 21.7613 12.2761 22.0241 12.2539ZM18.5588 17.0005C18.5588 17.2099 18.4967 17.4146 18.3803 17.5888C18.264 17.7629 18.0986 17.8986 17.9051 17.9788C17.7116 18.0589 17.4987 18.0799 17.2933 18.039C17.0879 17.9982 16.8993 17.8973 16.7512 17.7492C16.6031 17.6011 16.5022 17.4125 16.4614 17.2071C16.4205 17.0017 16.4415 16.7888 16.5216 16.5953C16.6018 16.4018 16.7375 16.2364 16.9116 16.1201C17.0858 16.0037 17.2905 15.9416 17.4999 15.9416C17.7807 15.9416 18.05 16.0532 18.2486 16.2518C18.4472 16.4503 18.5588 16.7197 18.5588 17.0005ZM17.7954 4.56948C18.1117 4.69704 18.3884 4.90632 18.5973 5.17592C19.2903 6.00279 19.8852 7.66713 19.4886 9.86667C19.3706 10.517 19.2032 11.1573 18.9881 11.7822C18.9467 11.1219 18.7426 10.5309 18.3903 10.1121C18.3903 10.1121 18.3903 10.1064 18.3845 10.1035C18.0152 9.68701 17.8063 9.15257 17.7954 8.59604V4.56948ZM17.4999 10.2248C17.5114 10.2248 17.5211 10.219 17.5326 10.219C17.6943 10.2603 17.8365 10.3567 17.935 10.4914C18.2613 10.8764 18.5395 11.6638 18.3499 12.715C18.1891 13.5266 17.9023 14.3081 17.4999 15.031C17.0992 14.3073 16.8125 13.5261 16.6499 12.715C16.4574 11.6638 16.7385 10.8793 17.0648 10.4914C17.1618 10.3552 17.3047 10.2585 17.4672 10.219C17.4787 10.219 17.4883 10.2276 17.4999 10.2248ZM16.0108 11.7822C15.7977 11.1567 15.6304 10.5165 15.5102 9.86667C15.1136 7.66713 15.7085 6.00279 16.4016 5.17592C16.6104 4.90632 16.8871 4.69704 17.2034 4.56948V8.59604C17.1925 9.15257 16.9836 9.68701 16.6143 10.1035C16.6143 10.1035 16.6085 10.1092 16.6085 10.1121C16.2562 10.5328 16.056 11.1209 16.0108 11.7822ZM1.24928 13.8162C1.21533 13.3562 1.28139 12.8944 1.4429 12.4623C1.60441 12.0303 1.85755 11.6384 2.18492 11.3135L5.17861 8.31977C5.32796 8.16321 5.50706 8.03804 5.70541 7.95159C5.90377 7.86515 6.11738 7.81916 6.33373 7.81633C6.5958 7.82011 6.85595 7.77118 7.09874 7.67246C7.34152 7.57373 7.56199 7.42722 7.74705 7.24162C7.93211 7.05603 8.07798 6.83513 8.176 6.59206C8.27402 6.34898 8.32219 6.08869 8.31765 5.82664C8.32037 5.61027 8.36631 5.39662 8.45276 5.19826C8.53922 4.99989 8.66445 4.8208 8.82109 4.67152L11.8119 1.68746C12.2125 1.28311 12.7134 0.99242 13.2632 0.845109C13.8131 0.697799 14.3922 0.699152 14.9413 0.849031C15.4675 0.9831 15.9488 1.2544 16.3359 1.63525C16.723 2.01609 17.0021 2.49283 17.1447 3.01681C17.1649 3.09381 17.1861 3.17949 17.2034 3.25938C17.2062 3.43884 17.1615 3.61584 17.0738 3.7724C16.986 3.92897 16.8584 4.0595 16.7038 4.15075C16.4136 4.31909 16.1566 4.53896 15.9453 4.79954C15.1136 5.7968 14.7074 7.3023 14.8056 8.94739C14.7574 8.88867 14.7161 8.82899 14.6718 8.77027C13.6206 7.46113 11.9418 6.90186 10.3959 7.35139L10.3458 7.36391C10.3085 7.37514 10.2738 7.39362 10.2437 7.41828C10.2135 7.44294 10.1885 7.47331 10.1701 7.50763C10.1517 7.54196 10.1402 7.57958 10.1363 7.61835C10.1325 7.65711 10.1363 7.69626 10.1476 7.73355C10.1579 7.7711 10.1757 7.80617 10.2 7.83666C10.2242 7.86714 10.2544 7.8924 10.2886 7.91093C10.3229 7.92945 10.3605 7.94086 10.3993 7.94445C10.4381 7.94804 10.4772 7.94376 10.5143 7.93184L10.5624 7.92029C11.8764 7.53525 13.3068 8.01655 14.2068 9.14279C14.4422 9.43402 14.6467 9.74887 14.8171 10.0823C14.9545 10.3857 15.0703 10.6983 15.1637 11.0179C15.5451 12.4119 16.0946 13.7543 16.8001 15.0156C16.8199 15.052 16.8322 15.0919 16.8362 15.1332C16.8402 15.1744 16.8358 15.216 16.8233 15.2554C16.8108 15.2949 16.7905 15.3315 16.7635 15.3629C16.7365 15.3943 16.7034 15.4199 16.6663 15.4382C16.6084 15.4682 16.5425 15.479 16.4781 15.469C16.4137 15.4589 16.3542 15.4286 16.3082 15.3824L16.1397 15.211C15.575 14.6481 15.1469 13.9631 14.8884 13.2088C14.6045 12.374 14.2098 11.5812 13.7149 10.8514C12.9872 9.8041 11.9707 9.12547 10.9966 9.03691C10.6957 9.00032 10.3907 9.05076 10.1177 9.18226C9.94541 8.98974 9.5931 8.52769 9.62005 7.98575C9.63737 7.55065 9.90401 7.13577 10.4017 6.75073C10.8993 6.36569 11.474 6.34548 12.1517 6.30986C13.0546 6.25884 14.0701 6.2059 15 5.27603C15.1 5.17697 15.1942 5.07219 15.2821 4.96222C15.7056 4.44434 16.0396 3.49618 15.773 2.64332C15.6344 2.19956 15.2792 1.61622 14.3695 1.35536C13.585 1.12722 12.7408 1.39098 12.1671 2.04266C11.6752 2.59615 11.5154 3.27767 11.7493 3.8225C12.0188 4.45589 12.5541 4.81109 13.1826 4.77548C13.766 4.73986 14.2925 4.37022 14.434 3.89662C14.5851 3.3903 14.4398 3.07264 14.2944 2.89552C14.205 2.78756 14.0921 2.7015 13.9643 2.64394C13.8365 2.58637 13.6972 2.55883 13.5571 2.56342C13.4816 2.57145 13.4123 2.60888 13.3642 2.6676C13.3161 2.72633 13.2931 2.80164 13.3001 2.87723C13.3069 2.95449 13.3428 3.02629 13.4005 3.07811C13.4582 3.12993 13.5334 3.1579 13.611 3.15638C13.6562 3.15913 13.7003 3.17165 13.7401 3.19309C13.78 3.21453 13.8148 3.24437 13.842 3.28056C13.9383 3.40185 13.9065 3.59148 13.868 3.72721C13.7968 3.96112 13.4743 4.16519 13.1489 4.18348C12.9295 4.19503 12.5271 4.13631 12.2932 3.59148C12.1536 3.26227 12.2778 2.80985 12.6128 2.43636C12.9478 2.06287 13.5369 1.73174 14.2088 1.92714C14.7324 2.07827 15.0751 2.37957 15.2099 2.82429C15.4024 3.43746 15.1627 4.1777 14.8248 4.59162C13.9893 5.61968 13.0806 5.66973 12.1209 5.71979C11.4105 5.75829 10.677 5.79968 10.0455 6.28291C9.39672 6.78057 9.05596 7.34177 9.02997 7.96746C9.02236 8.18224 9.05133 8.39675 9.11564 8.60181C8.91005 8.53702 8.69472 8.50868 8.47937 8.51807C7.86041 8.54213 7.29152 8.88578 6.79674 9.53457C6.31544 10.1651 6.27309 10.8995 6.23458 11.6099C6.18068 12.5725 6.12773 13.4755 5.10353 14.3129C4.68865 14.6479 3.94841 14.8905 3.33523 14.698C2.89147 14.5593 2.58921 14.2215 2.43809 13.6978C2.24557 13.024 2.57766 12.4301 2.9473 12.098C3.31694 11.7659 3.77995 11.6427 4.10242 11.7813C4.64725 12.0152 4.70694 12.4185 4.69442 12.637C4.6771 12.9662 4.47302 13.2858 4.23911 13.3542C4.10242 13.3956 3.91279 13.4254 3.7915 13.3301C3.75646 13.3024 3.72738 13.268 3.70604 13.2288C3.6847 13.1895 3.67153 13.1464 3.66733 13.102C3.67473 13.0238 3.6508 12.946 3.60079 12.8855C3.55079 12.825 3.47881 12.7869 3.40069 12.7795C3.32257 12.7721 3.2447 12.796 3.18423 12.846C3.12375 12.896 3.08562 12.968 3.07822 13.0461C3.07332 13.1855 3.10034 13.3241 3.15724 13.4514C3.21413 13.5787 3.29938 13.6913 3.40646 13.7806C3.58454 13.9288 3.90124 14.0694 4.40757 13.9221C4.88117 13.7835 5.25177 13.256 5.28738 12.6707C5.32204 12.0431 4.96684 11.5041 4.33633 11.2345C3.7915 11.0035 3.10709 11.1633 2.5536 11.6523C2.04438 12.1086 1.59774 12.92 1.86726 13.8586C2.12717 14.7673 2.71339 15.1225 3.15522 15.262C4.00809 15.5287 4.95529 15.1937 5.47317 14.7702C5.58317 14.6816 5.68795 14.5868 5.78697 14.4862C6.71685 13.5592 6.77364 12.5437 6.82081 11.6379C6.85931 10.964 6.88915 10.3788 7.26168 9.89073C7.6342 9.4027 8.0616 9.12643 8.49669 9.10622C9.03864 9.08215 9.50068 9.43157 9.69321 9.6058C9.56214 9.87931 9.51172 10.1845 9.54785 10.4856C9.63641 11.4598 10.3179 12.4753 11.3633 13.204C12.0936 13.6977 12.8864 14.0919 13.7207 14.3765C14.4739 14.6367 15.1582 15.0646 15.722 15.6278L15.8933 15.8001C15.9397 15.846 15.9702 15.9055 15.9804 15.9699C15.9906 16.0343 15.98 16.1003 15.9501 16.1582C15.9318 16.1955 15.9062 16.2287 15.8747 16.2557C15.8432 16.2828 15.8065 16.3031 15.7669 16.3156C15.7272 16.328 15.6855 16.3322 15.6442 16.328C15.6029 16.3238 15.5629 16.3112 15.5266 16.2911C14.2648 15.5881 12.9224 15.0405 11.5289 14.6604C11.2093 14.567 10.8966 14.4512 10.5932 14.3139C10.2602 14.1433 9.94568 13.9388 9.6547 13.7036C8.52653 12.8036 8.05005 11.3731 8.43124 10.0582L8.44375 10.0111C8.45512 9.9739 8.45901 9.93485 8.45518 9.89618C8.45135 9.8575 8.43987 9.81998 8.42143 9.78577C8.40298 9.75157 8.37793 9.72136 8.34772 9.69692C8.31751 9.67247 8.28275 9.65426 8.24545 9.64335C8.16989 9.62087 8.0885 9.6292 8.01906 9.66654C7.94962 9.70387 7.89778 9.76717 7.87485 9.8426L7.8633 9.89266C7.41281 11.4386 7.97304 13.1174 9.28121 14.1685C9.34089 14.2128 9.39961 14.2542 9.45929 14.3014C7.87485 14.2051 6.42421 14.5834 5.42889 15.3554L5.43755 15.341C5.41798 15.3597 5.39742 15.3774 5.37594 15.3939C5.35477 15.4122 5.33166 15.4266 5.31049 15.442C5.23637 15.5037 5.16513 15.5691 5.10064 15.6346C4.30649 16.2323 3.51042 16.1698 2.87992 15.9233C1.55731 15.2649 1.30222 14.2013 1.24928 13.8162ZM12.1642 12.5283C12.1846 12.7359 12.2468 12.9373 12.3471 13.1203C12.1216 12.997 11.9025 12.8624 11.6906 12.7169C10.624 11.9738 10.1832 11.0507 10.1293 10.4346C10.1236 10.3893 10.1207 10.3436 10.1206 10.2979C10.1206 10.0698 10.1774 9.88015 10.2804 9.78004C10.3834 9.67993 10.5692 9.62313 10.7963 9.62313C10.8406 9.62313 10.8878 9.62313 10.935 9.62891C11.551 9.68185 12.4751 10.1208 13.2182 11.1893C13.3634 11.4015 13.4977 11.6209 13.6206 11.8467C13.4382 11.7449 13.2366 11.6823 13.0286 11.6629C12.9095 11.6376 12.786 11.6425 12.6693 11.6771C12.5526 11.7117 12.4464 11.7749 12.3604 11.861C12.2743 11.947 12.2111 12.0532 12.1765 12.1699C12.1419 12.2867 12.137 12.4101 12.1623 12.5292L12.1642 12.5283ZM12.7832 12.2818C12.7918 12.2703 12.8505 12.2404 12.9757 12.253C13.2385 12.2761 13.6389 12.4686 13.9672 12.9422C14.1849 13.2639 14.3582 13.6136 14.4821 13.9818C14.1145 13.8572 13.7652 13.684 13.4435 13.4668C12.9689 13.1376 12.7764 12.7381 12.7533 12.4744C12.752 12.4577 12.752 12.441 12.7533 12.4243C12.7465 12.3751 12.7571 12.3251 12.7832 12.2828V12.2818ZM9.09639 17.2951C9.6528 17.3066 10.187 17.5154 10.6038 17.8842C10.6038 17.8842 10.6125 17.8842 10.6125 17.8909C11.0331 18.2432 11.6223 18.4473 12.2826 18.4887C11.6572 18.7034 11.0166 18.8707 10.3661 18.9892C8.16652 19.3858 6.50218 18.7909 5.67627 18.0979C5.40639 17.8887 5.1968 17.6117 5.06887 17.2951H9.09639ZM5.06887 16.704C5.1968 16.3874 5.40639 16.1104 5.67627 15.9012C6.50218 15.2091 8.16652 14.6132 10.3661 15.0098C11.0162 15.1301 11.6567 15.2974 12.2826 15.5104C11.6223 15.5518 11.0312 15.7568 10.6125 16.1091C10.611 16.1091 10.6095 16.1097 10.6084 16.1108C10.6073 16.1119 10.6067 16.1134 10.6067 16.1149C10.1885 16.4833 9.65356 16.692 9.09639 16.704H5.06887ZM10.9918 17.4356C10.8566 17.3371 10.7603 17.1944 10.7193 17.0323C10.7193 17.0207 10.728 17.012 10.7251 17.0005C10.7222 16.9889 10.7193 16.9793 10.7193 16.9678C10.7582 16.8047 10.855 16.6614 10.9918 16.5644C11.3768 16.2391 12.1642 15.9609 13.2154 16.1505C14.0246 16.3131 14.8039 16.5999 15.5256 17.0005C14.8047 17.4026 14.0251 17.6891 13.2154 17.8495C12.1642 18.0391 11.3797 17.7629 10.9918 17.4356ZM17.1447 30.9851C17.0022 31.5092 16.7231 31.986 16.336 32.3668C15.9488 32.7477 15.4676 33.0189 14.9413 33.1529C14.3922 33.3028 13.8132 33.3043 13.2634 33.1571C12.7136 33.01 12.2127 32.7196 11.8119 32.3155L8.82109 29.3247C8.665 29.1749 8.54014 28.9958 8.45373 28.7975C8.36732 28.5992 8.32107 28.3858 8.31765 28.1695C8.32087 27.908 8.27178 27.6484 8.17326 27.4061C8.07473 27.1638 7.92876 26.9436 7.74393 26.7585C7.5591 26.5734 7.33914 26.4271 7.09696 26.3282C6.85479 26.2294 6.5953 26.1799 6.33373 26.1827C6.11756 26.1804 5.90402 26.135 5.70566 26.049C5.5073 25.9631 5.32811 25.8383 5.17861 25.6822L2.18492 22.6885C1.78083 22.2875 1.49033 21.7864 1.34304 21.2365C1.19575 20.6866 1.19694 20.1074 1.3465 19.5581C1.48063 19.032 1.75197 18.551 2.13281 18.164C2.51366 17.7771 2.99037 17.4982 3.51427 17.3557C3.59128 17.3345 3.67695 17.3143 3.75685 17.296C4.03212 17.2937 4.29715 17.4003 4.4942 17.5925C4.55503 17.6528 4.60689 17.7215 4.64822 17.7966C4.81688 18.0865 5.03669 18.3435 5.29701 18.5551C6.29523 19.3868 7.79977 19.792 9.44582 19.6948C9.38325 19.7391 9.32742 19.7834 9.26774 19.8277C7.95956 20.8788 7.39933 22.5586 7.84983 24.1035L7.86138 24.1545C7.88428 24.2299 7.93617 24.2932 8.00566 24.3304C8.07514 24.3675 8.15654 24.3756 8.23198 24.3528C8.26964 24.3425 8.30482 24.3247 8.33538 24.3003C8.36594 24.276 8.39126 24.2458 8.4098 24.2114C8.42833 24.177 8.4397 24.1393 8.44322 24.1004C8.44674 24.0615 8.44234 24.0223 8.43027 23.9851L8.41776 23.938C8.03272 22.623 8.51402 21.1926 9.64123 20.2926C9.93123 20.0577 10.2448 19.8535 10.5769 19.6833C10.88 19.5429 11.1938 19.427 11.5154 19.3367C12.9092 18.9549 14.2516 18.4054 15.5131 17.7003C15.5494 17.6803 15.5894 17.6678 15.6307 17.6637C15.672 17.6595 15.7137 17.6638 15.7532 17.6762C15.7928 17.6886 15.8295 17.7089 15.861 17.7359C15.8925 17.7629 15.9182 17.796 15.9366 17.8331C15.9665 17.8911 15.9772 17.9571 15.967 18.0215C15.9567 18.0859 15.9262 18.1454 15.8798 18.1912L15.7085 18.3607C15.1454 18.9247 14.4609 19.3527 13.7072 19.612C12.8724 19.8953 12.0795 20.2897 11.3498 20.7845C10.3016 21.5132 9.62294 22.5287 9.53438 23.5C9.4979 23.802 9.54833 24.1083 9.67973 24.3827C9.48721 24.554 9.02516 24.9063 8.48322 24.8803C8.04812 24.8621 7.63324 24.5983 7.2482 24.0987C6.86316 23.5991 6.84295 23.0264 6.80733 22.3477C6.75439 21.3505 6.69182 20.2223 5.45969 19.2183C4.94181 18.7948 3.99461 18.4598 3.14175 18.7264C2.69703 18.866 2.11369 19.2212 1.85379 20.1299C1.62565 20.9154 1.88844 21.7586 2.54012 22.3333C3.09362 22.8252 3.77514 22.985 4.31997 22.7511C4.95336 22.4815 5.30856 21.9454 5.27391 21.3178C5.23829 20.7344 4.86769 20.2069 4.39409 20.0664C3.88776 19.9153 3.57107 20.0606 3.39299 20.205C3.28629 20.2954 3.20118 20.4086 3.14388 20.5362C3.08658 20.6637 3.05856 20.8025 3.06185 20.9423C3.06964 21.018 3.10697 21.0875 3.16572 21.1358C3.22448 21.1841 3.29992 21.2073 3.37566 21.2003C3.45284 21.1935 3.52453 21.1576 3.57619 21.0998C3.62785 21.0421 3.65562 20.9669 3.65385 20.8894C3.65703 20.8443 3.66974 20.8004 3.69115 20.7606C3.71255 20.7207 3.74216 20.6859 3.77803 20.6584C3.89931 20.5621 4.08895 20.5929 4.22564 20.6343C4.45955 20.7027 4.66073 21.0194 4.68095 21.3515C4.69346 21.5709 4.63378 21.9733 4.08895 22.2072C3.7607 22.3458 3.30731 22.2216 2.93383 21.8876C2.56034 21.5536 2.2292 20.9635 2.42461 20.2916C2.57574 19.767 2.87799 19.4253 3.32175 19.2905C3.93493 19.098 4.67517 19.3377 5.09005 19.6756C6.11715 20.513 6.1672 21.4198 6.21822 22.3785C6.25672 23.0899 6.29811 23.8224 6.78038 24.4549C7.27804 25.1027 7.84405 25.4435 8.46589 25.4704C8.68033 25.4775 8.89443 25.4485 9.09928 25.3847C9.03429 25.5903 9.00626 25.8057 9.0165 26.021C9.0396 26.64 9.38325 27.2089 10.032 27.7027C10.6625 28.1888 11.397 28.2273 12.1074 28.2658C13.07 28.3187 13.9729 28.3688 14.8114 29.3969C15.1454 29.8117 15.3889 30.552 15.1964 31.1642C15.0568 31.6089 14.7151 31.9112 14.1953 32.0613C13.5215 32.2539 12.9275 31.9256 12.5964 31.5521C12.2653 31.1786 12.1401 30.7204 12.2797 30.397C12.5136 29.8522 12.916 29.7925 13.1355 29.804C13.4637 29.8223 13.7833 30.0264 13.8516 30.2603C13.893 30.397 13.9229 30.5857 13.8285 30.7079C13.8005 30.7426 13.766 30.7714 13.7268 30.7927C13.6877 30.814 13.6447 30.8274 13.6004 30.8321C13.5223 30.8246 13.4444 30.8484 13.3838 30.8983C13.3232 30.9482 13.285 31.0201 13.2774 31.0983C13.2699 31.1764 13.2937 31.2543 13.3436 31.3149C13.3936 31.3754 13.4655 31.4137 13.5436 31.4212C13.6834 31.4258 13.8225 31.3985 13.9502 31.3415C14.0779 31.2845 14.191 31.1992 14.281 31.092C14.4263 30.9149 14.5697 30.5982 14.4205 30.0919C14.281 29.6106 13.7544 29.2477 13.1692 29.212C12.5377 29.1764 12.0025 29.5316 11.733 30.1631C11.5019 30.7079 11.6617 31.3914 12.1536 31.9449C12.7312 32.5965 13.5715 32.8574 14.356 32.6322C14.7136 32.5375 15.041 32.3529 15.3071 32.096C15.5154 31.8849 15.6705 31.6272 15.7595 31.3442C16.0262 30.4913 15.6921 29.5441 15.2686 29.0253C14.2646 27.7941 13.1335 27.7316 12.1353 27.6777C11.4615 27.6392 10.8772 27.6093 10.3882 27.2358C9.8992 26.8623 9.6239 26.4369 9.60368 26.0008C9.57962 25.4598 9.93193 24.9978 10.1042 24.8053C10.3789 24.9348 10.6843 24.9849 10.986 24.9496C11.9572 24.8611 12.9737 24.1796 13.7015 23.1351C14.1963 22.4054 14.591 21.6125 14.8749 20.7777C15.1346 20.0243 15.5625 19.3399 16.1263 18.7765L16.2947 18.6042C16.3407 18.558 16.4002 18.5276 16.4646 18.5176C16.529 18.5075 16.595 18.5183 16.6528 18.5484C16.69 18.5668 16.7231 18.5925 16.7501 18.624C16.777 18.6555 16.7974 18.6921 16.8099 18.7316C16.8224 18.7712 16.8268 18.8129 16.8228 18.8541C16.8188 18.8954 16.8065 18.9355 16.7866 18.9719C16.0847 20.2316 15.5378 21.5717 15.1579 22.9628C15.0652 23.2853 14.9484 23.6003 14.8085 23.9052C14.6378 24.2382 14.4333 24.5527 14.1982 24.8438C13.2981 25.9719 11.8677 26.4484 10.5538 26.0663L10.5056 26.0547C10.4686 26.0428 10.4294 26.0385 10.3907 26.0421C10.3519 26.0457 10.3142 26.0571 10.28 26.0756C10.2457 26.0942 10.2155 26.1194 10.1913 26.1499C10.1671 26.1804 10.1492 26.2155 10.1389 26.253C10.1164 26.3284 10.1246 26.4097 10.1617 26.4791C10.1989 26.5486 10.2619 26.6005 10.3372 26.6236L10.3872 26.6352C11.9332 27.0847 13.612 26.5254 14.6631 25.2163C14.7074 25.1576 14.7526 25.1008 14.7969 25.0392C14.7007 26.6852 15.1049 28.1898 15.9366 29.188C16.1482 29.448 16.4052 29.6675 16.6952 29.8358C16.8497 29.9271 16.9773 30.0576 17.0651 30.2142C17.1528 30.3707 17.1976 30.5477 17.1947 30.7272C17.1861 30.8225 17.1649 30.9081 17.1447 30.9851ZM12.3625 22.1379C12.4518 22.2183 12.558 22.2779 12.6732 22.3122C12.7884 22.3465 12.9098 22.3547 13.0286 22.3362C13.2372 22.3151 13.4394 22.2526 13.6235 22.1523C13.4998 22.3783 13.3645 22.5977 13.2182 22.8098C12.4751 23.8754 11.551 24.3172 10.935 24.3702C10.6462 24.3971 10.3988 24.3403 10.2804 24.219C10.1774 24.1228 10.1206 23.9303 10.1206 23.7012C10.1207 23.6555 10.1236 23.6098 10.1293 23.5645C10.1832 22.9494 10.624 22.0243 11.6906 21.2821C11.9062 21.131 12.1257 21.0011 12.3471 20.8759C12.2472 21.0604 12.185 21.263 12.1642 21.4718C12.1464 21.5906 12.1549 21.7118 12.1892 21.8269C12.2235 21.942 12.2826 22.0482 12.3625 22.1379ZM12.9757 21.7471C12.91 21.7602 12.8418 21.7497 12.7832 21.7172C12.7735 21.7115 12.7504 21.6672 12.7504 21.5748C12.7491 21.5581 12.7491 21.5414 12.7504 21.5247C12.7735 21.261 12.966 20.8615 13.4406 20.5332C13.7621 20.3154 14.1114 20.1419 14.4793 20.0173C14.3553 20.3855 14.1821 20.7352 13.9643 21.0569C13.6389 21.5305 13.2385 21.723 12.9757 21.7471ZM17.2034 29.4306C16.887 29.3033 16.6102 29.094 16.4016 28.8241C15.8635 28.1811 15.3822 27.0298 15.3822 25.5137C15.3859 25.0507 15.4297 24.5888 15.5131 24.1334C15.6333 23.4836 15.8006 22.8433 16.0136 22.2178C16.055 22.8781 16.2591 23.4692 16.6114 23.8879C16.6114 23.8879 16.6114 23.8937 16.6172 23.8937C16.9861 24.3115 17.1949 24.8467 17.2063 25.404L17.2034 29.4306ZM17.4999 23.7753C17.4883 23.7753 17.4787 23.7811 17.4672 23.7811C17.3053 23.7401 17.163 23.6437 17.0648 23.5086C16.8126 23.2064 16.5883 22.6673 16.5883 21.9512C16.5895 21.7277 16.6101 21.5049 16.6499 21.285C16.8125 20.4739 17.0992 19.6927 17.4999 18.969C17.9006 19.6927 18.1873 20.4739 18.3499 21.285C18.5424 22.3362 18.2613 23.1207 17.935 23.5086C17.8383 23.6452 17.6953 23.7419 17.5326 23.7811C17.5211 23.7811 17.5114 23.7724 17.4999 23.7753ZM18.9948 22.2265C19.2049 22.8495 19.3703 23.4868 19.4896 24.1334C19.8862 26.3339 19.2913 27.9982 18.5982 28.8241C18.3896 29.094 18.1128 29.3033 17.7964 29.4306V25.404C17.8078 24.8467 18.0165 24.3115 18.3855 23.8937C18.387 23.8937 18.3885 23.8931 18.3896 23.892C18.3907 23.8909 18.3913 23.8894 18.3913 23.8879C18.7407 23.4672 18.9438 22.8839 18.9948 22.2265ZM32.8149 22.6885L29.8212 25.6793C29.6718 25.8359 29.4927 25.961 29.2944 26.0475C29.096 26.1339 28.8824 26.1799 28.6661 26.1827C28.4041 26.1788 28.144 26.2276 27.9012 26.326C27.6583 26.4245 27.4378 26.5707 27.2525 26.756C27.0672 26.9413 26.921 27.1618 26.8226 27.4046C26.7241 27.6475 26.6754 27.9076 26.6792 28.1695C26.6763 28.3859 26.6303 28.5995 26.5438 28.7978C26.4574 28.9961 26.3323 29.1752 26.1758 29.3247L26.1344 29.3689L23.1821 32.3184C22.7813 32.7224 22.2804 33.0129 21.7306 33.16C21.1808 33.3072 20.6018 33.3057 20.0527 33.1558C19.5264 33.0218 19.0452 32.7506 18.658 32.3697C18.2709 31.9888 17.9919 31.5121 17.8493 30.988C17.8291 30.911 17.8079 30.8254 17.7906 30.7455C17.7882 30.4704 17.8944 30.2054 18.0861 30.0081C18.1471 29.948 18.2157 29.8962 18.2902 29.8541C18.5801 29.6858 18.8371 29.4663 19.0487 29.2063C19.8005 28.3053 20.2038 26.9923 20.2038 25.5339C20.2038 25.377 20.1981 25.2173 20.1884 25.0575C20.2366 25.1162 20.278 25.1759 20.3222 25.2346C21.3734 26.5437 23.0522 27.103 24.5981 26.6534L24.6482 26.6419C24.7098 26.6226 24.7636 26.5842 24.802 26.5323C24.8404 26.4804 24.8614 26.4177 24.8619 26.3531C24.861 26.324 24.8558 26.2951 24.8465 26.2674C24.8361 26.2299 24.8183 26.1948 24.794 26.1643C24.7698 26.1339 24.7396 26.1086 24.7054 26.0901C24.6711 26.0715 24.6335 26.0601 24.5947 26.0565C24.5559 26.053 24.5168 26.0572 24.4797 26.0692L24.4316 26.0807C23.1176 26.4657 21.6872 25.9844 20.7872 24.8582C20.5552 24.568 20.3537 24.2548 20.1855 23.9235C20.0435 23.6175 19.9267 23.3004 19.8361 22.9754C19.4553 21.5841 18.9075 20.244 18.2045 18.9844C18.1847 18.948 18.1724 18.9079 18.1684 18.8667C18.1644 18.8254 18.1687 18.7837 18.1812 18.7442C18.1937 18.7046 18.2141 18.668 18.2411 18.6365C18.2681 18.605 18.3011 18.5793 18.3383 18.5609C18.3962 18.5308 18.4621 18.5201 18.5265 18.5301C18.5909 18.5401 18.6504 18.5705 18.6964 18.6167L18.8677 18.789C19.4317 19.3522 19.8596 20.0367 20.1191 20.7903C20.4042 21.6245 20.7988 22.4172 21.2925 23.1477C22.0203 24.1959 23.0368 24.8736 24.0109 24.9622C24.3116 24.9971 24.6161 24.9471 24.8898 24.8178C25.0621 25.0103 25.4144 25.4723 25.3874 26.0133C25.3701 26.4494 25.1064 26.8633 24.6058 27.2483C24.1053 27.6334 23.5335 27.6546 22.8558 27.6902C21.8576 27.7431 20.7294 27.8086 19.7254 29.0378C19.3019 29.5567 18.9679 30.5039 19.2345 31.3567C19.3731 31.8005 19.7283 32.3838 20.638 32.6447C21.0079 32.7465 21.3985 32.7466 21.7685 32.6449C22.1385 32.5433 22.4743 32.3437 22.7403 32.0671C22.7759 32.0315 22.8086 31.9959 22.8366 31.9574C23.3284 31.4039 23.4882 30.7233 23.2543 30.1785C22.9848 29.5441 22.4496 29.1889 21.821 29.2246C21.2377 29.2602 20.7111 29.6298 20.5696 30.1044C20.4185 30.6107 20.5639 30.9274 20.7092 31.1045C20.8001 31.2129 20.9148 31.2989 21.0444 31.3556C21.1739 31.4124 21.3149 31.4385 21.4562 31.4318C21.5317 31.4238 21.601 31.3863 21.6491 31.3276C21.6972 31.2689 21.7202 31.1936 21.7132 31.118C21.7068 31.0409 21.6709 30.9692 21.613 30.9179C21.5551 30.8667 21.4796 30.8397 21.4023 30.8427C21.3573 30.8378 21.3137 30.824 21.2741 30.8022C21.2344 30.7804 21.1995 30.751 21.1713 30.7156C21.075 30.5934 21.1068 30.4047 21.1481 30.268C21.2136 30.0341 21.5332 29.8329 21.8643 29.8117C22.0838 29.8002 22.4862 29.8599 22.7201 30.4047C22.8597 30.7329 22.7355 31.1863 22.4005 31.5598C22.0655 31.9333 21.4764 32.2644 20.8045 32.069C20.2808 31.9189 19.943 31.6166 19.8034 31.1719C19.6109 30.5597 19.8506 29.8194 20.1884 29.4046C21.0269 28.3736 21.9327 28.3264 22.8924 28.2764C23.6028 28.2379 24.3363 28.1965 24.9677 27.7133C25.6165 27.2166 25.9602 26.6544 25.9833 26.0287C25.9909 25.8143 25.9619 25.6001 25.8976 25.3953C26.1034 25.4593 26.3186 25.4873 26.5339 25.4781C27.1529 25.4541 27.7217 25.1104 28.2165 24.4626C28.6978 23.8321 28.7402 23.0976 28.7787 22.3862C28.8326 21.4236 28.8826 20.5207 29.9097 19.6833C30.3246 19.3483 31.0649 19.1057 31.678 19.2982C32.1218 19.4368 32.424 19.7747 32.5752 20.2993C32.7677 20.9731 32.4385 21.5632 32.066 21.8982C31.6934 22.2332 31.2333 22.3535 30.9108 22.2149C30.366 21.981 30.3063 21.5786 30.3188 21.3592C30.3362 21.0299 30.5402 20.7104 30.7742 20.642C30.9108 20.6006 31.1005 20.5717 31.2218 20.6661C31.2568 20.6937 31.2859 20.7282 31.3072 20.7674C31.3286 20.8066 31.3417 20.8498 31.3459 20.8942C31.3389 20.9726 31.3629 21.0505 31.4128 21.1114C31.4626 21.1722 31.5344 21.2111 31.6126 21.2196C31.6515 21.2231 31.6907 21.219 31.728 21.2074C31.7652 21.1957 31.7999 21.1769 31.8298 21.1518C31.8598 21.1268 31.8845 21.0961 31.9026 21.0614C31.9206 21.0268 31.9317 20.989 31.935 20.95C31.9396 20.8103 31.9124 20.6714 31.8556 20.5437C31.7987 20.416 31.7137 20.3028 31.6068 20.2127C31.4287 20.0683 31.112 19.9239 30.6057 20.0741C30.1321 20.2127 29.7615 20.7402 29.7259 21.3255C29.6912 21.956 30.0464 22.4921 30.6769 22.7617C31.2218 22.9927 31.9062 22.8329 32.4597 22.341C32.4982 22.3083 32.5338 22.2755 32.5694 22.2447C32.8458 21.9785 33.0454 21.6426 33.147 21.2724C33.2487 20.9023 33.2486 20.5116 33.147 20.1415C32.8871 19.2328 32.3008 18.8776 31.859 18.738C31.0061 18.4714 30.0589 18.8063 29.5411 19.2299C28.3118 20.2368 28.2464 21.3649 28.1934 22.3631C28.1549 23.037 28.1251 23.6213 27.7526 24.1103C27.38 24.5993 26.9526 24.8736 26.5175 24.8948C25.9727 24.9179 25.5107 24.5627 25.3181 24.3913C25.4256 24.1784 25.4794 23.9425 25.475 23.704C25.475 23.6415 25.475 23.577 25.4664 23.5115C25.3778 22.5374 24.6963 21.5218 23.6509 20.7931C22.9212 20.2984 22.1283 19.904 21.2935 19.6207C20.5399 19.3614 19.8554 18.9334 19.2923 18.3693L19.1209 18.1999C19.0745 18.154 19.044 18.0946 19.0338 18.0302C19.0236 17.9658 19.0342 17.8998 19.0641 17.8418C19.0825 17.8046 19.1082 17.7715 19.1397 17.7446C19.1713 17.7176 19.2079 17.6973 19.2475 17.6849C19.2871 17.6725 19.3288 17.6682 19.37 17.6723C19.4113 17.6765 19.4513 17.6889 19.4877 17.709C20.7484 18.4136 22.0897 18.963 23.4825 19.3454C23.8076 19.4328 24.1247 19.5475 24.4306 19.6881C24.7619 19.857 25.0746 20.0602 25.3634 20.2945C26.4915 21.1945 26.968 22.625 26.5868 23.9399L26.5743 23.9871C26.5623 24.0242 26.5579 24.0634 26.5614 24.1023C26.5649 24.1412 26.5763 24.179 26.5948 24.2133C26.6133 24.2477 26.6387 24.278 26.6692 24.3023C26.6998 24.3266 26.735 24.3444 26.7726 24.3548C26.8099 24.3673 26.8494 24.372 26.8887 24.3688C26.9279 24.3655 26.966 24.3542 27.0007 24.3356C27.0354 24.317 27.066 24.2916 27.0905 24.2608C27.115 24.23 27.1329 24.1945 27.1432 24.1565L27.1548 24.1055C27.6053 22.5605 27.045 20.8807 25.7369 19.8296C25.6772 19.7853 25.6185 19.7439 25.5588 19.6967C25.7186 19.7054 25.8784 19.7141 26.0353 19.7112C27.4955 19.7112 28.8076 19.3088 29.7076 18.5561C29.9679 18.3445 30.1877 18.0875 30.3564 17.7975C30.3977 17.7225 30.4496 17.6538 30.5104 17.5935C30.7075 17.4012 30.9725 17.2947 31.2478 17.297C31.3276 17.3153 31.4133 17.3355 31.4903 17.3567C32.0142 17.4991 32.4909 17.778 32.8718 18.165C33.2526 18.5519 33.524 19.033 33.6581 19.5591C33.8069 20.1087 33.8072 20.6879 33.6591 21.2377C33.5109 21.7874 33.2196 22.2881 32.8149 22.6885ZM22.8356 21.4718C22.8148 21.263 22.7526 21.0604 22.6527 20.8759C22.8741 21.0011 23.0936 21.131 23.3092 21.2821C24.3786 22.0253 24.8166 22.9494 24.8705 23.5645C24.8965 23.8532 24.8407 24.1006 24.7194 24.219C24.6231 24.3201 24.4306 24.3759 24.2034 24.3759C24.1592 24.3759 24.112 24.3759 24.0648 24.3702C23.4488 24.3172 22.5247 23.8754 21.7815 22.8098C21.6362 22.5977 21.5019 22.3783 21.3792 22.1523C21.5621 22.2529 21.7635 22.3155 21.9712 22.3362C22.09 22.3547 22.2114 22.3465 22.3266 22.3122C22.4418 22.2779 22.5479 22.2183 22.6373 22.1379C22.7067 22.0621 22.7605 21.9734 22.7956 21.8767C22.8306 21.7801 22.8461 21.6775 22.8414 21.5748C22.8422 21.5403 22.8403 21.5059 22.8356 21.4718ZM22.2166 21.7172C22.158 21.7497 22.0898 21.7602 22.0241 21.7471C21.7613 21.723 21.3609 21.5305 21.0326 21.0569C20.8148 20.7352 20.6416 20.3855 20.5176 20.0173C20.8855 20.1419 21.2348 20.3154 21.5563 20.5332C22.0309 20.8615 22.2234 21.2581 22.2465 21.5247C22.258 21.6489 22.2291 21.7095 22.2166 21.7172Z" fill="url(#paint0_linear_243_14762)"/>
<defs>
<linearGradient id="paint0_linear_243_14762" x1="17.4999" y1="33.8085" x2="17.4999" y2="0.0442967" gradientUnits="userSpaceOnUse">
<stop stop-color="#827466"/>
<stop offset="1" stop-color="#E6AD74"/>
</linearGradient>
</defs>
</svg>
