<svg width="2" height="4" viewBox="0 0 2 4" fill="none" xmlns="http://www.w3.org/2000/svg">
<path d="M0.628988 3.27934C0.767603 2.97515 1.11895 2.33214 1.70036 2.03662C1.70758 2.03348 1.71371 2.02829 1.71803 2.02171C1.72234 2.01513 1.72463 2.00743 1.72463 1.99956C1.72463 1.99169 1.72234 1.98399 1.71803 1.97741C1.71371 1.97083 1.70758 1.96564 1.70036 1.9625C1.1228 1.66698 0.767603 1.02396 0.628988 0.719782C0.624658 0.711126 0.617611 0.704127 0.608926 0.699856C0.60024 0.695586 0.590395 0.694278 0.580896 0.696134C0.571397 0.697991 0.562767 0.702909 0.556328 0.710135C0.549889 0.717361 0.545996 0.726497 0.545242 0.736146C0.515402 1.1568 0.5 1.58035 0.5 2.00004C0.5 2.41973 0.515402 2.84232 0.545242 3.26297C0.545996 3.27262 0.549889 3.28176 0.556328 3.28898C0.562767 3.29621 0.571397 3.30113 0.580896 3.30298C0.590395 3.30484 0.60024 3.30353 0.608926 3.29926C0.617611 3.29499 0.624658 3.28799 0.628988 3.27934Z" fill="url(#paint0_linear_243_14773)"/>
<defs>
<linearGradient id="paint0_linear_243_14773" x1="1.11221" y1="-15.1862" x2="1.11221" y2="18.8869" gradientUnits="userSpaceOnUse">
<stop stop-color="#827466"/>
<stop offset="1" stop-color="#E6AD74"/>
</linearGradient>
</defs>
</svg>
