<svg width="2" height="4" viewBox="0 0 2 4" fill="none" xmlns="http://www.w3.org/2000/svg">
<path d="M1.36908 0.719782C1.23047 1.02396 0.879119 1.66698 0.297708 1.9625C0.290495 1.96564 0.284356 1.97083 0.280044 1.97741C0.275733 1.98399 0.273438 1.99169 0.273438 1.99956C0.273438 2.00743 0.275733 2.01513 0.280044 2.02171C0.284356 2.02829 0.290495 2.03348 0.297708 2.03662C0.875268 2.33214 1.23047 2.97515 1.36908 3.27934C1.37341 3.28799 1.38046 3.29499 1.38914 3.29926C1.39783 3.30353 1.40768 3.30484 1.41717 3.30298C1.42667 3.30113 1.4353 3.29621 1.44174 3.28898C1.44818 3.28176 1.45208 3.27262 1.45283 3.26297C1.48267 2.84232 1.49807 2.41877 1.49807 2.00004C1.49807 1.58131 1.48267 1.1568 1.45283 0.736146C1.45208 0.726497 1.44818 0.717361 1.44174 0.710135C1.4353 0.702909 1.42667 0.697991 1.41717 0.696134C1.40768 0.694278 1.39783 0.695586 1.38914 0.699856C1.38046 0.704127 1.37341 0.711126 1.36908 0.719782Z" fill="url(#paint0_linear_299_28284)"/>
<defs>
<linearGradient id="paint0_linear_299_28284" x1="0.885858" y1="-15.1265" x2="0.885858" y2="19.0429" gradientUnits="userSpaceOnUse">
<stop stop-color="#827466"/>
<stop offset="1" stop-color="#E6AD74"/>
</linearGradient>
</defs>
</svg>
