<svg width="2" height="2" viewBox="0 0 2 2" fill="none" xmlns="http://www.w3.org/2000/svg">
<path d="M0.283887 1.02486C0.209815 1.09908 0.159402 1.19358 0.139021 1.29644C0.118641 1.3993 0.129207 1.50589 0.169381 1.60275C0.209556 1.6996 0.277539 1.78238 0.364739 1.84061C0.451939 1.89884 0.554443 1.92992 0.6593 1.92992C0.764158 1.92992 0.866662 1.89884 0.953862 1.84061C1.04106 1.78238 1.10904 1.6996 1.14922 1.60275C1.18939 1.50589 1.19996 1.3993 1.17958 1.29644C1.1592 1.19358 1.10879 1.09908 1.03471 1.02486C0.985449 0.975496 0.926932 0.936332 0.862513 0.909612C0.798095 0.882892 0.729041 0.869141 0.6593 0.869141C0.58956 0.869141 0.520503 0.882892 0.456085 0.909612C0.391666 0.936332 0.333152 0.975496 0.283887 1.02486Z" fill="url(#paint0_linear_243_14768)"/>
<defs>
<linearGradient id="paint0_linear_243_14768" x1="0.659299" y1="5.80801" x2="0.659299" y2="-27.9561" gradientUnits="userSpaceOnUse">
<stop stop-color="#827466"/>
<stop offset="1" stop-color="#E6AD74"/>
</linearGradient>
</defs>
</svg>
