<svg width="2" height="2" viewBox="0 0 2 2" fill="none" xmlns="http://www.w3.org/2000/svg">
<path d="M0.726268 0.784624C0.652196 0.858842 0.601785 0.953352 0.581404 1.05621C0.561024 1.15907 0.571588 1.26566 0.611763 1.36251C0.651938 1.45937 0.71992 1.54214 0.80712 1.60037C0.89432 1.65861 0.996824 1.68969 1.10168 1.68969C1.20654 1.68969 1.30904 1.65861 1.39624 1.60037C1.48344 1.54214 1.55143 1.45937 1.5916 1.36251C1.63178 1.26566 1.64234 1.15907 1.62196 1.05621C1.60158 0.953352 1.55117 0.858842 1.4771 0.784624C1.42783 0.735261 1.36931 0.696098 1.3049 0.669378C1.24048 0.642658 1.17142 0.628906 1.10168 0.628906C1.03194 0.628906 0.962886 0.642658 0.898468 0.669378C0.834049 0.696098 0.775533 0.735261 0.726268 0.784624Z" fill="url(#paint0_linear_243_14770)"/>
<defs>
<linearGradient id="paint0_linear_243_14770" x1="1.10168" y1="10.8082" x2="1.10168" y2="-22.956" gradientUnits="userSpaceOnUse">
<stop stop-color="#827466"/>
<stop offset="1" stop-color="#E6AD74"/>
</linearGradient>
</defs>
</svg>
