<svg width="2" height="2" viewBox="0 0 2 2" fill="none" xmlns="http://www.w3.org/2000/svg">
<path d="M1.273 1.21464C1.34707 1.14042 1.39748 1.04591 1.41786 0.943053C1.43824 0.840195 1.42767 0.733605 1.3875 0.63675C1.34732 0.539894 1.27934 0.45712 1.19214 0.398886C1.10494 0.340652 1.00244 0.30957 0.89758 0.30957C0.792722 0.30957 0.690218 0.340652 0.603018 0.398886C0.515818 0.45712 0.447835 0.539894 0.40766 0.63675C0.367486 0.733605 0.356923 0.840195 0.377303 0.943053C0.397684 1.04591 0.448094 1.14042 0.522166 1.21464C0.571431 1.264 0.629948 1.30316 0.694367 1.32988C0.758785 1.3566 0.827839 1.37036 0.89758 1.37036C0.96732 1.37036 1.03638 1.3566 1.1008 1.32988C1.16521 1.30316 1.22373 1.264 1.273 1.21464Z" fill="url(#paint0_linear_243_14766)"/>
<defs>
<linearGradient id="paint0_linear_243_14766" x1="0.89758" y1="24.808" x2="0.89758" y2="-8.9562" gradientUnits="userSpaceOnUse">
<stop stop-color="#827466"/>
<stop offset="1" stop-color="#E6AD74"/>
</linearGradient>
</defs>
</svg>
