<svg width="2" height="2" viewBox="0 0 2 2" fill="none" xmlns="http://www.w3.org/2000/svg">
<path d="M1.47612 1.21464C1.55019 1.14042 1.6006 1.04591 1.62098 0.943053C1.64136 0.840195 1.6308 0.733605 1.59062 0.63675C1.55045 0.539894 1.48247 0.45712 1.39527 0.398886C1.30807 0.340652 1.20556 0.30957 1.1007 0.30957C0.995848 0.30957 0.893344 0.340652 0.806144 0.398886C0.718944 0.45712 0.650961 0.539894 0.610787 0.63675C0.570612 0.733605 0.560047 0.840195 0.580428 0.943053C0.600808 1.04591 0.651219 1.14042 0.725291 1.21464C0.774557 1.264 0.833073 1.30316 0.897491 1.32988C0.96191 1.3566 1.03096 1.37036 1.1007 1.37036C1.17045 1.37036 1.2395 1.3566 1.30392 1.32988C1.36834 1.30316 1.42685 1.264 1.47612 1.21464Z" fill="url(#paint0_linear_299_28276)"/>
<defs>
<linearGradient id="paint0_linear_299_28276" x1="1.1007" y1="24.808" x2="1.1007" y2="-8.9562" gradientUnits="userSpaceOnUse">
<stop stop-color="#827466"/>
<stop offset="1" stop-color="#E6AD74"/>
</linearGradient>
</defs>
</svg>
