<svg width="3" height="2" viewBox="0 0 3 2" fill="none" xmlns="http://www.w3.org/2000/svg">
<path d="M2.77837 1.87094C2.47515 1.73136 1.83214 1.38097 1.53566 0.798601C1.53239 0.79166 1.52721 0.785793 1.52074 0.781683C1.51426 0.777573 1.50675 0.775391 1.49908 0.775391C1.49141 0.775391 1.48389 0.777573 1.47742 0.781683C1.47094 0.785793 1.46576 0.79166 1.4625 0.798601C1.16602 1.38097 0.523001 1.73136 0.219782 1.87094C0.211126 1.87527 0.204127 1.88231 0.199856 1.891C0.195586 1.89969 0.194278 1.90953 0.196134 1.91903C0.197991 1.92853 0.202908 1.93716 0.210134 1.9436C0.21736 1.95003 0.226497 1.95393 0.236146 1.95468C0.65584 1.98356 1.08035 1.99992 1.49908 1.99992C1.91781 1.99992 2.34231 1.98356 2.76201 1.95468C2.77166 1.95393 2.78079 1.95003 2.78802 1.9436C2.79525 1.93716 2.80017 1.92853 2.80202 1.91903C2.80388 1.90953 2.80257 1.89969 2.7983 1.891C2.79403 1.88231 2.78703 1.87527 2.77837 1.87094Z" fill="url(#paint0_linear_243_14772)"/>
<defs>
<linearGradient id="paint0_linear_243_14772" x1="1.49908" y1="2.04324" x2="1.49908" y2="-32.1897" gradientUnits="userSpaceOnUse">
<stop stop-color="#827466"/>
<stop offset="1" stop-color="#E6AD74"/>
</linearGradient>
</defs>
</svg>
