<svg width="24" height="24" viewBox="0 0 24 24" fill="none" xmlns="http://www.w3.org/2000/svg">
<path d="M16 12C16 13.3185 15.7654 14.6075 15.3259 15.7038C14.8864 16.8001 14.2616 17.6546 13.5307 18.1592C12.7998 18.6638 11.9956 18.7958 11.2196 18.5386C10.4437 18.2813 9.73098 17.6464 9.17157 16.714C8.61216 15.7817 8.2312 14.5938 8.07686 13.3006C7.92252 12.0074 8.00173 10.667 8.30448 9.44878C8.60723 8.2306 9.11992 7.18941 9.77772 6.45687C10.4355 5.72433 11.2089 5.33333 12 5.33333C13.0609 5.33333 14.0783 6.03571 14.8284 7.28596C15.5786 8.5362 16 10.2319 16 12ZM24 1.33333V22.6667C24 23.0203 23.9157 23.3594 23.7657 23.6095C23.6157 23.8595 23.4122 24 23.2 24H0.8C0.587827 24 0.384344 23.8595 0.234315 23.6095C0.0842854 23.3594 0 23.0203 0 22.6667V1.33333C0 0.979711 0.0842854 0.640573 0.234315 0.390525C0.384344 0.140476 0.587827 0 0.8 0H23.2C23.4122 0 23.6157 0.140476 23.7657 0.390525C23.9157 0.640573 24 0.979711 24 1.33333ZM22.4 9.05833C21.4916 8.61068 20.6648 7.79135 19.995 6.67497C19.3252 5.5586 18.8336 4.18066 18.565 2.66667H5.435C5.16641 4.18066 4.67481 5.5586 4.00498 6.67497C3.33516 7.79135 2.5084 8.61068 1.6 9.05833V14.9417C2.5084 15.3893 3.33516 16.2087 4.00498 17.325C4.67481 18.4414 5.16641 19.8193 5.435 21.3333H18.565C18.8336 19.8193 19.3252 18.4414 19.995 17.325C20.6648 16.2087 21.4916 15.3893 22.4 14.9417V9.05833Z" fill="#13293D"/>
</svg>
