<svg width="2" height="4" viewBox="0 0 2 4" fill="none" xmlns="http://www.w3.org/2000/svg">
<path d="M1.37006 0.719782C1.23144 1.02396 0.880095 1.66698 0.298685 1.9625C0.291471 1.96564 0.285332 1.97083 0.281021 1.97741C0.276709 1.98399 0.274414 1.99169 0.274414 1.99956C0.274414 2.00743 0.276709 2.01513 0.281021 2.02171C0.285332 2.02829 0.291471 2.03348 0.298685 2.03662C0.876245 2.33214 1.23144 2.97515 1.37006 3.27934C1.37439 3.28799 1.38143 3.29499 1.39012 3.29926C1.39881 3.30353 1.40865 3.30484 1.41815 3.30298C1.42765 3.30113 1.43628 3.29621 1.44272 3.28898C1.44916 3.28176 1.45305 3.27262 1.4538 3.26297C1.48365 2.84232 1.49905 2.41877 1.49905 2.00004C1.49905 1.58131 1.48365 1.1568 1.4538 0.736146C1.45305 0.726497 1.44916 0.717361 1.44272 0.710135C1.43628 0.702909 1.42765 0.697991 1.41815 0.696134C1.40865 0.694278 1.39881 0.695586 1.39012 0.699856C1.38143 0.704127 1.37439 0.711126 1.37006 0.719782Z" fill="url(#paint0_linear_243_14771)"/>
<defs>
<linearGradient id="paint0_linear_243_14771" x1="0.886834" y1="-15.1265" x2="0.886834" y2="19.0429" gradientUnits="userSpaceOnUse">
<stop stop-color="#827466"/>
<stop offset="1" stop-color="#E6AD74"/>
</linearGradient>
</defs>
</svg>
