<svg width="24" height="24" viewBox="0 0 24 24" fill="none" xmlns="http://www.w3.org/2000/svg">
<path d="M16.2495 14.2646C15.0826 13.2273 13.5755 12.6543 12.0141 12.6543C10.4528 12.6543 8.94569 13.2273 7.77873 14.2646C7.68013 14.35 7.59945 14.454 7.5414 14.5708C7.48335 14.6875 7.44908 14.8147 7.44057 14.9448C7.43207 15.0749 7.4495 15.2054 7.49186 15.3288C7.53421 15.4521 7.60065 15.5658 7.68731 15.6632C7.77398 15.7606 7.87913 15.8399 7.99668 15.8963C8.11422 15.9528 8.24181 15.9853 8.37204 15.9921C8.50226 15.9988 8.63252 15.9796 8.75526 15.9356C8.878 15.8915 8.99077 15.8235 9.08701 15.7356C9.89355 15.0187 10.9351 14.6228 12.0141 14.6228C13.0932 14.6228 14.1347 15.0187 14.9412 15.7356C15.1364 15.9091 15.3925 15.9979 15.6532 15.9826C15.9139 15.9672 16.1578 15.8489 16.3313 15.6538C16.5048 15.4586 16.5936 15.2025 16.5783 14.9418C16.563 14.6811 16.4447 14.4372 16.2495 14.2637V14.2646Z" fill="black"/>
<path d="M12.0135 8.61134C9.37059 8.60769 6.82577 9.61221 4.89789 11.4201C4.80029 11.5075 4.72112 11.6136 4.66503 11.732C4.60894 11.8504 4.57707 11.9789 4.57127 12.1098C4.56548 12.2407 4.58589 12.3715 4.63129 12.4944C4.6767 12.6173 4.74619 12.7299 4.83569 12.8257C4.9252 12.9214 5.03291 12.9982 5.15252 13.0518C5.27213 13.1053 5.40123 13.1344 5.53223 13.1374C5.66324 13.1404 5.79353 13.1172 5.91546 13.0692C6.03738 13.0212 6.14849 12.9493 6.24227 12.8577C7.80765 11.3942 9.87057 10.5801 12.0135 10.5801C14.1565 10.5801 16.2194 11.3942 17.7848 12.8577C17.8785 12.9493 17.9897 13.0212 18.1116 13.0692C18.2335 13.1172 18.3638 13.1404 18.4948 13.1374C18.6258 13.1344 18.7549 13.1053 18.8745 13.0518C18.9941 12.9982 19.1018 12.9214 19.1913 12.8257C19.2808 12.7299 19.3503 12.6173 19.3957 12.4944C19.4412 12.3715 19.4616 12.2407 19.4558 12.1098C19.45 11.9789 19.4181 11.8504 19.362 11.732C19.3059 11.6136 19.2268 11.5075 19.1291 11.4201C17.2013 9.61221 14.6565 8.60769 12.0135 8.61134V8.61134Z" fill="black"/>
<path d="M21.6567 8.24304C19.0027 5.87509 15.5703 4.56641 12.0135 4.56641C8.45677 4.56641 5.02435 5.87509 2.37041 8.24304C2.27067 8.32824 2.18896 8.43252 2.13009 8.54974C2.07122 8.66697 2.03637 8.79478 2.0276 8.92566C2.01882 9.05655 2.03629 9.18787 2.07899 9.3119C2.12168 9.43594 2.18874 9.55019 2.27621 9.64794C2.36369 9.7457 2.46982 9.82498 2.58837 9.88114C2.70692 9.93729 2.8355 9.96919 2.96655 9.97495C3.0976 9.9807 3.22848 9.96021 3.3515 9.91467C3.47452 9.86913 3.5872 9.79946 3.68291 9.70976C5.97586 7.66478 8.94091 6.53466 12.0133 6.53466C15.0857 6.53466 18.0507 7.66478 20.3437 9.70976C20.5383 9.88381 20.7941 9.97341 21.0548 9.95886C21.3155 9.94432 21.5597 9.8268 21.7338 9.63218C21.9078 9.43756 21.9974 9.18177 21.9829 8.92108C21.9683 8.66039 21.8508 8.41615 21.6562 8.2421L21.6567 8.24304Z" fill="black"/>
<path d="M12.0127 19.9414C12.8411 19.9414 13.5127 19.2698 13.5127 18.4414C13.5127 17.613 12.8411 16.9414 12.0127 16.9414C11.1843 16.9414 10.5127 17.613 10.5127 18.4414C10.5127 19.2698 11.1843 19.9414 12.0127 19.9414Z" fill="black"/>
</svg>
